<?xml version="1.0" encoding="utf-8"?>
<!-- Generator: Adobe Illustrator 24.3.0, SVG Export Plug-In . SVG Version: 6.00 Build 0)  -->
<svg version="1.1" id="Livello_1" xmlns="http://www.w3.org/2000/svg" xmlns:xlink="http://www.w3.org/1999/xlink" x="0px" y="0px"
	 viewBox="0 0 425.2 491.8" style="enable-background:new 0 0 425.2 491.8;" xml:space="preserve">
<style type="text/css">
	.st0{fill:#FFFFFF;}
</style>
<path class="st0" d="M35.7,110c-1.4,3.5-2.1,7.1-3.1,10.7c-3.1,11.8-6,23.6-7.9,35.7c-0.9,5.8-1.4,11.7-1.8,17.6
	c-0.5,9.4-0.6,18.7-0.6,28.1c0,0.9,0,1.7,0,3c-1-1.3-0.8-2.6-1-3.7c-2.1-13.8-2.7-27.8-1.2-41.7c1.1-10.3,3.8-20.4,7.1-30.2
	c2-6,4.2-11.9,6.9-17.6C34.4,111.2,34.5,110,35.7,110c-0.1-0.1-0.2-0.3-0.2-0.4C35.6,109.7,35.7,109.8,35.7,110z M17.1,204.2
	C17.1,204.2,17,204.2,17.1,204.2C17,204.2,17,204.2,17.1,204.2L17.1,204.2z M245,19.3C245,19.3,245,19.3,245,19.3
	C245,19.3,245,19.3,245,19.3C245,19.3,245,19.3,245,19.3z M246.2,20.4c0,0,0,0.1,0,0.1C246.3,20.5,246.3,20.5,246.2,20.4L246.2,20.4
	z M245,19.3C245,19.3,245,19.3,245,19.3C245,19.3,245,19.3,245,19.3C245,19.3,245,19.3,245,19.3z M245,19.3c0.1-0.1,0.1-0.2,0.2-0.3
	C245.1,19,245,19.1,245,19.3C245,19.3,245,19.3,245,19.3C245,19.3,245,19.3,245,19.3z M400,262.5c0.4-0.9,0.8-1.7,1.3-2.5
	c0,0,0,0,0,0C400.8,260.8,400.4,261.6,400,262.5z M394.2,280.1c-0.9-0.9-0.5-1.9-0.2-2.8c1.3-4.1,2.9-8.2,4.7-12.1
	c-0.3,0.4-0.6,0.7-1.3,0.6c-0.2-0.1-0.4-0.2-0.6-0.3c-0.9-1-0.3-2.5-1.2-3.5c-1.6,2.1-2.2,5.8-1.2,8.8c0.6,1.7,0.4,3.1-0.3,4.7
	c-2.6,5.6-5,11.2-7.4,16.9c-0.2,0.4-0.3,0.8-0.5,1.1c-0.6,1-0.9,2.6-2.5,2.2c-1.5-0.3-1.3-1.7-1.4-2.9c-0.9-7.1-0.1-14.3-1.1-21
	c-0.9,3.7-0.4,7.8-0.9,12c-0.6,4.7,1.1,9.2,2.2,13.7c0.6,2.4,0.5,4.5-0.5,6.8c-2.1,4.7-4.3,9.3-7,13.7c-0.9,1.5-1.9,2.9-4.2,2.1
	c-1.4-0.5-1.6,0.8-1.2,1.6c1,2.5-0.3,3.9-1.7,5.7c-2.9,3.6-6.5,6.3-10.2,8.8c7.1-4.6,13.2-10.4,17.9-17.4c2.4-3.6,5.3-5.4,9.5-5.8
	c2.1-0.2,4-1.1,5.8-2.8c-2.5,0.1-4.5,1.2-6.7,1.4c-2.4,0.2-3.4-0.9-2.4-3.1c3-6.5,5.4-13.2,7.8-19.9c1.2-3.2,3.1-5.2,6.2-6.3
	c1.7-0.6,3.3-1.5,4.5-3.5c-1.4,0.2-2.2,0.9-3.1,1.3C396.2,280.6,395.1,281,394.2,280.1z M354.5,338.1c0.1,0,0.2,0,0.2,0
	c-0.2,0-0.3-0.1-0.5-0.2C354.3,338,354.4,338.1,354.5,338.1z M121.2,43.8C121.2,43.8,121.2,43.8,121.2,43.8
	C121.2,43.8,121.2,43.8,121.2,43.8C121.2,43.8,121.2,43.8,121.2,43.8C121.2,43.8,121.2,43.8,121.2,43.8z M58.4,135.7
	C58.4,135.7,58.4,135.7,58.4,135.7C58.4,135.7,58.4,135.7,58.4,135.7L58.4,135.7z M120.9,71.9C120.9,71.8,120.9,71.8,120.9,71.9
	C120.9,71.8,120.9,71.8,120.9,71.9L120.9,71.9z M331.6,297.3C331.6,297.3,331.6,297.3,331.6,297.3
	C331.6,297.3,331.6,297.3,331.6,297.3C331.6,297.3,331.6,297.3,331.6,297.3z M150.8,370C150.8,370,150.8,369.9,150.8,370
	C150.8,369.9,150.8,370,150.8,370C150.8,370,150.8,370,150.8,370z M150.8,370C150.8,370,150.8,370,150.8,370
	C150.8,370,150.9,370,150.8,370C150.8,370,150.8,370,150.8,370z M126,39.5C126,39.5,126.1,39.5,126,39.5
	C126.1,39.5,126,39.5,126,39.5C126,39.5,126,39.5,126,39.5z M375,198.8c-0.3-1-0.7-2-1-3C374.3,196.8,374.5,197.8,375,198.8
	C375,198.8,375,198.8,375,198.8z M303.9,22.3C303.9,22.3,303.9,22.3,303.9,22.3C303.9,22.3,304,22.3,303.9,22.3L303.9,22.3z
	 M375,198.8c0,0,0-0.1,0-0.1C375,198.7,375,198.7,375,198.8C375,198.8,375,198.8,375,198.8C375,198.8,375,198.8,375,198.8z
	 M375,198.8C375,198.8,375,198.8,375,198.8C375,198.8,375,198.8,375,198.8C375,198.8,375,198.8,375,198.8z M376.3,140.6
	C376.3,140.6,376.3,140.6,376.3,140.6C376.3,140.6,376.3,140.6,376.3,140.6C376.3,140.6,376.3,140.6,376.3,140.6z M345.9,121.3
	c-0.6-1.7-1.2-3.3-1.9-4.7c0.4,1.1,1.1,2.6,1.7,4.2C345.8,120.9,345.8,121.1,345.9,121.3z M344.9,126.3c5.9,3.1,5.8,9.5,7.8,14.6
	c0.6,1.6-0.9,2.6-2.6,1.9c-1.5-0.6-3-1.4-4.9-1.7c2.5,2.5,5.2,4.1,8,5.7c1.5,0.9,2.5,2.1,3.1,3.7c5.2,14.7,11.5,29.1,17.1,43.7
	c-1.7-4.7-3.6-9.3-4.9-14.1c-0.6-2.1-0.4-3.7,1.5-5c1.4-0.9,2-2.3,2-4.2c-1.5,0.2-1.6,1.3-2,2.1c-0.4,0.8-1,1.4-1.9,1.3
	c-1,0-1.5-0.6-1.8-1.5c-2.1-5.6-4.1-11.2-6-16.9c-0.3-1,0.1-1.8,0.5-2.6c0.9-2,1.9-3.9,2.8-5.8c0.5-1,1.1-2,0.9-3.7
	c-1.7,1.4-2.3,3.2-3.2,4.8c-0.5,0.8-0.7,2-2,2c-1.2,0-1.6-1.1-2-2c-1.7-4-3.2-8-4.9-12c-0.3-0.8-0.5-1.6-0.2-2.4
	c1.1-3,1.2-6.2,2.6-9.2c-1.1,0.5-1.8,1.4-2.5,2.4c-1.4,2.2-2.8,2.1-4-0.2c-0.9-1.9-1.6-3.8-2.3-5.7c0.2,0.5,0.2,1-0.4,1.4
	c-0.9,0.8-1.7,0.2-2.4-0.5c-1-0.9-2-1.7-3.6-2.4c0.6,2.1,2.2,3.1,3.3,4.4C343.5,125.3,344.1,126,344.9,126.3z M375,198.8
	C375,198.8,375,198.8,375,198.8C375,198.8,375,198.8,375,198.8C375,198.8,375,198.8,375,198.8z M375.1,199
	C375.1,199,375.1,199,375.1,199C375.1,199,375.1,199,375.1,199C375.1,199,375.1,199,375.1,199z M120.8,71.8
	C120.8,71.8,120.8,71.8,120.8,71.8C120.8,71.8,120.8,71.8,120.8,71.8L120.8,71.8z M417.6,263c-0.7,0.7-1,1.4-0.7,2.4
	c3,10.2,0.2,19.3-5.2,27.9c-0.2,0.4-0.5,0.7-0.7,1c-0.5,0.6-0.6,1.1-0.1,1.7c1.8,2.1,1.5,4.5,0.8,6.8c-0.6,2-1.5,3.9-2.6,5.7
	c-3.8,6.5-8.7,12.2-15.2,16.2c-0.9,0.6-1.4,1.1-1.1,2.4c0.6,2.4-0.8,4.1-2.6,5.5c-2.4,1.9-5,3.2-7.9,4.2c-1.2,0.5-2.5,0.8-3.2,2.1
	c-0.5,1-1.7,1.3-2.7,1.6c-1.4,0.4-2.9,0.7-4.4,0.6c-1.4-0.1-2.5,0.2-3.6,1.1c-2,1.5-4.5,1.6-6.9,1.8c-3.7,0.3-7.5,0.3-11.2-0.2
	c-2.4-0.3-2.4-0.3-3.6,1.9c-2.3,4.2-4.7,8.4-7,12.6c-3.7,7-9.1,12.2-16,16c-1.3,0.7-2.3,1.4-2.2,3.1c0.1,1.4-1.1,2.2-2.3,2.7
	c-2,0.9-4.1,1.8-6.2,2.6c-1.1,0.4-1.4,0.8-1,2c2.7,7,5.3,14.1,8,21.2c0.4,1,1,1.4,2,1.6c2.5,0.4,4.9,0.9,7.3,1.4
	c1.8,0.4,3.5,0.1,5-0.8c0.9-0.6,1.9-1.1,2.8-1.7c10.1-6.9,20.2-13.8,30.3-20.6c1.5-1,2-2.1,1.8-3.9c-0.6-7.4-0.9-14.9-1.3-22.4
	c-0.4-6.9,4.6-10.4,8.9-11.2c1.1-0.2,1.5,0,1.8,1.1c0.5,2.1,1.2,4.1,1.7,6.2c0.3,1.2,1,1.6,2.1,1.8c1.3,0.2,2.6,0.1,4-0.1
	c3.8-0.7,7.5-1.3,11.3-2c1.9-0.3,3.8-0.4,5.7-0.3c2.8,0.1,4.9,1.4,6.3,3.8c1.2,2,1.6,4.1,1.8,6.4c0.9,9.5,3.4,18.6,8.3,26.9
	c2.1,3.5,2.1,6.9-0.3,10.2c-2.1,2.9-4.6,5.4-7.5,7.6c-6.8,5.2-13.9,10-21,14.7c-12.9,8.6-25.8,16.9-39.1,24.8
	c-1.4,0.8-2.9,1.6-4.4,2.4c-4,2.4-8.5,2.8-13,2.5c-7.8-0.6-15.5-1.9-23.2-2.9c-10.8-1.5-21.5-3-32.4-4.1c-0.9-0.1-1.8-0.2-2.9,0.1
	c0.9,1.1,1.9,1.7,2.8,2.3c9.5,6.4,19.5,12,29.7,17.3c1.4,0.7,2.8,1.5,3.9,2.6c2.7,2.6,2.3,6.3-1.1,7.8c-2.4,1.1-4.1,2.3-4.4,5.1
	c-0.1,0.7-0.6,0.9-1.3,0.6c-0.5-0.2-0.9-0.4-1.4-0.5c-0.8-0.2-1.5-0.1-1.7,0.9c-0.1,0.5-0.3,1-0.5,1.4c-1.2,2.9-2.7,4-6,3.8
	c-1-0.1-1.7,0.2-2.4,0.9c-1.8,1.9-4,2-6.3,0.5c-2.1-1.3-4.2-2.6-6.3-3.9c-2.5-1.6-5.1-3-8.1-3.8c-2.7-0.7-4.8-2.5-5.9-5
	c-2.6-5.8-7.1-9.7-12-13.4c-0.3-0.3-0.7-0.5-1-0.7c-4.6-2.8-8.5-6.3-11.7-10.7c-1.2-1.7-2.8-2.8-5-2.9c-0.4,0-0.8-0.2-1.2-0.3
	c-4.6-0.7-8.8-2.3-12.5-5.2c-1.8-1.4-1.9-1.3-3.7,0.2c-2.5,2-5.2,3.9-8,5.6c-3.4,2.1-6.9,2.1-10.4,0.2c-1.8-0.9-3.4-2.2-4.8-3.5
	c-0.7-0.7-1.4-0.7-2.2-0.2c-1.8,1.1-3.5,2.2-5.3,3.2c-2.4,1.4-4.8,2.9-7.6,3.7c-1.1,0.3-1.9,1.1-2.6,1.8c-1.7,1.7-3.3,3.5-5,5.2
	c-2,1.9-4,3.8-7,3.9c-0.4,0-0.8,0.3-1.1,0.5c-3.3,2.3-6.3,5-8,8.7c-2,4.4-5,7.7-9.4,9.9c-3,1.5-5.6,3.4-7.8,6
	c-1.9,2.2-6.2,3.1-8.7,1.6c-2.4-1.4-4.8-2-7.6-1.3c-0.7,0.2-1.5,0.1-2.2,0.1c-2.4-0.1-4.1-1.3-4.9-3.6c-0.5-1.3-0.9-2.5-2.4-2.8
	c-0.6-0.1-0.8-0.6-0.8-1.1c-0.1-1.3-0.9-1.9-2-2.2c-1.1-0.3-2.2-0.9-3-1.7c-1.9-1.8-2.1-4.2-0.3-6.2c1.2-1.4,2.8-2.3,4.5-3
	c6-2.4,11.4-5.8,16.4-9.8c1-0.8,1.5-1.5,1.2-2.9c-0.5-1.9,0.5-3.4,1.9-4.6c1.5-1.2,3-2.4,4.4-3.6c-0.4-0.8-1-0.5-1.5-0.5
	c-11.7,0.9-23.3,1.9-35,2.7c-6.2,0.4-12.4,1.2-18.7,0.8c-2.4-0.1-4.6-0.7-6.7-1.8c-2.3-1.2-4.6-2.3-6.8-3.7
	c-17.2-10.5-33.9-21.6-50.1-33.5c-3.3-2.4-6.5-4.9-9.1-8.1c-0.6-0.8-1.3-1.5-1.8-2.4c-2-3-2.1-6.1-0.2-9.1c5-8.3,7.4-17.3,8.4-26.8
	c0.2-1.7,0.3-3.3,0.9-4.9c1.4-4.1,4.1-6,8.4-6c4.6,0,9.1,1.1,13.5,1.9c2,0.3,3.9,0.8,5.9,0.6c1.4-0.1,2.3-0.5,2.6-2.1
	c0.4-1.9,1.1-3.8,1.6-5.8c0.3-1.3,0.9-1.5,2.1-1.2c5.1,1.1,8.6,5,8.5,10.2c0,4.1-0.4,8.3-0.7,12.4c-0.2,3.9-0.4,7.8-0.7,11.7
	c-0.1,1.2,0.4,2,1.4,2.7c9.7,6.6,19.3,13.2,29.2,19.6c2.4,1.6,4.9,2.1,7.8,1.4c3.1-0.8,6.4-1.1,9.6-1.4c1.3-0.2,2.1-0.6,2.5-1.9
	c1.4-4.1,3-8.1,4.6-12.1c0.5-1.2,0.3-1.9-0.8-2.7c-6.1-4.4-12-9.3-17-14.9c-0.6-0.7-1.3-1-2.1-1.1c-3.3-0.6-5.7-2.5-7.6-5.2
	c-5.1-7.2-9.6-14.7-12.5-23.1c-0.2-0.7-0.7-0.8-1.3-1c-1.9-0.8-3.9-0.8-5.8-0.8c-4.3-0.1-7.8-2.1-11-4.7c-1.6-1.3-3.1-2.7-4.7-4.1
	c-8.4-7.8-16.5-15.9-24.2-24.4C11.8,293.5,3.5,275.2,1,254.4c-1.3-10.3-1.2-20.7-0.4-31.1c0.1-1.6,0.4-3.1,0.9-4.6
	c1-3,2.8-3.6,5.3-1.8c2,1.4,3.7,3,5,5.2c2.9,4.8,5.1,9.9,7.4,14.9c0.7,1.7,1.5,3.2,3.1,4.4c1.8,1.4,2.8,3.5,3.7,5.6
	c1.7,3.8,3.3,7.6,4.9,11.4c1.9,4.5,4.1,8.9,6.6,13.1c4.7,8,8.9,16.1,12.8,24.5c0.3,0.6,0.2,1.8,1.4,1.6l0,0c0,0,0,0,0,0
	c0,0.1-0.1,0.3-0.1,0.4c0-0.1,0.1-0.3,0.1-0.4c-0.1-0.9-0.1-1.8-0.2-3.1c1.1,1.7,2.3,2.7,3.9,3.1c1.8,0.4,2.8,0,3.3-1.7
	c0.4-1.3,0.6-2.6,0.8-3.9c0.3-2.1,0.9-4,2.2-5.7c0.8-1,1.3-2.3,1.8-3.5c1.2-2.7,2.5-5.2,4.5-7.4c0.4-0.5,0.9-1,0.9-1.7
	c-0.1-4.5-0.2-9.1-0.5-13.6c-5.7,11.4-9.6,23.4-12.2,35.8c-1-0.1-0.7-0.8-0.7-1.1c-1.3-14.1,3.1-26.5,12-37.3c0.7-0.9,1.5-1.7,1.7-3
	c0.6-5.1,1.8-10.1,3.3-15.1c0.1-0.3,0.1-0.6,0.2-1c-0.9,0.2-1.1,0.9-1.5,1.4c-2.8,3.9-5.4,7.9-7.9,12.1c-1.8,2.9-3.2,6-4.1,9.3
	c-1.8,6-3.7,11.9-5.4,17.8c-1,3.5-1.9,7-1.9,10.7c0,1-0.2,1.9-0.7,2.9c0-1.1,0-2.2,0-3.3c0-1.5,0.5-3.1-1.6-3.8
	c-0.4-0.1-0.6-1-0.8-1.5c-3.7-7.4-7.4-14.9-10.7-22.5c-0.5-1.1-1.1-2-2.3-2.5c-0.7-0.3-1.3-0.8-1.9-1.2c-2-1.4-3-3.3-2.8-5.8
	c0.1-0.8,0-1.7,0.3-2.5c1.1-2.5,0.4-4.8-0.2-7.3c-2.2-8.1-4.4-16.2-5.4-24.5c-0.1-0.9-0.5-1.3-1.3-1.6c-1.6-0.7-3.1-1.6-4.4-2.8
	c-1.3-1.3-2.1-2.8-1.9-4.7c0-0.3,0.1-0.7,0.4-0.8c0.4-0.2,0.6,0.1,0.8,0.4c0.6,1.1,1.2,0.9,1.9,0.1c0.1-0.1,0.2-0.2,0.4-0.3
	c1.5-1.3,3.5-2.3,4.4-4c0.8-1.5,0.9-3.6,1.3-5.4c3-12.2,5.4-24.4,8.2-36.7c1.9-8.3,3.8-16.7,5.9-24.9c0.3-1.1,0.5-1.9,2.5-1.2
	c-2-2.9-0.9-5.2-0.2-7.5c1.8-6.5,3.9-13,4.6-19.8c0.4-3.8,0.8-7.6,1-11.4c0.4-6.6,0.7-13.3,0.7-19.9c0-0.4-0.1-0.8-0.1-1.3
	c-1.1,0-1.5,0.8-2.1,1.4c-7.8,7.6-13.8,16.3-18.3,26.2c-6,13.1-10,26.9-12.4,41.1c-2,11.9-3.7,23.9-3.6,36.1c0,7.8,0.8,15.6,3.6,23
	c0.1,0.2,0.1,0.4,0.1,0.6c-0.9-0.6-1.2-1.7-1.5-2.6c-2.6-6.4-4-13-4.3-19.9c-1-24.8,2.5-49,11.4-72.3c4.7-12.2,11.4-23.2,20.7-32.6
	c2-2,4.1-3.8,6.4-5.5c0.7-0.5,1.3-1.2,2.2-0.8c1.1,0.5,1,1.4,1,2.3C52.6,78.9,52.2,85,51.7,91c-0.2,1.8-0.4,3.6-0.6,5.5
	c0.5-0.3,0.7-0.8,0.9-1.2C56.1,82.2,63,70.4,70.4,59c4.7-7.2,9.7-14.3,15-21.1c3.8-5,8.1-9.7,13.2-13.5c1-0.7,2-1.5,3.2-1.9
	c2.6-0.9,4.5,0.2,4.9,2.9c0.3,2,0.1,4-0.2,5.9c-1.4,7.4-3.7,14.5-6.6,21.4c-0.4,0.9-0.9,1.7-1,2.8c1-0.5,1.5-1.3,2-2
	c12.8-14.5,26.9-27.5,42.6-38.9c6.4-4.7,13.2-8.2,21.1-9.7c4.2-0.8,8.2-2,12.4-2.6c1.1-0.2,2.3-0.3,3.5-0.3c4.6,0,7.9,4.1,6.9,8.6
	c-0.4,2.1-0.4,2,1.7,2.4c1.1,0.2,2.3,0.5,3.4,0.9c4,1.5,4.7,4.4,1.9,7.5c-0.8,0.9-1.7,1.6-2.6,2.3c-20.6,15.5-41.4,30.6-63.7,43.6
	c-0.8,0.4-1.7,0.7-2.4,1.7c1.1,0.8,2.4,0.9,3.6,1.3c1.2,0.3,2.1,0.9,2.8,1.9c1.1,1.7,2.4,3.2,3.5,4.9c0.6,0.9,1.2,1.1,2.2,0.6
	c5.1-2.9,10.3-5.7,15.8-7.9c0.9-0.4,1.3-0.9,0.9-1.9c-0.2-0.4-0.3-0.8-0.4-1.2c-1.8-5.4-1.7-5.4-0.4-10.8c0.3-1.2,0.9-1.8,2-2.2
	c4.8-1.5,9.6-3.1,14.4-4.8c1-0.4,1.8-0.3,2.8,0.3c4.1,2.7,4.1,2.7,5.7,7.5c0.5,1.4,0.3,3.3,1.7,4c1.2,0.6,2.7-0.3,4.1-0.6
	c4.5-0.8,9-1.5,13.6-2c2.8-0.3,2.4-0.2,2.4-2.7c0-0.2,0-0.5,0-0.7c-0.8-4,1.3-7.2,3.1-10.4c0.4-0.8,1-1,1.8-1c5.4,0,10.8,0,16.2,0
	c0.4,0,1,0,1.2,0.2c1.6,2.2,4.2,3.8,4,7.1c-0.1,1.8,0,3.7,0,5.5c0,1.2,0.3,1.9,1.6,2c6,0.6,11.9,1.5,17.7,2.9
	c0.9,0.2,1.2-0.1,1.5-0.9c0.1-0.5,0.4-0.9,0.4-1.4c0.6-4.1,3.2-6.8,6.2-9.2c0.8-0.7,1.5-0.8,2.5-0.5c5,1.6,9.9,3.2,14.9,4.8
	c1,0.3,1.6,0.8,1.8,1.8c0,0.1,0.1,0.2,0.1,0.2c1.7,4.6,1.7,4.6,0,9.7c-1.3,3.8-1.3,3.8,2.3,5.5c4.5,2.1,9,4.3,13.2,7
	c1.1,0.7,1.8,0.6,2.4-0.5c0.1-0.2,0.3-0.4,0.4-0.6c3.5-4.7,3.5-4.7,8.7-6.9c0.2-0.1,0.3-0.2,0.5-0.2c2.6,0.1,3.8-2,5.4-3.3
	c1.5-1.3,1.3-2.4-0.5-3.4c-4.3-2.3-7.4-5.6-8.6-10.4c-0.3-1.2-0.8-1.6-2-1.6c-1.4,0-2.8-0.3-4-1.2c-1.1-0.8-1.9-1.7-2.1-3
	c-0.2-1.4-1-1.4-2.1-1.3c-3.8,0.3-7.5,0-11.1-0.9c-1.6-0.4-3.2-0.9-4.6-1.8c-3.7-2.1-5.8-5.2-5.7-9.5c0.1-2.3-0.3-2.1-2.3-2.1
	c-4.2,0-8.3,0-12.4-1.1c-1.2-0.3-2.4-0.7-3.5-1.3c-3.4-2-4-5.3-1.5-8.5c0.2,0.7-0.3,1.2-0.4,1.8c-0.6,2.7,0.3,4.5,2.9,5.5
	c1.9,0.7,3.9,1,5.8,1.1c3.6,0.2,7.1,0.2,10.7-0.3c1.4-0.2,2.8-0.2,4.2-0.3c0.3,1.1-0.2,1.9-0.4,2.8c-0.9,4.7,0.7,7.7,5.1,9.5
	c2,0.8,4.2,1.2,6.3,1.3c3.3,0.2,6.6,0.1,10-0.1c0.8,0,1.6-0.3,2.4,0.1c0.4,0.9-0.2,1.6-0.3,2.4c-0.2,1.8,0.2,2.6,1.7,3.2
	c1.9,0.7,3.1,0.4,4-1.2c0.7-1.3,2.3-2.2,2.6-3.5c0.3-1.3-1.3-2.5-1.6-4c-0.2-1.1-0.2-2.1-0.1-3.2c0.1-0.8-0.2-1.2-1-1.3
	c-2.2-0.5-4.4-1-6.5-1.6c-1-0.3-1.5-0.1-2.1,0.6c-1.8,2-4.2,2.8-6.9,2.9c-2.1,0.1-4.1,0-6.2,0c0.7-2.9,2.4-3.6,10.6-4.5
	c0.1-0.7-0.5-0.7-0.9-0.9c-0.1-0.1-0.3-0.1-0.5-0.2c-3.3-1.3-6.6-3-10-3.7c-3.4-0.7-6.9-0.3-10.4-0.6c-2.9-0.3-5.8-0.5-9.1-1.2
	c3.7-1.3,7.3-1.6,10.8-2.2c-4.7-2.7-9.3-5.4-13.7-8.3c0,0,0,0-0.1,0c0,0,0,0,0,0c0,0,0,0,0,0c0,0,0,0,0,0c0,0,0,0,0,0
	c0.8-0.5,1.5-0.1,2.3,0.1c3.7,1.1,7.4,2.4,11.1,3.8c0.8,0.3,1.5,0.7,2.5,0.7c0.4-2.2-0.8-3.9-2-5.6c-1.1-1.6-2.3-3.2-3.2-4.9
	c3.8,2.2,7.6,4.4,8.8,9.1c0.6,2.4,2.2,4,4.4,5.1c5.4,2.4,10.7,4.9,15.9,7.7c0.5,0.3,1,0.5,1.5,0.1l0.1-0.1c0,0,0,0,0,0c0,0,0,0,0,0
	c0,0,0,0,0,0c0,0,0,0,0,0l0,0c-3.4-4.7-7.1-9.3-10-14.4c0.9-0.5,1.6-0.1,2.2,0.2c4.7,2.3,7.7,5.9,8.7,11.1c0.1,0.7,0.2,1.5,0,2.2
	c-0.6,1.5,0,2.4,1.4,2.9c0.5,0.2,0.9,0.4,1.3,0.7c1,0.6,1.7,0.7,2.5-0.4c1.4-1.8,3.4-2,5.4-1.2c2,0.8,3.9,1.8,5.2,3.6
	c-0.1,0.1-0.1,0.2-0.2,0.3c-0.8,0.6-1.6,0.1-2.3-0.2c-1-0.5-2-0.9-3-1.1c-2-0.3-3.2,1-2.8,3c0.3,1.3,1.1,2.4,1.8,3.5
	c1,1.5,1,3.1-0.1,4.6c-3.9,5-3.1,9,2.3,12.6c0.6,0.4,1.2,0.6,1.8,0.9c1.6,0.8,2.8,2,3.4,3.5c-0.1-0.7-0.1-1.5-0.2-2.2
	c0-0.5,0.2-1,0.4-1.4c1.3-2.6,5.1-4.1,8.1-3.3c0,0,0,0,0,0c0,0.1-0.1,0.2-0.1,0.2c0.1,0,0.1,0,0.2,0c0.6,1.5-0.6,2-1.6,2.6
	c-3.6,2.1-3.9,3.8-1.3,7.1c0.9,1.2,1.9,2.3,2.8,3.5c1.3,1.8,2.9,3,5,3.5c1.9,0.4,3,1.5,3.1,3.4c0.1,2-1.4,2.4-2.9,2.7
	c-1.7,0.4-3.1,1.3-3.6,3.1c-0.5,1.9,0.9,2.8,2.1,3.8c1,0.8,1.8,1.7,2.7,2.6c1.4,1.4,2.8,2.2,4.9,1.7c1.6-0.4,2.9,0.4,4.1,1.4
	c5.3,4.2,10.7,8.4,16.6,11.8c1.6,0.9,3.1,1.5,4.9,0.5c0.6-0.3,1.3-0.5,1.9-0.4c2.3,0.3,3.6-0.8,4.3-2.9c0.1-0.1,0.2-0.3,0.4-0.4
	c0.2,0.1,0.5,0.2,0.7,0.3c0.1,0,0.2,0.1,0.2,0.1c0,0,0,0,0,0c-0.1,0-0.1-0.1-0.2-0.1c-0.2-0.1-0.4-0.2-0.7-0.3c0,0,0,0,0.1-0.1
	c1.5-3.3,3.7-6.3,2.8-10.4c-0.7-3,0.2-5.8,2.4-8.5c3.4-4.3,3.2-7.7,0-12.2c-0.6-0.8-0.7-1.6-0.9-2.5c-0.4-2.9-1-5.7-1.9-8.5
	c-0.3-1-0.7-2.2-1.9-2.4c-1.3-0.2-1.6,1-2.1,1.8c-0.8,1.1-1.6,2.1-2.6,3c-1.9,1.6-3.3,1.4-4.2-0.9c-1.2-3-2.2-6.1-3.5-9.1
	c-0.9-2.2-1.9-4.4-3.4-6.4c-2-2.6-3.7-2.9-6.3-1.1c-1.2,0.8-2.2,0.8-3.4,0.2c-3.2-1.7-6.6-2.7-10.2-3.2c-1.1-0.1-2.1-0.2-3.2,0
	c-4.6,0.9-6.1,3.4-4.9,7.9c0.4,1.7,1.9,3.3,0.5,5.1c0,0,0,0,0,0c-0.1,0-0.1-0.1-0.2-0.1c0,0.1,0,0.1,0,0.2c-1,0.4-1.5-0.4-2-1.1
	c-1.3-2.1-2.2-4.5-2.6-6.9c-0.7-4.3,1.8-7.8,6.1-9.3c1.6-0.5,3.2-0.6,5.2-1.3c-2.4-2.2-4.9-3.4-7.9-3.2c-1.9,0.1-2.4,1.7-3,3.3
	c-0.5,1.3-0.4,3.1-2.5,3.2c-0.1-0.1-0.2-0.1-0.3-0.2c0.3-1.6,0.5-3.3,0.8-4.9c0.3-1.5,0.9-2.9,2.2-3.8c0.8-0.5,1-1,0.4-1.8
	c-1.5-2-2.8-4.1-4.8-5.7c-1.5-1.2-3.1-1.8-5.1-0.6c0.6,1,1.2,1.9,1.6,2.8c0.6,1.3,0.7,2.8-0.2,4c-1,1.3-2.5,1.3-3.9,1
	c-2-0.4-3.5-1.5-4.7-3.1c-0.9-1.3-1.6-2.7-2.3-4.1c-3.6-6.6-8.7-11.4-16.2-13.4c-2.7-0.7-5.4-0.8-8.1-1.1c-1-0.1-1.7,0.6-2.4,1.2
	c-1,0.9-1.7,0.6-2.6-0.1c-1.2-0.9-2.5-1.6-3.8-2.3c-3.2-1.8-6.7-1.6-10.2-1.6c-0.3,1.3,1.1,1.8,1,3c-1.6-0.2-3.3-0.4-4.9-0.6
	c-2.6-0.4-5.1-0.3-7.7,0.3c-4.6,1.1-6,5.2-3.1,9c1,1.3,2.4,2.2,3.9,3c0.5,0.3,1.4,0.3,1.2,1.2c-1.7-0.7-3.4-1.2-4.9-2.4
	c-2.5-1.9-3.8-4.4-3.3-7.6c0.3-2.5,1.9-4,4.1-5c2.4-1.1,4.9-1.4,7.5-1.5c1.1,0,2-0.2,2.7-1.3c0.6-1.1,1.9-1.4,3-1.4
	c4.2-0.2,8.5-0.4,12.4,1.6c0.7,0.4,1.4,0.4,2.1,0.3c4.4-0.4,8.8-0.1,13.1,0.8c8.9,1.9,15,7.4,19.3,15.2c0.4,0.7,0.6,1.6,1.5,2.4
	c-0.1-1.9,0.8-3,2.4-3.7c2.1-0.9,4.3-1.2,6.5-0.5c1.8,0.6,3.2,1.8,4.3,3.2c1.5,2,3.1,3.9,4.2,6.2c0.4,0.9,0.9,1.5,2,1.6
	c3.3,0.4,6.1,2,8.8,3.9c2.2,1.6,4.1,3.3,6.1,5.1c2.1,1.8,2.4,1.8,4.7,0.7c2.2-1.1,4.5-1.1,6.7,0.1c1.7,0.9,3,2.3,4.2,3.9
	c2.6,3.5,4.2,7.5,5.7,11.5c0.9,0,0.9-0.7,1.2-1.1c2.1-2.6,5.4-2.9,7.8-0.5c1.5,1.5,2.2,3.5,2.8,5.5c0.7,2.8,0.9,5.7,1.4,8.6
	c0.1,0.5,0,1.1,0.3,1.4c1.5,2.5,1.9,5.3,2.4,8.3c2.4-1.1,4.1,0.1,5.7,1.6c2.2,2,4.1,4.4,5.6,7c0.5,0.8,0.9,1.5,1.9,1.9
	c8.3,3.3,12.7,9.8,14.9,18.1c0.1,0.4,0.2,0.8,0.2,1.2c0.2,2.2,1,3.9,2.8,5.4c3.3,2.9,4.4,7.1,5.1,11.4c0.3,2.2,0.5,4.4,0.5,6.7
	c0,0.5-0.1,1,0.1,1.5c1.1,3.7,0.7,7.4-0.3,11.1c0.8,0.2,1.3-0.4,1.8-0.6c2.8-1.2,4.9-0.1,5.5,3c0.4,2.1,0.1,4.2-0.1,6.2
	c-0.7,5.4-1.5,10.9-3.7,15.9c-0.3,0.8-0.3,1.3,0.2,2c1.5,2,1.3,4-0.1,6.2c-2.9,4.8-5.1,9.8-5.4,15.6c-0.2,4-1,7.9-2.7,11.6
	c-1.2,2.6-2.9,4.6-5.8,5.4c-1.4,0.4-2.8,1.1-4.2,1.6c-1,0.3-1.5,0.9-1.5,2c0,2.7,0,5.3-0.1,8c0,1,0.4,1.3,1.4,1.1
	c0.6-0.1,1.2-0.3,1.7-0.2c1.9,0.2,3.4,0,4.1-2.2c0.3-1,1.4-1.4,2.4-1.6c2.7-0.3,4.8-1.7,7-3.1c0.1-0.1,0.3-0.2,0.4-0.3
	c3.3-1.9,4.5-1.5,6,2.1c1.1,2.6,1.5,5.4,1.6,8.3c0,1.4,0,2.8-0.1,4.2c-0.1,1.7,0.1,3.1,1.4,4.5c2.2,2.6,2.6,5.7,1.6,8.9
	c-0.5,1.6-0.4,2.8,0.8,4.2c3,3.5,3.2,7.2,0.9,11.3C422,257.8,420,260.6,417.6,263z M304.3,23.1l0-0.2c-0.1,0-0.1,0-0.1-0.1
	c-0.1-0.2-0.2-0.3-0.2-0.5c0,0,0-0.1,0-0.1c0,0,0,0-0.1,0c0,0,0,0,0,0c0,0,0,0,0,0c0,0,0,0,0,0c0,0-0.1,0.1-0.1,0.1l0.1,0
	c0,0,0,0.1,0,0.1c0,0,0,0,0,0.1c-0.1,0.2,0,0.2,0,0c0,0,0,0,0-0.1c0,0,0,0,0-0.1c0,0,0.1-0.1,0,0c0,0,0,0,0-0.1c0,0,0,0,0,0
	c0,0.2,0.1,0.4,0.2,0.5c0,0,0,0.1,0.1,0.1c0,0,0.1-0.1,0.1-0.1l-0.1,0.1L304.3,23.1z M366.1,111.3c1.3,1.3,2.9,2.2,4.6,2.9
	c0.5,0.2,1.1,0.4,1.6,0.6c0.5,0.2,1,0.4,0.9,1c-0.1,0.6-0.6,0.7-1.2,0.7c-0.6,0-1.2-0.1-1.7,0.3c-1.4,1-2,4.4-1.1,5.9
	c1.1,1.7,2.5,3.1,4.1,4.3c1.2,1,2.5,1.9,3.8,2.9c0.8,0.6,1.3,1.5,0.7,2.1c-1.4,1.2-0.4,2.2,0,3.2c0.4,0.9,0.9,1.8,1.2,2.8
	c0.9,3.2,2.5,5.7,5.6,7.2c1.6,0.8,1.7,2.2,0.3,3.4c-1,0.9-2.3,1.7-3.4,2.5c-2,1.4-2.2,1.9-1.2,4.1c1.3,2.9,3.3,5.4,5.9,7.2
	c2.5,1.7,4.4,4,6.3,6.4c0.5,0.6,0.8,1.3,0.4,2.1c-0.4,0.7-1.1,1-1.9,0.7c-0.9-0.3-1.4,0.1-1.8,0.8c-0.4,0.8-0.2,1.5,0.3,2.1
	c0.4,0.5,1,0.9,1.5,1.3c6.1,4.5,9.1,10.8,10.8,17.9c0.5,2.2-0.2,4.1-1.9,5.6c-1.4,1.3-3,2.3-4.8,3.1c-2.4,1.1-2.4,1.1-2.2,3.6
	c0,0.5-0.1,1,0.5,1.4c2.4-0.8,4.5-2.2,6.9-3.2c1.6-0.6,2.6-1.8,3.3-3.2c0.9-1.7,1.5-3.5,1.8-5.4c0.6-2.9,0.7-5.8,0.8-8.7
	c0.1-2,0.2-4,0.9-5.9c1.2-3.3,2.3-6.6,4.1-9.6c0.9-1.5,0.8-1.7-0.5-2.6c-1.7-1.1-1.9-1.4-1.1-3.2c1.8-3.4,2.6-7.2,3.2-10.9
	c0.5-3.4,1.2-6.7,1.1-10.2c-1.1-0.1-1.4,0.5-2,0.9c-1.1,0.7-2.1,1.6-3.3,2.3c-2.1,1.2-4.1-0.1-3.9-2.5c0.1-0.9,0.3-1.8,0.6-2.7
	c0.4-1.4,0.9-2.8,1.3-4.3c0.6-2.2,1-4.4,0.3-6.6c-0.4-1.4-0.4-2.8-0.4-4.2c0-3.3-0.1-6.6-1.2-9.8c-0.7-2.2-1.4-4.5-3.5-5.6
	c-2.3-1.2-2.6-2.9-2.8-5c0-0.3-0.1-0.7-0.1-1c-1.5-8.4-5.2-15.2-13.6-18.6c-0.8-0.3-1.3-0.9-1.7-1.7c-0.7-1.3-1.4-2.6-2.2-3.9
	c-1.2-1.8-2.5-3.5-4.2-4.9c-1.1-0.9-1.5-0.7-1.8,0.7c-0.2,0.9-0.3,1.6-1.4,1.7c-1.2,0.1-1.8,0.8-1.6,2c0.1,0.9-0.3,1.5-1.1,1.7
	c-2.2,0.4-2.4,2-2.5,3.7c0,2,0,4,0.4,5.9c0.2,1.1,0.3,2.2-0.6,3c-2.5,2.3-3.5,5.4-4.5,8.5C363.3,106.9,364,109.4,366.1,111.3z
	 M394.6,201.6c2.5-0.9,4.7-2.8,5.6-4.6c0.4-0.9,0.5-1.8,0.3-2.7c-1.2-4.5-3.4-8.5-6.6-12.1C394.2,188.7,394.4,195.1,394.6,201.6z
	 M381.4,213.4c-0.2,4.1-0.4,8.1-0.7,12.2c-0.6,9.8-1.6,19.5-1.8,29.3c0,1.2-0.2,2.3,0.2,3.6c1.1,0,1.7-0.7,2.2-1.3
	c1.2-1.4,2.7-2.3,4.6-2.1c1.3,0.1,1.5-0.6,1.7-1.6c1.2-7,2.1-13.9,2.5-21c0.7-11.6,0.7-23.2,0.5-34.8c-0.1-6-0.5-11.9-1.2-17.9
	c-0.1-1.2-0.6-2.1-1.5-3c-2-1.9-2.3-3.9-1.1-6.1c1.3-2.4,1.2-2.8-0.9-4.5c-1.6-1.2-3.3-2.3-4.6-3.8c-0.3-0.4-0.6-1.1-1.4-0.8
	c0.4,2.3,0.9,4.6,1.2,6.8c1.2,8,1.3,16,1.5,24.1c0,2.8-0.5,5.2-1.6,7.7c-0.5,1.1-1.1,2-1.8,3c-0.5,0.8-0.8,1.7-0.4,2.6
	c0.8,1.6,1,3.4,2,4.8C381.3,211.4,381.4,212.3,381.4,213.4z M339.2,101.1c-3,0.1-4.2,1.3-4.3,4.3c0,2.6,0.1,5.1,0.1,7.7
	c0,1-0.3,1.4-1.4,1.6c-2,0.3-2.7,1.1-3,3c-0.2,1.6-0.1,3.1,0.2,4.7c0.7,3.4,1.8,6.6,3.2,9.7c0.6,1.3,0.4,2-0.8,2.8
	c-2.5,1.7-2.7,3.5-1.1,6c0.6,0.9,1.3,1.7,2.1,2.4c1.3,1.1,2.7,2.2,4,3.3c4.2,3.3,8.4,6.6,12.3,10.1c1.8,1.6,3.7,3.2,4.9,5.3
	c4.5,7.9,8.9,15.7,11.6,24.5c1,3.3,2.3,6.4,3.9,9.4c1,1.7,2.1,3.4,3.1,5.1c0.2,0.3,0.5,0.7,1,0.3c0.3-0.3,0.6-0.6,0.3-1.1
	c0,0,0,0,0,0c0,0,0,0,0,0c0.1-0.2,0-0.5,0-0.7c0,0,0,0,0,0c0.1,0.2,0.1,0.5,0.1,0.7c2.7-2.7,3.4-6.3,2-9.6c-0.3-0.7-0.8-1-1.5-1
	c-1-0.1-1.8-0.6-1.8-1.7c0-4.9-0.2-9.8,1.1-14.6c0.7-2.5,0.9-4.9,0.4-7.4c-0.7-3.7-1.9-4.9-5.7-5.2c-1.1-0.1-1.5-0.5-1.2-1.6
	c1-3.5,1.9-7.1,3.8-10.2c1.5-2.5,3.1-4.9,3.4-7.9c0-0.2,0.3-0.4,0.4-0.5c0,0,0,0,0,0c-1,3.1-1.3,6.2,0.5,9.4
	c1.3-0.9,2.5-1.8,3.9-2.8c-1.9-2-3.7-4-4.4-6.6c0,0,0,0,0,0c0,0,0,0,0,0c0,0,0,0,0,0l0,0c-0.7-0.6-0.5-1.5-0.7-2.3
	c-0.7-2.6-2.9-4.7-2.4-7.7c0-0.1-0.1-0.3-0.2-0.4c-1.4-1.4-2.8-2.7-4.3-4.1c-1.2,1.3-2,2.7-2.4,4.2c-0.3,1.1-0.6,2.3-1.3,3.2
	c-1,1.2-2.6,1.8-3.7,1.3c-1.1-0.4-1.6-1.7-1.5-3.4c0.2-2.2,0.9-4.2,2-6.1c1.1-2,2.2-3.9,3-6c1.2-3.2,1-6-1.6-8.4
	c-0.5-0.5-1-1.1-1.5-1.7c-2-2.3-3.2-2.2-5.1,0.8c-0.4,0.6-0.5,1.4-0.6,2.2c-0.1,0.7-0.2,1.3-0.4,1.9c-0.2,0.8-0.9,1.3-1.7,1.2
	c-0.9-0.1-1.5-0.7-1.6-1.6c-0.1-0.7-0.1-1.5,0.1-2.2c0.6-1.9-0.1-3.1-1.7-4.1c-2.5-1.6-4.9-3.4-7.3-5.2
	C342.1,101.3,340.7,101,339.2,101.1z M364.5,125.7c-1.6,1.9-2.5,3.9-2.9,6.1c-0.1,0.6-0.2,1.2,0.4,1.6c0.7,0.4,1.3-0.1,1.8-0.5
	c1.1-0.8,1.2-2.1,1.8-3.2C366.4,128.1,366.1,126.9,364.5,125.7z M372.4,151.3c-0.9,1.9-1.2,3.5-1.6,5.1c-0.5,2.3-0.5,2.3,1.7,2.8
	c0.7,0.2,1.4,0.4,2.6,0.8C374.1,157,373.8,154.1,372.4,151.3z M375.1,245.6c0.5-6,1-12.1,1.3-18.1c0.2-3.3,0.8-6.6,0.5-10.1
	c-0.5,0.1-0.7,0.1-0.8,0.2c-3.1,3.3-7,3.7-11.2,3.3c-0.2,0-0.3,0-0.5,0c-2.1,0-2.1,0-2.4,2c-0.6,5.6-1.5,11.2-2.7,16.7
	c-0.3,1.3,0,1.8,1.3,2.1c3.7,0.9,7,2.3,9.3,5.7c1.1,1.7,2.8,0.2,4.2,0.2C375.4,247.6,375.1,246.4,375.1,245.6z M366.3,266.8
	c-0.7,4.3-0.1,8.4,0.3,12.9c4.8-3.6,9.2-20.1,8-29c-1.9,0.2-3.6,1-5.4,1.7c-1.5,0.6-2.1,1.7-2.3,3.2c-0.3,1.9-0.4,3.8-0.4,5.7
	C366.5,263.2,366.7,265,366.3,266.8z M349.8,287.9c-1.5,3.3-3.5,6.3-6.2,8.6c-2.3,2-3.4,4.3-3.7,7.3c-0.1,1.2-0.4,2.4-0.6,3.7
	c-0.2,1.3-0.4,2.6-0.2,3.9c0.6,0.1,0.7-0.2,0.9-0.5c6.1-7.6,13-14.4,20.6-20.5c1.2-1,1.1-1.6-0.5-2.2c-1-0.4-1.8-0.3-2.2,0.8
	c-0.1,0.4-0.2,0.8-0.4,1.2c-0.5,0.9-1.2,1.4-2.2,1.1c-1-0.2-1.5-1-1.6-2c0-0.6,0.1-1.2,0.1-1.7c0.2-3.7,0.7-7.4,0.6-11.2
	c0-1.6-0.3-1.7-1.8-1.4c-0.3,0.1-0.6,0.2-1,0.3c-2.3,0.4-4.1-1-4.5-3.2c-0.2-1.1-0.1-2.1,0.2-3.2c0.5-2.5,1.5-4.9,2.6-7.2
	c3.5-7,3.8-14.3,1.7-21.7c-0.3-0.9-0.5-1.8-1.3-2.3c-0.4,0.1-0.5,0.3-0.8,0.6c-1.4,1.8-2.4,1.9-4.1,0.3c-0.3-0.3-0.6-0.6-0.8-0.9
	c0,0,0,0,0.1-0.1l0,0c0,0,0,0-0.1,0c-0.5-2.2-1.1-4.3-3.2-5.7c-0.9-0.6-1.7-1-2.5,0.3c-0.4,0.6-1,1.1-1.7,1.4
	c-1.2,0.6-1.6,1.6-1.6,2.8c0,1.2-0.2,2.5-0.6,3.7c-0.7,1.9-1.1,2.2-3.1,2.1c-2.8-0.1-4.9,1.8-4.7,4.5c0.2,3.7,0,7.5,1.8,10.9
	c0.6,1.1,0.7,2.4,1,3.6c0.8,3.8,1.3,7.7,1.8,11.5c0.3,2.6-0.4,4.7-2,6.6c-2.2,2.5-4.8,4.3-7.8,5.6c-2.4,1.1-2.6,1.5-1.6,4
	c0.9,2.2,1.5,4.4,1.6,6.7c0.1,2.6,1.3,4.2,3.7,5c1.8,0.6,3.1,1.8,4.1,3.4c0.9,1.5,1.8,3,2.3,4.7c0.8,2.5,0.3,3.5-2.3,4
	c-1,0.2-1,0.7-0.9,1.4c0.4,2.3,1.6,4.1,3.5,5.5c0.8,0.6,1.3,0.3,1.8-0.5c0.6-1.1,1.3-2.1,2-3.2c0.8-1.2,2-2.2,0.1-3.5
	c-0.3-0.2-0.3-0.9-0.4-1.4c-1.1-4.2-2.2-8.3-4-12.3c-0.2-0.4-0.3-0.9-0.4-1.3c1.7,2,2.9,4.4,4.2,6.5c0.6-0.1,0.6-0.4,0.6-0.6
	c0.4-4,1.4-7.8,2.6-11.6c0.3-0.9,0.5-1.9,0.6-2.9c0.7-8.3,0.6-16.6,0.1-24.9c-0.2-3.2-0.3-6.3,0.2-9.4c0.3-1.9,0.5-3.8,0.7-5.7
	c0.1-2.1-0.5-2.8-2.4-3.5c-0.7-0.2-1.5-0.1-2-0.9c0.6-0.3,1.3,0.2,1.8-0.5c-0.2-0.5-0.4-1-0.6-1.6c-0.6-1.7-0.2-3.1,1-4.3
	c1.3-1.3,2.9-1.6,4.6-1c0.5,0.2,0.9,0.6,1.5,0.5c0,0,0,0,0,0c0,0,0,0,0,0c-0.5,0.5-0.9,1-1.4,1.3c-1.8,1.1-2.4,2.8-2.9,4.7
	c-0.2,0.8-0.1,1.2,0.5,1.7c1.3,0.9,1.6,2.3,1.6,3.7c0,2.3,0,4.6,0,7c0,0.5-0.2,1.1,0.5,1.5c1.4-3.1,3-5.9,6.3-7.5
	c0.3,4.2-1.6,8.3-5,11.1c-0.8,0.7-1.4,1.2-1.2,2.5c1,6.7,1.1,13.6,0.9,20.4c0,1.9-0.2,3.7-0.4,6c2.3-1.8,4.1-4,6.8-4.8
	C350.8,286.3,350.2,287.1,349.8,287.9z M271.2,383.2c0.1-1.7,0.9-3,2.2-4c2.1-1.6,4.3-2.8,6.7-3.7c1.4-0.5,2.7-0.6,4.1,0
	c1.5,0.7,3.1,1.2,4.6,1.8c0.7,0.3,1.4,0.4,2.1-0.1c3.1-1.9,6.2-3.8,9.2-5.9c1.1-0.7,0.9-1.3,0.1-2.2c-2.5-2.5-5.3-4-9-4.8
	c-3.4-0.8-5.7,0-8.2,1.8c-0.3,0.2-0.7,0.4-1.1,0.6c-6.6,3.8-13.3,7.5-20,11.2c-3.7,2.1-7.2,4.5-10.4,7.3c-2.8,2.5-4.3,5.7-6.1,8.9
	c0.4,0.2,0.5,0.3,0.6,0.3c4.2,0.3,8.5,0.5,12.6,1.2c0.9,0.2,1.6-0.3,2.3-0.7c2.2-1.5,4.4-3,6.6-4.4c2.3-1.4,3.6-3,3.1-5.8
	C271,384.4,271.2,383.8,271.2,383.2z M302.9,365.8c1.3,1.3,1.4,1.3,2.5-0.3c2.4-3.4,4.7-6.9,6.9-10.4c1.2-2,2-4,2-6.3
	c0-1.7,0.3-3.5,0.5-5.2c0.3-2.2,0.6-4.4,1.5-6.5c0.4-1,1.1-1.7,2.1-2.3c3-1.7,6.1-2.1,9.6-0.6c1.6-4.3,3.1-8.3,4.9-12.2
	c0.5-1.1-0.1-1.4-0.9-1.9c-3.3-1.8-4.8-4.7-4.9-8.4c0-1.4,0-2.8,0-4.2c0-0.6-0.3-0.9-0.8-1.1c-0.5-0.2-0.8,0.1-1.1,0.4
	c-0.3,0.4-0.7,0.7-1,1.1c-3.1,3.3-6.3,6.6-9.7,9.7c-1,1-2.7,1.6-2.9,2.9c-0.1,1.3,1.4,2.3,2.2,3.5c0.8,1.2,2,2.3,2.1,3.9
	c0.2,1.7,0.4,3.5,0.6,5.2c0.2,1-0.2,1.7-1.1,2.3c-4.3,3-8.5,6.1-12.8,9.1c-0.8,0.6-1.6,0.7-2.5,0.4c-4.8-1.3-4.8-1.3-7.6-5.2
	c-0.4-0.5-0.8-1.1-1.2-1.6c-1.8-2.6-1.5-2.2-3.8-0.9c-4,2.2-8,4.3-12.2,6.3c-1.3,0.6-3.1,0.7-3.6,2c-0.5,1.3,0.6,2.6,0.9,4
	c0.3,1.3,1.1,2.5,0.9,3.8c-0.3,1.9-0.8,3.7-1.1,5.6c-0.2,1-0.8,1.5-1.8,1.8c-4.9,1.5-9.8,3.2-14.7,4.8c-1,0.3-1.9,0.2-2.8-0.4
	c-4-2.6-4-2.6-5.5-7.1c-0.2-0.7-0.5-1.4-0.7-2.1c-0.8-2.4-0.8-2.4-3.3-2c-5,1-10,1.9-15,2.3c-2.9,0.2-3.1,0.3-2.8,3
	c0.3,3.7-0.5,6.9-2.7,9.8c-0.1,0.1-0.2,0.3-0.3,0.4c-0.5,1.4-1.6,1.7-3,1.7c-4.1-0.1-8.2-0.3-12.2,0.1c-3.3,0.3-5.5-0.9-7.1-3.7
	c-0.7-1.2-1.3-2.2-1.2-3.7c0.1-1.8,0-3.7,0-5.5c0-1.9-0.1-1.9-1.9-2.1c-5.5-0.5-10.9-1.4-16.2-2.6c-1.9-0.4-2.3-1-2.9,1.7
	c-0.8,3.9-2.9,6.9-6.1,9.3c-1.1,0.8-1.9,1.1-3.1,0.6c-3.9-1.4-7.8-2.8-11.8-3.8c-3.1-0.8-4.9-2.3-5.5-5.4c-0.3-1.5-0.7-2.8-0.1-4.3
	c0.5-1.2,0.9-2.5,1.3-3.8c1-3.2,1.3-2.8-1.8-4.2c-4.7-2.1-9.3-4.4-13.7-7.1c-1.9-1.1-2.1-1.2-3.2,0.8c-2,3.3-4.6,5.5-8.2,6.8
	c-1.5,0.5-2.5,0.7-3.8-0.4c-3.1-2.5-6.4-4.7-9.6-7.1c-3.6-2.7-3.6-2.7-3.7-7c-0.1-1.5,0.3-2.7,1.2-3.9c1.2-1.5,2.2-3.1,3.4-4.6
	c0.6-0.8,0.7-1.4-0.1-2.1c-4.5-4-8.7-8.2-12.6-12.7c-0.7-0.8-1.3-0.8-2.1-0.2c-1,0.8-2.2,1.5-3.2,2.4c-1.2,1-2.5,1.5-4.1,1.6
	c-1.7,0.1-3.5,0.3-5.2,0.5c-1.2,0.1-1.3,0.3-0.7,1.3c0.5,0.9,1.1,1.4,2.2,0.6c0.5-0.3,1.1-0.4,1.6-0.6c1-0.3,1.6,0,1.8,1
	c0.3,1,0.6,2.1,0.9,3.1c1.7,6.3,3.2,12.6,2.7,19.1c-0.1,1.4,0.2,2.6,0.9,3.7c6.7,10.7,15,20.1,24.8,28c1.7,1.3,1.5,1.5,3.1-0.3
	c3.1-3.5,6.9-6,11.8-6.3c0.7,0,1.3-0.2,1.9-0.4c2.2-0.8,4.2-0.4,6.1,0.9c1.7,1.2,3.5,2.2,5.3,3.3c6.4,3.7,12.9,7.3,19.3,10.9
	c2.8,1.6,5.4,3.3,7.8,5.3c2.7,2.2,5.1,4.7,6.9,7.8c1,1.7,2.1,3.4,3.2,5.1c0.4,0.6,0.8,1.3,1.7,1.3c3.5-0.2,7.1,0.2,10.4-1.9
	c2.8-1.8,6.1-2.7,9.5-2.5c1.6,0.1,3.1-0.1,4.6-0.6c4.7-1.7,9.4-1.5,13,2.1c2.2,2.2,4.5,2.8,7.3,2.6c0.7,0,1.5,0.1,2.2,0.1
	c2,0,4.2,0.8,5.9-0.1c1.7-1,2.5-3.2,3.5-5.1c2.1-3.9,5.1-7,8.5-9.6c2.7-2,5.5-3.8,8.4-5.4c7.1-4,14.3-7.8,21.2-12.1
	c3-1.9,5.8-3.2,9.2-1.7c0.1,0.1,0.3,0.1,0.5,0.1C296.3,360.6,299.8,362.8,302.9,365.8z M151,370.8
	C150.9,370.8,150.9,370.9,151,370.8L151,370.8C150.9,370.9,151,370.9,151,370.8c4.7,3.9,8.6,8.3,11.3,13.8c0.6,1.3,1.7,2.2,2.9,3
	c4.1,2.6,8.4,4.7,12.8,6.7c1.2,0.5,2.3,0.4,3.8,0.1c-2.3-3.8-4.2-7.5-7.5-10.2c-2-1.6-3.9-3.1-6.1-4.4c-5.1-2.9-10.2-5.8-15.4-8.7
	C152.2,370.9,151.7,370.4,151,370.8C151,370.9,151,370.9,151,370.8C151,370.8,151,370.8,151,370.8c0.2-0.3,0-0.5-0.1-0.8
	c0,0,0,0,0-0.1c0,0-0.1-0.1-0.1-0.1c0,0,0,0,0,0c0,0,0,0,0,0c0,0,0,0,0,0.1c0,0,0,0,0,0c0-0.2-0.1,0,0,0c0,0,0,0,0,0.1
	c0,0,0,0,0,0.1c0,0.1,0,0.1,0,0.1c0,0,0,0,0.1-0.1c0,0,0,0,0,0C150.8,370.3,150.8,370.6,151,370.8z M144.7,366.7
	C144.7,366.7,144.7,366.7,144.7,366.7C144.7,366.7,144.8,366.8,144.7,366.7C144.8,366.7,144.8,366.8,144.7,366.7L144.7,366.7
	C144.8,366.7,144.8,366.7,144.7,366.7C144.8,366.7,144.8,366.7,144.7,366.7C144.8,366.7,144.8,366.7,144.7,366.7
	C144.8,366.7,144.8,366.7,144.7,366.7C144.9,366.5,144.7,366.6,144.7,366.7C144.7,366.7,144.7,366.7,144.7,366.7
	c-0.3-0.2-0.7-0.4-0.9-0.6c-2.3-1.8-4.7-3.1-7.7-1.6c-0.1,0.1-0.3,0.1-0.5,0.1c-3.9,0-6.6,2.3-9.1,4.9c-0.8,0.8-0.9,1.5,0.2,2.1
	c1.6,0.9,3,2,4.6,2.9c0.8,0.5,1.5,1.2,2.7,1.1c0.1-0.7,0.1-1.4,0.2-2c0.7-3.6,3.6-7.4,8.5-7C143.4,366.7,144.1,366.7,144.7,366.7
	C144.7,366.7,144.7,366.7,144.7,366.7z M85.2,205.7c3.8,0,3.2,0.3,3.4-3.4c0.1-2,0.1-2.1-2-2.1c-5.1,0-10.3,0-15.4,0
	c-4.7,0-9.5,0-14.2,0c-3.8,0-3.5-0.8-3.5,3.9c0,1.2,0.5,1.7,1.6,1.6c0.6,0,1.2,0,1.7,0C66.2,205.7,75.7,205.7,85.2,205.7z
	 M81.6,208.7c-8.7,0-17.4,0-26.1,0c-0.4,0-0.8,0-1.2,0c-0.5,0-0.8,0.3-0.8,0.8c0,1.2,0,2.5,0,3.7c0,0.6,0.5,0.8,1.1,0.9
	c0.7,0.1,1.3,0.1,2,0.1c7.2,0,14.4,0,21.6,0c3.2,0,2.6,0.2,3.7-2.5c0.4-0.8,0.7-1.6,1.2-2.8C82.4,208.8,82,208.7,81.6,208.7z
	 M58.4,135.7c0,0.1-0.1,0.1-0.1,0.2C58.4,135.8,58.4,135.8,58.4,135.7C58.5,135.7,58.5,135.6,58.4,135.7c0.5-0.5,0.2-1,0.1-1.5
	c0.2,0,0.2,0,0.2,0c0,0,0,0-0.1,0c0.6,0.1,0.9-0.3,1.2-0.8c1.6-2.6,3.5-5,4.9-7.7c1.4-2.7,2.9-5.4,3.5-8.5c0,0,0.1-0.1,0.1-0.1
	c0,0,0-0.1,0-0.1c0.1,0,0.3,0,0.1-0.3c0,0.1-0.1,0.2-0.1,0.3c0,0-0.1,0-0.1,0c0,0,0.1,0.1,0.1,0.1l-0.1-0.1c0,0,0,0.1,0,0.1
	c-0.6,0.4-0.8,1.1-1.2,1.7c-2.5,4.5-4.9,9-7.3,13.4c-0.3,0.6-0.5,1.4-1.2,1.8c0,0,0,0,0,0c0,0,0,0,0,0c0,0,0,0,0,0c0,0,0,0,0,0
	c0,0,0,0,0,0C58.5,134.6,58.5,135.1,58.4,135.7C58.5,135.6,58.5,135.6,58.4,135.7C58.4,135.7,58.4,135.7,58.4,135.7z M55.7,153.3
	c-4.4,12.8-8.1,25.8-11.8,38.8c-1.7,5.9-2,12.3-5,17.9c-0.3,0.6,0,0.9,0.4,1.3c0.5,0.4,1,0.7,1.5,0.2c1-1,2.1-1.9,3-3
	c6.1-6.9,11.4-14.3,16-22.2c9-15.3,17-31.2,24.9-47.1c4.3-8.6,6.4-17.8,6.6-27.4c0-1.2,0.1-2.5,0-3.7c-0.1-1.2-0.1-2.7-1.4-3.3
	c-1.4-0.7-2.5,0.5-3.5,1.4c-1.8,1.7-3.5,3.5-5.2,5.4C70,123.8,61.2,137.5,55.7,153.3z M120.3,45c0,0-0.1,0.1-0.1,0.1
	c-1.4,0.1-2.1,1.2-2.9,2.1c1.3-0.3,2-1.4,2.9-2.1C120.2,45.1,120.3,45.1,120.3,45L120.3,45C120.3,45.1,120.3,45.1,120.3,45
	c0.1,0,0.1-0.1,0.1-0.1c0.1-0.1,0.1-0.3,0.2-0.4c0,0,0.1,0,0.1-0.1l-0.1-0.1c0,0,0,0.1-0.1,0.1c-0.1,0.1-0.2,0.2-0.2,0.4
	C120.3,44.9,120.3,45,120.3,45C120.3,45,120.3,45,120.3,45z M121.1,43.9c-0.2,0.2-0.3,0.4-0.5,0.5c0,0,0.1,0.1,0.1,0.1
	C120.8,44.3,121,44.1,121.1,43.9c0.1,0,0.1,0,0.1,0c0,0,0,0,0,0c0,0,0-0.1,0-0.1c0,0,0,0,0,0L121.1,43.9
	C121.2,43.8,121.2,43.8,121.1,43.9C121.1,43.8,121.1,43.8,121.1,43.9z M120.8,71.8c-0.1,0-0.2,0.1-0.2,0.1c-0.3,0-0.6,0-0.9,0.3
	c0,0-0.1,0-0.1,0c0,0,0,0,0,0l-0.1,0c0,0,0,0,0,0.1c-0.1,0-0.3,0-0.4,0c-0.3,0.1-0.7,0.4-0.5,0.6c0.2,0.4,0.5,0,0.7-0.1
	c0.2-0.1,0.3-0.3,0.2-0.5c0,0,0,0,0,0c0,0,0,0,0,0c0.3,0.1,0.6-0.1,0.9-0.3c0.1,0,0.3,0,0.4-0.1c0,0,0-0.1,0-0.1c0,0,0,0-0.1,0
	C120.9,71.8,120.9,71.8,120.8,71.8c0.1,0,0.1,0,0.2-0.1L120.8,71.8C120.9,71.7,120.9,71.7,120.8,71.8
	C121,71.7,120.9,71.6,120.8,71.8C120.9,71.7,120.9,71.7,120.8,71.8C120.8,71.7,120.8,71.8,120.8,71.8L120.8,71.8L120.8,71.8
	C120.8,71.8,120.8,71.8,120.8,71.8z M115.4,49.8c-1.1,0.6-2.1,1.4-3.1,2.1c-9,7-15.8,15.8-21.5,25.5c-6,10.3-11.1,20.9-15.5,32
	c-0.7,1.7-1.2,3.5-2.3,5c0,0,0,0,0.1,0c0,0,0,0,0,0.1c0,0,0,0,0,0c0.1,0,0.1,0.1,0.1,0c-0.2-0.3,0.1,0.1-0.2-0.2
	c1,0.5,1.3-0.4,1.8-0.9c2.9-3.1,5.8-6.1,9.1-8.8c0.7-0.6,1.1-1.4,1.5-2.2c6.3-14,14.3-27,24.1-38.9c0.3-0.4,0.8-0.8,0.9-1.3
	c0.6,1.1-0.2,2-0.6,3C104.3,77.5,97.2,89,89.1,99.8c-0.5,0.7-1.3,1.3-1.4,2.3c4.1,0.3,4.5,0.6,5.9,5.6c0.8-0.4,1-1.3,1.3-2
	c3-6,6.1-12,9.5-17.8c1.1-1.9,2.1-3.8,3.7-5.3c6.2-6.4,9.5-14.1,10.6-22.8c0.4-2.8,0.5-5.6,0-8.4C118.2,49.2,117.3,48.8,115.4,49.8z
	 M204.7,90.2C204.7,90.2,204.7,90.2,204.7,90.2c-1.6,0-3.1,0-4.7,0c-4.2,0-3.4-0.4-3.7,3.6c-0.1,1.8-0.1,1.8,1.7,1.9
	c3.1,0,6.3,0,9.4,0c4,0,4,0,4.9-3.8c0-0.1,0-0.2,0.1-0.2c0.3-0.9,0-1.4-1-1.4C209.1,90.2,206.9,90.2,204.7,90.2z M195.8,102.5
	c-0.1,1.2,0.3,1.6,1.5,1.6c2.1-0.1,4.3,0,6.5,0c5,0,5,0,6-4.9c0-0.1,0-0.2-0.2-0.6c-3.4,0-6.7,0-10,0
	C195.4,98.7,196.1,97.9,195.8,102.5z M195.4,110.9c0,0.1,0,0.2,0,0.2c-0.1,1.1,0.5,1.4,1.5,1.4c2.5,0,5,0,7.4,0
	c0.7,0,1.4-0.1,1.6-0.9c0.4-1.4,1.1-2.7,1.1-4.6c-2.7,0-5.3,0-7.9,0C195.1,107.2,195.6,106.4,195.4,110.9z M195,117.3
	c-0.1,4.3-0.4,3.7,3.4,3.7c5,0,5,0,6-4.9c0-0.1,0-0.2-0.1-0.4c-2.5-0.3-5,0-7.5-0.2C195.3,115.5,195,116.1,195,117.3z M194.5,126.2
	c-0.1,3.7-0.4,3.3,3.3,3.3c2.3,0,2.3,0,3-2c1.3-3.9,1.3-3.4-2.4-3.4c-0.5,0-1,0-1.5,0C194.6,124.1,194.6,124.1,194.5,126.2z
	 M194,136.2c0,1.7,0.1,1.8,1.8,1.8c1,0,1.7-0.2,2-1.3c0.3-1.3,0.8-2.5,1.2-4c-0.6-0.1-1-0.2-1.3-0.2
	C194,132.4,193.9,132.4,194,136.2z M193.6,142.9c-0.1,0.8-0.1,1.6-0.1,2.5c0,0.4,0.1,0.9,0.6,0.9c0.3,0,0.6-0.2,0.7-0.6
	c0.5-1.5,1.2-2.9,1.3-4.4C193.8,140.9,193.7,140.9,193.6,142.9z M192.1,173.3c-0.8,2.4-0.8,2.4-3.2,2.4c-22.4,0-44.9,0-67.3-0.1
	c-0.9,0-1.8-0.2-2.8,0.4c0.5,0.9,1.3,1.3,2,1.7c3.5,2.6,7,5.1,10.5,7.6c14.7,10.7,29.4,21.4,44.1,32.1c1.8,1.3,2,0.9,1.1,3.6
	c-7,21.6-14.1,43.2-21.1,64.8c-0.2,0.6-0.6,1.2-0.2,2c0.8-0.5,1.5-1,2.2-1.5c18.2-13.2,36.4-26.4,54.7-39.6c1.9-1.4,1.6-1.4,3.6,0
	c18.2,13.2,36.3,26.3,54.5,39.5c0.8,0.6,1.5,1.3,2.5,1.5c0.4-0.9-0.1-1.5-0.3-2.2c-6.8-21.2-13.7-42.3-20.5-63.4
	c-1.3-4-1.7-2.9,1.8-5.5c17.7-12.9,35.5-25.8,53.2-38.7c0.8-0.6,1.7-1,2.3-2c-0.9-0.4-1.8-0.3-2.7-0.3c-22.4,0-44.9,0-67.3,0.1
	c-2.4,0-2.4,0-3.1-1.9c-3.9-11.8-7.7-23.7-11.5-35.5c-3.2-9.9-6.4-19.7-9.6-29.6c-0.2-0.6-0.1-1.6-1.2-1.7c-0.3,0.8-0.5,1.6-0.8,2.4
	C205.9,130.7,199,152,192.1,173.3z M232.3,124.1c-0.1,0-0.2,0-0.2,0c-1.9,0-3.8,0-5.7,0c0.4,4.9,1.5,5.9,5.8,5.5
	c1.2-0.1,1.5-0.7,1.3-1.6C233.1,126.6,234.3,124.9,232.3,124.1z M233.9,136.3c-0.2-4.3,0.4-3.8-3.9-3.8c-0.3,0-0.6,0.1-1.2,0.2
	c0.5,1.6,1,3,1.4,4.3c0.5,1.5,1.8,0.9,2.8,0.9C234.1,137.9,234,137,233.9,136.3z M231.8,141.2c0,1.6,0.8,3,1.2,4.4
	c0.1,0.4,0.4,0.8,0.8,0.8c0.7-0.1,0.6-0.7,0.6-1.2c0-0.7,0-1.5-0.1-2.2C234.2,141,234.2,141,231.8,141.2z M232.9,116.9
	c-0.1-0.9-0.4-1.3-1.4-1.3c-2.6,0-5.3,0-8.1,0c0,0.6,0,0.9,0.1,1.1c1.2,4.4,1.2,4.4,5.7,4.4C233.4,121,233.4,120.9,232.9,116.9z
	 M232.5,108.4c0-0.9-0.5-1.3-1.4-1.3c-3.4,0-6.8,0-10.4,0c0.2,1.7,0.8,2.9,1.1,4.2c0.3,1,0.9,1.3,1.8,1.3c1.7,0,3.5,0,5.2,0
	C233,112.5,232.7,113.4,232.5,108.4z M232.1,103.3c0-1.3-0.1-2.6-0.2-4c-0.1-0.6-0.6-0.7-1.1-0.7c-4.2,0-8.4,0-13.1,0
	c0.6,1.8,1,3.1,1.4,4.4c0.2,0.6,0.5,1,1.2,1c3.6,0,7.1,0,10.7,0C231.6,104.1,232.1,103.9,232.1,103.3z M231.6,91.6
	c-0.1-1.1-0.5-1.4-1.5-1.4c-3.2,0-6.3,0-9.5,0c-1.7,0-3.5,0-5.2,0c-0.1,1.5,0.6,2.6,0.8,3.8c0.3,1.3,1,1.7,2.3,1.7
	c3.2-0.1,6.3,0,9.5,0C232.4,95.6,231.9,96.3,231.6,91.6z M327.9,124c-6.5,0-12.9,0-19.4,0c-0.5,0-1.1-0.2-1.8,0.5
	c0.7,0.8,1.5,1.6,2.1,2.6c1.2,2,2.9,2.5,5.2,2.4c4.6-0.2,9.3-0.1,13.9,0c4.2,0,3.5,0,2.6-3.4C330,124.1,329.9,124,327.9,124z
	 M330,112.4c3.6,0.5,3.9,0.2,2.7-2.5c-0.8,0.5-1.5,1-2.2,1.5c-0.3,0.2-0.6,0.3-0.9,0.4C329.8,112,329.9,112.2,330,112.4z
	 M341.4,200.3c-4.3,0-3.7-0.5-3.5,3.7c0.1,1.7,0.1,1.7,1.9,1.8c0.2,0,0.5,0,0.7,0c9.6,0,19.1,0,28.7,0c0.7,0,1.5,0.2,2.5-0.3
	c-0.7-1.1-1.5-2-2-3c-0.8-1.8-2.2-2.1-4-2.1C357.7,200.3,349.5,200.2,341.4,200.3z M362.5,193.4c0.1,0.7,0.4,1,1.1,1
	c0.6,0,1.2,0.2,1.8-0.5c-1.5-3.4-2.3-7.1-3.5-10.7c-0.1-0.3-0.2-0.6-0.8-0.8C361.5,186.2,362,189.8,362.5,193.4z M352.3,234.2
	c-0.2,0-0.3,0.1-0.3,0.6c1.4,0.9,2,2.6,3.1,4.6C356.9,233.2,356.6,234.2,352.3,234.2z M354.1,262.9c1.6,1,3.5,1.4,5.3,1.8
	c1.2,0.3,3.1-0.7,3.4-1.5c0.9-2.5,0.1-3.6-2.6-3.6c-0.5,0-1,0-1.5,0C354.9,259.7,355.7,258.8,354.1,262.9z M357.5,227.7
	c0-0.1,0-0.2,0-0.2c0.1-1.6,0.1-1.7-1.5-1.8c-2.9,0-5.8,0-8.7,0c-2.3,0-4.7,0-7,0c-3.9,0-4.5,0.6-4.5,4.5c0,0.8,0.4,1,1.1,1
	c0.6,0,0.9-0.4,1.2-0.7c1.5-1.4,2.1-1.7,3.7-0.6c1.9,1.3,4,1.4,6.2,1.4c1.9,0,3.8,0,5.7,0C357.3,231.1,356.8,231.9,357.5,227.7z
	 M347.3,234.2c-0.5,0-0.8,0.1-0.8,0.7c0,0.3,0.1,0.7,0.5,0.7c0.5,0,0.7-0.5,0.8-0.8C348,234.3,347.7,234.2,347.3,234.2z
	 M356.5,246.7c0,1.1,0.5,1.4,1.5,1.4c2,0,4.1,0,6.1,0c0.1-0.2,0.1-0.5,0.2-0.7c-2.5-1-5-1.8-7.6-2.5
	C356.4,245.6,356.6,246.1,356.5,246.7z M360.1,218.7c0.3,0,0.4-0.5,0.4-0.8c0-0.4-0.3-0.6-0.6-0.6c-0.6,0-1.2-0.1-1.7-0.1
	c-3,0-6,0-9,0c-2.7,0-5.5,0-8.2,0c-3.8,0.1-3.1-0.8-3.7,3.4c0,0.1,0,0.2,0,0.2c-0.1,1.6,0,1.8,1.6,1.8c5.9,0,11.8,0,17.7,0
	c1.2,0,1.9-0.3,1.9-1.6C358.4,220,358.3,218.7,360.1,218.7z M369.7,214.2c3.6,0,3.3,0.4,3.3-3.3c0-2.1,0-2.1-2.3-2.1
	c-5.1,0-10.3,0-15.4,0c-4.6,0-9.1,0-13.7,0c-4.2,0.1-3.5-0.9-3.9,3.9c-0.1,1.2,0.5,1.6,1.6,1.6c0.5,0,1,0,1.5,0
	C350.4,214.2,360.1,214.2,369.7,214.2z M358.4,194.2c0-0.2,0-0.3-0.1-0.5c-0.3-1.9-0.3-1.9-2.1-1.9c-5.2,0-10.4,0-15.6,0
	c-4,0-4,0-3.3,4c0.2,1.2,0.7,1.5,1.8,1.5c3-0.1,6,0,8.9,0c2.6,0,5.1,0,7.7,0C358.8,197.3,358.8,197.3,358.4,194.2z M357.2,185.3
	c-0.4-1.9-0.4-1.9-2.1-1.9c-14.7,0-29.4,0-44.1,0c-0.7,0-1.5,0-2.1,0.4c-2,1.5-4,2.9-6,4.4c0.1,0.2,0.1,0.4,0.2,0.7
	c0.8,0,1.6,0,2.4,0c6.5,0,13,0,19.4,0c2,0,3.9-0.3,5.8-1.1c1.7-0.7,3.3-1.5,5.1-1.8c0.1,0.3,0.3,0.5,0.3,0.8
	c0.4,2.5,0.6,2.1,2.8,2.1c5.1,0,10.3,0,15.4,0C358,188.8,358,188.8,357.2,185.3z M309.3,332.8c3.2,0,3.3-0.1,2.7-3.2
	c0-0.2-0.1-0.3-0.1-0.5c-0.2-1.3-0.9-1.9-2.2-1.8c-0.5,0-1,0-1.5,0c-19.6,0-39.2,0-58.8,0c-1.8,0-3.5,0.2-5.2,0.7
	c-20.7,5.2-41.4,5.3-62.1,0c-1.8-0.5-3.6-0.7-5.4-0.7c-19.9,0-39.9,0-59.8,0c-0.5,0-1,0-1.5,0c-1.9,0.1-2.4,0.6-2.4,2.7
	c0,2.2,0.4,2.8,2.2,2.8c5.3,0.1,10.6,0,15.9,0c0.7,0,1.2-0.1,1.8-0.7c1.7-1.7,2.1-1.8,4-0.6c1.5,1,3.1,1.3,4.9,1.3
	c47.3,0,94.5,0,141.8,0c2.5,0,4.8-0.2,6.5-2.5c2.7,2.4,2.7,2.4,6.1,2.4C300.7,332.8,305,332.8,309.3,332.8z M294.8,335.9
	c1,1.5,1.7,2.5,2.5,3.4c1,1.1,2.6,1.9,3.8,1.2c2.2-1.1,4.3-2.7,6.3-4.7C303.1,335.9,299.3,335.9,294.8,335.9z M203.5,356.5
	c0,1.3,0.4,1.8,1.7,1.7c2.5-0.1,5,0,7.4,0c1.9,0,3.8,0,5.7,0c3.7,0,3.5,0.6,3.4-3.5c0-2-0.1-2-2.2-2c-4.2,0-8.4,0-12.7,0
	C202.6,352.8,203.7,352.3,203.5,356.5z M206.5,366.9c4,0.1,7.9,0,11.9,0c0.6,0,1.2,0,1.5-0.6c0.6-1.1,1.4-2.1,1.8-3.3
	c0.4-1.3-0.1-1.8-1.4-1.9c-2.5,0-5,0-7.4,0c-2.5,0-5,0-7.4,0c-0.1,0-0.2,0-0.2,0c-0.6,0-1.2-0.1-1.5,0.6
	C202.8,363.6,204.5,366.8,206.5,366.9z M241.3,349.8c2.5,0,5,0.1,6.9-2.4c0.6,2.4,2.1,2.5,3.9,2.4c4.1-0.1,8.1,0,12.2,0
	c4.6,0,4.7-0.2,2.8-4.4c-0.3-0.7-0.7-1.1-1.5-1.1c-0.7,0-1.5,0-2.2,0c-33.6,0-67.1,0-100.7,0c-4.5,0-4.5,0-5.6,4.3
	c-0.1,0.2,0,0.5,0,1.2c5.9,0,11.7,0,17.5,0c0.3,0,0.7,0,0.8-0.4c0.4-1.5,1.4-1,2.4-0.7c2.5,0.6,5,1.2,7.6,1.2
	C204.1,349.7,222.7,349.7,241.3,349.8z M173.3,352.7c-5.2,0-10.5,0-15.7,0c-0.4,0-0.8,0-1.2,0.1c-0.5,0-0.7,0.3-0.8,0.8
	c-0.2,0.9,0.8,3.1,1.7,3.4c1.3,0.5,2.7,1.1,4,1.2c3.6,0.2,7.1,0.1,10.7,0.1c0.6,0,1.2-0.1,1.4-0.8c0.4-1.5,1.2-2.9,1.2-4.4
	C174.2,352.7,173.7,352.7,173.3,352.7z M250.6,352.7c0,1.8,0.8,3.2,1.3,4.7c0.2,0.7,0.8,0.8,1.4,0.8c4,0,8,0.1,11.9-0.1
	c2.8-0.1,3.6-1,4-3.4c0.3-1.8,0.2-2-1.6-2c-4.2,0-8.4,0-12.7,0C253.5,352.7,252.1,352.7,250.6,352.7z M276.5,338.6
	c1.4-0.8,2.9-1.3,4.7-2.6c-45.5,0-90.4,0-135.4,0c0,0.2-0.1,0.4-0.1,0.5c2.6,1.2,5.2,2.4,7.8,3.7c1.6,0.8,3.2,1.1,5,1.1
	c35.4,0,70.7-0.1,106.1,0.1C268.9,341.4,272.8,340.6,276.5,338.6z M118.8,335.9c0.9,0.7,1.2,1.1,1.6,1.4c1.1,0.8,2.1,1.6,3.2,2.3
	c0.3,0.2,0.7,0.5,1.1,0.5c1.8,0,4.3-2.1,5-4.2C126.2,335.9,122.8,335.9,118.8,335.9z M101.4,263.2c-0.5,0.5-0.9,1-0.3,1.6
	c0.2,0.2,0.7,0.2,0.9,0C102.4,264.1,101.9,263.7,101.4,263.2z M99.4,268.4c-1.4,1.3-2.3,3.1-3.1,5c3.8,0,7.1,0,10.9,0
	c-0.5-1.7-1.4-2.8-2.1-4c-0.3-0.6-0.6-1.4-1.6-1.4C102.1,268.1,100.4,267.5,99.4,268.4z M101.8,235.1c-0.3-1.3-0.8-1.5-2-1
	c-1.4,0.7-2.4,1.7-3.5,2.8c-0.5,0.4-0.6,1-0.5,1.6c0.1,1.5,0.2,3,0.4,4.5c0,0.4,0.2,0.9,0.7,0.7c1.2-0.5,1.2,0.4,1.3,1.1
	c0.3,2-0.1,4-1.1,5.8c-0.4,0.6-0.9,1.2-0.9,2c0,5.2-0.9,10.4-1.2,15.6c1.2-1.5,1.8-3.2,2.2-4.9c0.7-3.1,1.5-6.3,2.3-9.4
	c1.1-4.5,2.3-9,2.4-13.7C102.1,238.4,102.1,236.8,101.8,235.1z M96.6,223.3c0.3-2.2,0.8-4.4,0.8-6.6c0-0.5,0-1-0.6-1.3
	c-1.2-0.5-3.5,1.4-3.3,2.7c0.4,2.5,0.8,5.1,1.2,7.6c0.2,1,0,2.1,0.7,3.4C96.2,227,96.3,225.1,96.6,223.3z M93.1,280.1
	c-0.2,1.9-0.3,1.9,1.7,1.9c5.5,0,10.9,0,16.4,0c0.5,0,1,0.1,1.4-0.3c0-0.2,0.1-0.4,0-0.5c-0.3-0.5-0.7-0.9-0.9-1.5
	c-1.2-2.6-3.2-3.6-6.1-3.3c-2.8,0.3-5.6,0-8.4,0.1C93.5,276.6,93.7,275.6,93.1,280.1z M124.4,285.8c0.5,0.5,0.8,1.2,1.8,1.5
	c14.1-21.7,28.2-43.4,42.5-65.3c-24.6-9.6-48.8-19.1-73.2-28.7c-0.9,6.5-0.9,12.6-0.7,18.7c0,1,0.5,1.3,1.4,1.2c2-0.3,3.2,1.2,3.1,3
	c0,0.8-0.1,1.7-0.3,2.5c-0.6,3.2-1.2,6.4-1.9,9.5c-0.4,1.5-0.2,2.9,0.5,4.3c0.2,0,0.4,0,0.5,0c4.3-1.1,5.4-0.2,5.3,4.3
	c0,0.5,0,1-0.1,1.5c-0.2,3.3-0.3,6.6-0.6,9.9c-0.1,1.5,0.2,2.9,0.8,4.3C108.6,264.7,115.6,275.8,124.4,285.8z M136.7,196.7
	c-1.7-1.3-3.5-2.5-5.2-3.8c-1-0.8-2.1-1.1-3.4-1.1c-5.3,0-10.6,0-15.9,0c-0.6,0-1.3-0.2-1.8,0.2c0,0.4,0.2,0.5,0.4,0.6
	c3.7,1.5,7.4,2.9,11.1,4.3c0.4,0.1,0.8,0.3,1.2,0.3c4.5,0,8.9,0,13.4,0C136.6,197.1,136.7,196.9,136.7,196.7z M131.9,200.3
	c0,0.2,0,0.4-0.1,0.6c3.9,1.5,7.9,3.1,11.8,4.6c1.5,0.6,3,0.3,4.6-0.1c-2-1.8-4.1-3.3-6.3-4.8c-0.3-0.2-0.6-0.2-0.9-0.3
	C138,200.3,135,200.3,131.9,200.3z M267.7,251.4c0.8,5.1,1.3,5.6,5.6,5c0.1,0,0.1-0.1,0.3-0.3c-0.3-1.1-1.1-2-1.8-3.1
	C270.4,250.8,270.3,250.8,267.7,251.4z M268.3,247.8c-1-1.7-1.9-3.3-3.2-4.7C265.9,247.8,266,248,268.3,247.8z M270.4,259.8
	c0.1,1.6,0.7,2.9,1.2,4.3c0.2,0.5,0.4,0.9,1,0.9c2.2,0,4.3,0.3,6.7-0.3c-1-1.6-1.9-3-2.8-4.3c-0.3-0.5-0.8-0.8-1.4-0.8
	C273.5,259.6,272,259.4,270.4,259.8z M273.2,268c-0.1,1.8,0.8,3.2,1.2,4.7c0.2,0.5,0.6,0.7,1.2,0.7c2.9,0,5.9,0.2,9.3-0.2
	c-1.2-1.8-2.1-3.3-3.1-4.8c-0.3-0.5-0.8-0.5-1.3-0.5C278,268,275.6,268,273.2,268z M316.2,287.6c0-0.8,0.4-1.8-0.3-2.4
	c-0.7-0.7-1.7-0.2-2.6-0.3c-0.6,0-1.2,0-1.7,0c-0.5,0-1,0.1-1.3,0.5c-1.3,1.5-2.5,3-4.2,5c3,0,5.3,0,7.7,0c0.9,0,2,0.4,2.6-0.3
	C317.2,289.5,316.3,288.5,316.2,287.6z M300.6,296.1c-0.1,0.2-0.4,0.2-0.7,0.3c-0.3-0.4-0.7-0.8-0.9-1.2c-0.7-1.5-1.8-1.9-3.4-1.8
	c-2,0.1-4,0-6,0c-2.7,0-5.5,0-8.3,0c0,1.4,0.4,2.2,0.7,3.1c0.8,2.4,0.8,2.4,3.2,2.4c10.4,0,20.9,0,31.3,0c0.7,0,1.5,0.2,2.2-0.2
	c0.1-0.2,0.2-0.3,0.2-0.5c-0.1-0.9-0.2-1.8-0.3-2.7c-0.3-1.9-0.4-2-2.3-2.1c-3,0-6,0.2-9-0.1C304.6,293.2,302.3,293.7,300.6,296.1z
	 M295.6,289.9c-0.9-1.4-1.9-2.9-2.9-4.4c-0.2-0.4-0.6-0.5-1.1-0.5c-4.3,0-8.6,0-12.8,0c-0.3,1.3,0.3,2.3,0.6,3.3
	c0.7,2.2,0.7,2.2,2.9,2.2c3.8,0,7.6,0,11.4,0C294.2,290.4,294.8,290.6,295.6,289.9z M290.5,282c-1.3-2-2.3-3.5-3.2-5
	c-0.2-0.4-0.7-0.5-1.1-0.5c-3.4,0-6.8,0-10.2,0c0,1.7,0.7,2.9,1,4.2c0.2,1,0.9,1.2,1.8,1.2c2.4,0,4.8,0,7.2,0
	C287.3,282,288.6,282,290.5,282z M270.4,293.8c-0.4-0.3-0.9-0.3-1.4-0.4c-5,0-9.9,0-14.9,0c-0.1,0.2-0.2,0.4-0.4,0.5
	c1,1.2,2,2.4,2.9,3.6c0.8,1.1,1.7,1.4,3,1.4c5.1-0.1,10.3,0,15.4,0c0.5,0,1.2,0.3,1.5-0.5C274.6,296.7,272.5,295.3,270.4,293.8z
	 M264.9,289.8c-1.9-1.4-3.9-2.9-5.9-4.3c-0.5-0.4-1-0.5-1.6-0.5c-3.4,0-6.8,0-10.2,0c-0.1,0.2-0.2,0.3-0.3,0.5c1,1.3,2.1,2.5,3,3.8
	c0.7,0.9,1.5,1.2,2.6,1.2c3.7-0.1,7.4,0,11.2,0C264.1,290.4,264.7,290.7,264.9,289.8z M253.6,281.8c-4-3.6-7.8-6.7-13.7-4.9
	c1.3,1.6,2.5,3.1,3.8,4.6c0.2,0.2,0.6,0.4,0.8,0.4C247.4,281.9,250.3,282.1,253.6,281.8z M241.9,273.1c-1.6-1.2-2.8-2.2-4.2-3
	c-1.4-0.9-2.4-2.6-4.7-1.8C235.2,271.2,236.7,274.8,241.9,273.1z M226.9,270.8c-4-4.9-7.9-9.8-11.9-14.7c-1.1-1.3-1.1-1.3-2.2,0
	c-0.2,0.2-0.4,0.5-0.6,0.8c-15.3,18.7-30.6,37.4-45.8,56.1c-0.6,0.7-1.3,1.3-1.6,2.4c16.1,7.3,33.1,10.7,50.8,10.3
	c16.4-0.3,32-3.8,46.9-10.7c-0.2-1.1-0.9-1.7-1.4-2.3C249.6,298.7,238.3,284.8,226.9,270.8z M257.2,324.1c4.3,0.5,49.3,0.3,51.2-0.2
	c-0.5-1.3-2-2.3-2.2-3.5c-0.2-1.5-0.8-1.6-2-1.6c-11.3,0-22.6,0-33.9,0c-0.7,0-1.5,0-2.2,0.3C264.6,320.7,261.2,322.3,257.2,324.1z
	 M159.2,319.6c-1.2-0.5-2.3-0.8-3.6-0.8c-4.2,0-8.5,0-12.7,0c-7,0-14,0-20.9,0c-0.7,0-1.7-0.3-2.1,0.3c-1.1,1.6-2.5,3-3.1,5
	c17.4,0,34.5,0,51.7,0c0-0.1,0.1-0.3,0.1-0.4C165.4,322.4,162.3,321.1,159.2,319.6z M194.5,268.3c-0.7-0.4-1.3-0.4-1.8-0.1
	c-2.2,1.5-4.4,3.1-6.5,4.7c0.1,0.2,0.2,0.4,0.3,0.6c1.4,0,3.1,0.6,4.3-0.4C192.2,271.7,193.5,270.2,194.5,268.3z M181.2,276.8
	c-2.5,1-4.6,3-6.8,4.6c0.1,0.2,0.1,0.4,0.2,0.6c2.8,0,5.5,0,8.3,0c0.4,0,0.8-0.2,1.1-0.5c1.2-1.5,2.5-2.8,3.7-4.8
	C185.3,276.6,183,276,181.2,276.8z M164.6,288.5c-0.6,0.5-1.4,0.8-1.7,1.9c4.5,0,8.8,0,13.1,0c0.4,0,0.8-0.1,1.1-0.5
	c1.2-1.5,2.5-3,4.1-5c-2.3,0-4,0.2-5.7,0C171.2,284.3,167.6,285.6,164.6,288.5z M158.7,293.4c-0.5,0-1,0.1-1.4,0.4
	c-2,1.5-4.2,2.9-5.9,5c5.8,0,11.6,0,17.3,0c0.5,0,1,0,1.4-0.4c1.3-1.6,2.8-2.9,3.7-5.1C168.6,293.4,163.6,293.4,158.7,293.4z
	 M152,277.1c0-0.1,0-0.2-0.2-0.6c-3.4,0-6.8,0-10.2,0c-0.4,0-0.9,0-1.2,0.3c-1.1,1.6-2.4,3-3.1,5.2c3,0,5.8,0,8.5,0
	C150.8,282,150.8,282,152,277.1z M154.7,268.2c-2.6-0.3-5.2-0.1-7.7-0.1c-0.4,0-0.9,0.1-1.1,0.4c-1,1.5-2.3,2.9-2.9,5
	c3.2,0,6.1,0,9.1,0c0.6,0,1.2-0.1,1.4-0.8C153.9,271.3,154.7,269.9,154.7,268.2z M157.5,260.2c0-0.1,0-0.2-0.2-0.6
	c-1.6,0-3.1,0-4.7,0c-0.4,0-0.9,0-1.1,0.3c-1.1,1.5-2.4,3.1-3.2,5.1c1.3,0,2.2,0,3.1,0C156.4,265,156.4,265,157.5,260.2z
	 M157.8,256.5c0.7,0,1.1-0.3,1.3-0.9c0.4-1.4,1.1-2.7,1.2-4.4c-1.2-0.1-2.6-0.7-3.5,0.5c-1.1,1.4-2.2,2.8-2.8,4.7
	C155.4,256.7,156.6,256.5,157.8,256.5z M161.7,247.3c0.5-1.4,1.2-2.8,1.4-4.9c-1.7,1.8-2.8,3.4-3.5,5.4
	C161.3,248,161.4,248.1,161.7,247.3z M132,290.4c5,0,9.8,0,14.5,0c0.6,0,1.2-0.1,1.4-0.7c0.5-1.5,1.3-2.9,1.2-4.7
	c-4.4,0-8.8,0-13.1,0c-0.4,0-0.9,0.1-1.1,0.4C133.9,287,132.5,288.3,132,290.4z M144.7,302.9c-0.2,0.2-0.8,0.7-0.9,0
	c-0.2-1.5-1.4-1-2.1-1c-12.4,0-24.8,0-37.1,0c-0.5,0-1.2-0.3-1.6,0.5c0.7,1.2,1.8,2.1,2.6,3.2c1,1.4,2.3,1.8,4.1,1.8
	c12.7-0.1,25.4,0,38.1,0c4.4,0,8.8,0,13.2,0c0.8,0,1.7,0.2,2.3-0.5c1.2-1.5,2.4-2.9,3.7-4.6c-1.2-0.4-1.9-0.3-2.7-0.3
	c-5.3,0-10.6,0-16,0C147.1,301.9,145.8,301.9,144.7,302.9z M110.5,310.5c1.6,1.7,2.9,2.9,4.2,4.2c0.8,0.8,1.7,1.1,2.9,1.1
	c12.3,0,24.5,0,36.8,0c0.6,0,1.2,0.2,1.7-0.3c1.4-1.5,2.9-3.1,4-5.1C143.4,310.5,127.2,310.5,110.5,310.5z M315.7,310.5
	c-16.2,0-32.1,0-48.4,0c1.2,1.6,2.3,2.8,3.2,4.1c0.7,0.9,1.4,1.2,2.5,1.2c12,0,23.9,0,35.9,0c0.6,0,1.2,0.1,1.7-0.3
	C312.4,314.1,314.1,312.7,315.7,310.5z M317.1,307.4c1.5,0,2.6-0.4,3.4-1.5c0.4-0.5,0.9-1,1.3-1.5c1.1-1.2,0.8-2-0.8-2.4
	c-0.5-0.1-1-0.1-1.5-0.1c-1.7,0-3.3,0-5,0c-9.4,0-18.8,0-28.2,0c-0.7,0-2-0.3-2.1,0.2c-0.6,2.1-1.5,0.6-2.2,0.2
	c-0.7-0.4-1.4-0.4-2.2-0.4c-2.3,0-4.7,0-7,0c-4.1,0-8.1,0-12.2,0c-0.1,0.2-0.2,0.4-0.3,0.5c0.9,1.1,1.9,2.2,2.8,3.4
	c0.8,1.1,1.8,1.5,3.1,1.5C283.4,307.4,300.2,307.4,317.1,307.4z M327.5,277.1c-0.1-0.2-0.1-0.4-0.2-0.6c-3,0-6.1,0-9.1,0
	c-0.5,0-1.1-0.1-1.4,0.3c-1.1,1.6-2.5,3-3.2,4.9C319.2,282.8,323.8,281.2,327.5,277.1z M327.8,273.5c0.6,0,1.2-0.1,1.2-0.9
	c0-1.2-0.1-2.5-0.2-3.7c-0.1-0.7-0.7-0.8-1.3-0.9c-5-0.5-5.5-0.3-7.9,4.1c-0.2,0.3-0.3,0.6-0.6,1.3
	C322.3,273.5,325,273.5,327.8,273.5z M328.6,263.9c-0.1-1.1-0.3-2.3-0.5-3.4c-0.1-0.4-0.3-0.8-0.8-0.8c-0.4,0-0.9,0-1.1,0.4
	c-0.7,1.5-1.7,3-2.2,4.7c1.3,0.4,2.4,0.2,3.5,0.2C328.4,265,328.6,264.5,328.6,263.9z M331,194.2c-24.1,9.3-47.8,18.5-71.9,27.8
	c14,21.7,27.9,43.2,41.9,64.9c11.1-12.3,19.2-25.9,24.4-41.3C331,229,332.9,212,331,194.2z M274.8,209.1c0,0,0-0.1,0.1-0.2
	c-0.1,0-0.1-0.1-0.2-0.1c0,0,0,0.1-0.1,0.2C274.6,209.1,274.7,209.1,274.8,209.1z M281.3,203.8c-0.5,0.5-1.5,0.7-1.6,1.8
	c2.4,0.3,4.5,0.2,6.7-0.8c2.9-1.2,5.9-2.3,8.8-3.4c0.5-0.2,1.1-0.2,1.5-1.1c-1.6,0-3.1,0.2-4.5,0
	C287.8,199.6,284.3,200.9,281.3,203.8z M305.3,197.3c0.2,0,0.5,0,0.7-0.1c4.2-1.6,8.3-3.2,12.5-4.8c0-0.2-0.1-0.4-0.1-0.6
	c-4.8,0-9.6,0.3-14.4-0.1c-4.4-0.3-8.1,0.7-11.3,3.8c-0.5,0.5-1.4,0.6-1.4,1.7C296,197.3,300.6,197.3,305.3,197.3z M355.8,177.2
	c-0.5-2.3-0.5-2.3-2.7-2.3c-10.1,0-20.3,0-30.4,0c-0.7,0-1.4-0.1-1.9,0.3c-2.1,1.5-4.3,2.9-6.3,4.7c0.1,0.2,0.1,0.3,0.2,0.5
	c0.7,0,1.5,0,2.2,0c12.1,0,24.3,0,36.4,0C356.5,180.3,356.5,180.3,355.8,177.2z M355.4,168.9c-0.8-2-2-2.6-4.1-2.6
	c-24.5,0.1-49,0.1-73.5,0c-4.6,0-8.8,1.9-13.2,2.8c0,0.2,0,0.5,0.1,0.7c20.8,0,41.6,0,62.4,0c0.3,1-1.1,0.9-0.7,1.7
	c0.4,0.4,0.9,0.2,1.4,0.2c8.3,0,16.6,0,24.9,0c0.4,0,0.8,0,1.2,0C356,171.5,356.2,170.9,355.4,168.9z M352.1,163.2
	c-0.6-1.6-1.8-2.4-2.6-3.5c-1.1-1.4-2.5-1.9-4.3-1.9c-11.9,0.1-23.7,0-35.6,0c-1.4,0-2.8,0.1-4.2,0.5c-5,1.3-9.9,2.6-14.9,4
	c-0.5,0.1-1.2,0.1-1.6,0.8C310,163.2,330.9,163.2,352.1,163.2z M343.9,154.7c-1.7-2.1-3.5-3.5-5.2-5c-0.5-0.4-1.1-0.3-1.7-0.3
	c-3.9,0-7.8,0-11.7,0c-0.4,0-0.8-0.1-1.1,0.4c0,1.1,1,1.8,1.1,3c-1.4,1-3.2,0.6-4.4,1.8C328.6,154.7,336.1,154.7,343.9,154.7z
	 M334.2,145.9c-0.8-0.8-1.8-1.6-2.3-2.6c-1.2-2.2-2.9-2.7-5.1-2.4c-1,0.1-2,0-3,0c-1.5,0-2.9,0-4.8,0c1.1,1.9,1.9,3.3,2.7,4.7
	c0.3,0.6,0.8,0.8,1.4,0.8c3.6,0,7.3,0,10.9,0C334.1,146.3,334.2,146.1,334.2,145.9z M332.6,132.8c-6.3-0.3-12.6-0.3-19.5-0.3
	c1.3,1.9,2.3,3.2,3.2,4.6c0.5,0.7,1.1,0.9,1.9,0.9c3.3,0,6.6,0,9.9,0c0.5,0,1.2,0.1,1.3-0.4C330,135.6,331.5,134.4,332.6,132.8z
	 M329.4,115.8c-2.3-0.4-28.9-0.4-31.2,0.1c1.3,1.3,2.5,2.3,3.5,3.6c1,1.2,2.1,1.6,3.7,1.6c6.9-0.1,13.7,0,20.6,0c2.9,0,2.9,0,3.1-3
	C329.3,117.3,329.7,116.6,329.4,115.8z M323.4,112.1c-0.8-1.4-2.1-2.5-3.1-3.8c-0.8-1-1.8-1.3-3-1.3c-6.3,0.1-12.6,0-18.9,0
	c-3.2,0-6.5,0-9.6,0c-0.5,0.8,0.1,1,0.5,1.3c1.2,1,2.5,1.9,3.7,3c1.1,1,2.2,1.3,3.6,1.3c8.3,0,16.6,0,24.9,0
	C322,112.5,322.7,112.8,323.4,112.1z M315.6,103.6c-1.2-1.2-2.4-2.3-3.5-3.5c-1.1-1.2-2.4-1.6-4-1.6c-10.1,0.1-20.1,0-30.2,0
	c-0.7,0-1.5,0-2.2,0c-0.1,0.2-0.1,0.4-0.2,0.6c1.9,1.2,3.9,2.4,5.8,3.7c1.3,0.9,2.6,1.3,4.2,1.3c9.2-0.1,18.4,0,27.7,0
	C313.9,104.1,314.6,104.3,315.6,103.6z M309.9,90.3c-17.7,0-35,0-52.3,0c3.1,1.7,6.3,3,9.4,4.5c1.2,0.5,2.3,0.8,3.6,0.8
	c4.6,0,9.1,0,13.7,0c6.7,0,13.5,0,20.2,0c0.8,0,1.7,0.2,2.3-0.6C307.7,93.5,308.7,92.1,309.9,90.3z M246.7,93.6
	c-2.8-0.8-5.6-1.7-8.7-2.1c0,1.8-0.1,3.4,0,5c0.6,10.8,1.2,21.5,1.8,32.3c0.6,11.2,1.1,22.4,1.7,33.6c0.1,1.7,0.2,3.5,0.3,5.2
	c0,0.7,0.4,1.1,1.1,0.9c0.4-0.1,0.8-0.2,1.2-0.3c23.4-6.2,46.7-12.3,70-18.5c2.4-0.6,2.4-0.6,1.2-2.7c-0.2-0.4-0.4-0.7-0.6-1.1
	C298.6,120,275.9,102.5,246.7,93.6z M163.6,169.8c0.1,0,0.1-0.1,0.2-0.1c0.1-0.3-0.3-0.1,0.2-0.3c-2.3-0.6-4.4-1.2-6.4-1.8
	c-2.9-0.9-5.8-1.2-8.8-1.2c-23.7,0.1-47.4,0-71,0c-0.7,0-1.3,0-2,0c-0.6,0-1.1,0.2-1.4,0.8c-0.6,1.4-1.6,2.7-2,4.5
	c10,0,19.7,0,29.3,0c0.2-0.9-1.1-0.9-0.8-1.7c0.1-0.1,0.2-0.1,0.2-0.1C121.9,169.9,142.7,169.8,163.6,169.8z M108.5,176.1
	c-1.2-0.9-2.4-1.3-3.9-1.3c-9.7,0-19.4,0-29.1,0c-5,0-5,0-5.3,5c0,0.1,0.1,0.2,0.1,0.2c2.6,0.5,41.3,0.4,43.4-0.2
	C111.8,178.5,110.1,177.4,108.5,176.1z M96.3,115.6c-2.3,0-3.6,1.1-4.1,3.4c-0.4,1.9-0.3,2.1,1.5,2.1c9.3,0,18.6,0,27.9,0
	c0.8,0,1.5,0,2.1-0.6c1.5-1.4,3-2.8,4.6-4.4c-1-0.7-1.6-0.5-2.1-0.5C116.2,115.6,106.2,115.6,96.3,115.6z M97.7,112.5
	c0.1-0.2,0.7,0.2,0.6-0.4c-0.1-0.5-0.4-0.7-0.8-0.7c-0.4-0.1-0.6,0.1-0.6,0.5C96.7,112.5,97.1,112.5,97.7,112.5z M103.8,112.5
	c9,0,18.1,0,27.1,0c0.5,0,1,0.1,1.4-0.3c2-1.6,4-3,6.1-5.1c-1-0.1-1.5-0.1-2.1-0.1c-9,0-18.1,0-27.1,0c-1,0-2-0.1-2.8,0.8
	c-1.2,1.4-2.4,2.7-3.9,4.3C103.3,112.4,103.5,112.5,103.8,112.5z M90.5,126.8c-0.1,0.3-0.2,0.6-0.2,1c-0.2,1.5,0,1.8,1.6,1.8
	c7.6,0,15.1,0,22.7,0c0.6,0,1.2,0,1.6-0.5c1.3-1.5,2.5-3,3.9-4.7c-1.1-0.4-1.9-0.3-2.7-0.3c-7.8,0-15.6,0-23.4,0
	C90.7,124,91.3,123.9,90.5,126.8z M88.4,133.4c-0.4,1.4-1.2,2.7-1.4,4.2c0.4,0.1,0.6,0.3,0.8,0.3c6.8,0,13.6,0,20.4,0
	c0.5,0,1.1,0,1.4-0.4c1.1-1.6,2.5-2.9,3.3-5.1c-2.8,0-5.4,0-8,0c-4.8,0-9.6,0-14.4,0C89.7,132.5,88.8,132.4,88.4,133.4z M85.2,141.8
	c-0.6,1.4-1.4,2.8-1.7,4.2c0.2,0.2,0.3,0.3,0.3,0.3c6.5,0.3,12.9,0.1,19.4,0.1c0.5,0,1-0.1,1.3-0.6c0.9-1.5,1.7-3,2.7-4.5
	c-0.9-0.4-1.5-0.3-2.2-0.3c-2.9,0-5.8,0-8.7,0c-3.1,0-6.1,0-9.2,0C86.4,141,85.6,140.8,85.2,141.8z M80,154.2c0,0.1,0,0.2,0.1,0.5
	c9.3,0,18.6,0,28.2,0c-1.1-1-2.3-0.9-3.3-1.3c-1.3-0.4-2.8-1.4-2.8-2.5c0-1.9-0.9-1.5-1.9-1.5c-4.6,0-9.3,0-13.9,0
	C81.4,149.4,81.4,149.4,80,154.2z M79.4,157.9c-0.7,0-1.1,0.2-1.3,0.9c-0.5,1.4-1.4,2.8-1.6,4.5c21.2,0,42.3,0,63.4,0
	c-0.4-0.8-1.1-0.8-1.7-0.9c-4.8-1.3-9.6-2.6-14.4-3.9c-1.5-0.4-2.9-0.6-4.4-0.6c-12.7,0-25.4,0-38.1,0
	C80.6,157.9,80,157.9,79.4,157.9z M189.9,91c-16,3.2-30.6,9.5-44,18.7c-14.7,10.2-26.5,23-35.6,38.4c0.8,0.8,1.7,0.8,2.4,1
	c14.1,3.8,28.2,7.6,42.3,11.4c9.6,2.6,19.2,5.2,28.9,7.7c1.9,0.5,2,0.4,2.1-1.4c0.7-12.2,1.3-24.4,2-36.5
	c0.6-10.9,1.2-21.7,1.8-32.6C190,95.6,190.3,93.4,189.9,91z M168.6,90.7c0-0.2-0.1-0.3-0.1-0.5c-2.4,0-4.8,0-7.2,0
	c-2.4,0-4.8,0-7.2,0c-2.4,0-4.8,0-7.2,0c-2.5,0-5,0-7.5,0c-2.4,0-4.8,0-7.2,0c-2.4,0-4.8,0-7.2,0c-2.3,0.1-4.7-0.3-7.1,0.2
	c0.4,1.4,1.8,2.1,1.8,3.4c0,1.7,0.8,1.8,2.2,1.8c11.5,0,22.9,0,34.4,0c0.6,0,1.2,0,1.7-0.2C161.5,93.9,165.1,92.3,168.6,90.7z
	 M117.1,98.6c-0.6,0-1.2,0-1.6,0.5c-1.6,1.5-3.3,2.8-5,5c1.4,0,2.2,0,3,0c7.6,0,15.3-0.2,22.9,0.1c4.5,0.1,8.6-0.4,12-3.4
	c0.4-0.3,0.9-0.5,1.3-0.8c0.4-0.3,1.2-0.4,1-1.2c-0.1,0-0.2-0.1-0.2-0.1C139.4,98.7,128.2,98.7,117.1,98.6z M114,92.4
	c-1.3-1.9-3-3.6-3.9-6c-0.4,0.5-0.6,0.7-0.8,1c-3.6,6.1-6.5,12.4-9.7,18.7c-0.3,0.6-0.6,1.2,0.1,1.7c0.9,0.7,1.3-0.1,1.8-0.6
	c3.8-4.2,7.9-8.2,12.2-12C115.1,94,115,93.9,114,92.4z M64.4,184.9c-1.7,2.7-3.4,5.3-5.5,8.5c1.6,0,2.8,0,3.9,0c0.5,0,1-0.1,1.1-0.8
	c0.3-2.5,0.6-5.1,1-7.6C64.7,185,64.6,185,64.4,184.9z M89.2,193.9c0.2-2.1,0.2-2.1-1.9-2.1c-5.2,0-10.5,0-15.7,0
	c-3.7,0-3.8,0.1-3.8,3.9c0,1.2,0.4,1.6,1.6,1.6c3,0,6,0,9,0c0,0,0,0,0,0c2.3,0,4.6,0,7,0C88.8,197.3,88.8,197.3,89.2,193.9z
	 M90.6,186.6c0.4-1.3,1.2-1.4,2.3-0.9c1.9,0.8,3.9,1.4,5.8,2.2c1.6,0.6,3.1,0.9,4.8,0.9c4-0.1,8,0,12,0c3.1,0,6.1,0,9.2,0
	c0.1-0.2,0.2-0.4,0.3-0.6c-1.7-1.3-3.5-2.5-5.1-3.8c-1-0.8-2.1-1.1-3.4-1.1c-14.9,0-29.9,0-44.8,0c-2.2,0-2.2,0-2.6,2.3
	c0,0.2-0.1,0.5-0.1,0.7c-0.3,2.4-0.3,2.4,2,2.4c5.4,0,10.8-0.1,16.2,0.1C88.9,188.9,90.1,188.5,90.6,186.6z M91.6,288.4
	c-0.4,2-0.4,2,1.7,2c8.3,0,16.6,0,24.9,0c0.4,0,0.8,0.1,1.5-0.5c-0.9-1.1-1.9-2.2-2.7-3.3c-0.9-1.3-2-1.8-3.5-1.7
	c-5.9,0.1-11.8,0-17.7,0C92.3,285,92.3,285,91.6,288.4z M89.1,298.4c0,0.1,0.1,0.2,0.1,0.3c0.7,0.3,1.6,0.2,2.4,0.2
	c16.9,0,33.9,0,50.8,0c0.6,0,1.2,0,1.7,0c0.6,0,0.9-0.3,1.1-0.8c0.4-1.5,1.2-2.8,1.2-4.6c-4.2,0-8.3,0.2-12.3-0.1
	c-3.1-0.2-5.5,0.3-6.8,3.5c-0.1,0.1-0.2,0.2-0.4,0.3c-0.9-0.4-1.6-1.2-2.2-2c-1.1-1.4-2.5-1.8-4.3-1.8c-8.6,0.1-17.1,0-25.7,0
	C90,293.4,89.8,293.6,89.1,298.4z M87.8,303.1c-0.1,0.6-0.3,1.1-0.4,1.7c-0.2,1.3,0.2,1.5,1.5,1.6c3.3,0.1,5.4-2,7.7-3.8
	c0-0.2-0.1-0.4-0.1-0.6c-2.4,0-4.9,0-7.3,0C88.3,301.9,87.9,302.3,87.8,303.1z M364,285.4c-0.5-5.7-1.5-11.2-1.5-17.1
	c-2.5,1.5-4.5,0.2-6.6-0.3c-0.4-0.1-0.8-0.3-1.2-0.4c-2.5-0.8-2.6-0.7-3.1,1.8c-0.1,0.3,0,0.6,0,1.3c0.6-0.1,1-0.1,1.4-0.2
	c3.4-0.6,5,0.5,5.6,3.9c0.3,1.6,0.3,3.3,0.2,5c-0.1,1.1-0.2,2.1-0.2,3.2c0,0.5-0.1,1.2,0.5,1.2C360.8,284,362.2,285.1,364,285.4z
	 M364.5,251.2c-0.5,0-0.8-0.1-1.2-0.1c-1.7,0-3.3,0-5,0c-1.7,0-1.7,0.1-1.9,1.8c-0.4,3.7-0.4,3.7,3.3,3.7c3.1,0,3.1,0,4-2.8
	C364,253,364.5,252.3,364.5,251.2z M318.1,92.9c-0.7,1.2-0.6,2,0.6,2.7c1,0.6,2.1,0.9,3.3,1.2c0.8,0.2,1.8,0.5,1.9,1.4
	c0.2,1.8,1.5,2,2.9,2c1.7,0.1,3.4-0.1,5,0.2c1.8,0.4,3.2,0.2,4.6-1.5c-1.2-1-2.3-1.8-3.4-2.7c-0.3-0.3-0.7-0.6-1.1-0.5
	c-3.4,0.9-5.7-1.2-8-3c-1.1-0.8-2-1.9-3.1-3C320.1,91.1,318.8,91.7,318.1,92.9z M318.1,87.3c-0.7-0.5-1,0.3-1.3,0.7
	c-1.3,1.8-2.6,3.6-4,5.4c-0.6,0.8-0.6,1.4,0.2,2.1c4.4,4,8.7,8.2,12.6,12.7c0.7,0.8,1.2,0.9,2.1,0.3c1.4-1.1,2.9-2.2,4.4-3.2
	c0.7-0.5,0.9-1.1,1-1.9c0.3-0.9-0.2-1.4-1-1.5c-1.1-0.1-2.1-0.2-3.2-0.2c-1.2,0-2.5-0.1-3.7-0.4c-1-0.3-1.9-0.7-2.1-1.8
	c-0.2-1-0.9-1.3-1.7-1.5c-1-0.3-2.1-0.6-3-1.1c-2-1-2.5-2.6-1.4-4.5c0.3-0.6,0.8-1.1,1.2-1.6c0.4-0.4,0.7-0.9,0.9-1.5
	C319.3,88.3,318.7,87.7,318.1,87.3z M311,77.6c1.2,0.5,2.6,0.7,3.9,0.6c2.3-0.1,3.6-2.5,2.5-4.5c-1-1.8-2.1-3.6-3.5-5.2
	c-0.8-1-1.3-2.1-1.6-3.2c-0.1,1.8-0.9,3.6-2.4,4.9C306.7,73.1,307.1,75.9,311,77.6z M296.4,78.6c2.7,0.2,5.3,0.2,8.5,0
	c-1.2-1.4-2-2.4-2.5-3.6c-0.2-0.4-0.5-0.7-1-0.6C299.3,75.2,297.1,75.8,296.4,78.6z M253.6,61.7c2.5,0,5,0,7.4,0c0,0,0,0,0,0
	c2.7,0,5.5,0,8.2,0c1.5,0,1.7-0.4,1.4-1.8c-0.3-1.5-1-2.5-2.6-2.9c-1.6-0.4-3.2-0.8-4.9-0.7c-2.1,0.1-4.3,0-6.4,0
	c-4.1,0.1-3.2-0.8-4.6,3.5C251.5,61.6,251.6,61.7,253.6,61.7z M206.2,53.3c2.4-0.1,4.8,0,7.2,0c2.6,0,5.1,0,7.7,0
	c0.6,0,1.2,0.1,1.5-0.5c1-1.8-0.9-5.2-3-5.3c-3.9-0.1-7.8,0-11.7,0c-0.8,0-1.4,0.2-1.8,1c-0.4,0.9-1.1,1.7-1.4,2.6
	C204.1,52.7,204.7,53.3,206.2,53.3z M204.5,60.3c0.1,1.1,0.5,1.5,1.5,1.4c2.6,0,5.1,0,7.7,0c0,0,0,0,0,0c1.9,0,3.8,0,5.7,0
	c4.2,0,3.3,0.2,3.3-3.5c0-1.9-0.1-2-1.9-2c-4.2,0-8.5,0-12.7,0C204.2,56.3,204.2,56.3,204.5,60.3z M175,64.8c-4.4,0-8.8,0-13.2,0
	c-4.2,0-4.2-0.8-2.8,3.9c0.4,1.2,1,1.6,2.2,1.5c0.4,0,0.8,0,1.2,0c34.1,0,68.3,0,102.4,0c0.7,0,1.3,0,2,0c0.7,0,1.1-0.3,1.3-0.9
	c0.4-1.4,1.2-2.7,1.2-4.3c-0.4-0.1-0.7-0.2-1-0.2c-5.4,0-10.8,0-16.2,0c-0.5,0-1.2,0-1.4,0.2c-1.1,1.2-2.4,0.7-3.7,0.5
	c-1.5-0.3-2.9-0.7-4.4-0.7c-19.6,0-39.2,0-58.8,0c-1.4,0-2.9,0.1-4.1,0.8c-1.1,0.7-1.8,0.9-2.6-0.4C176.6,64.4,175.7,64.8,175,64.8z
	 M158.4,61.7c2.6,0,5.1,0,7.7,0c2.6,0,5.1,0,7.7,0c2,0,2.1-0.1,1.6-1.9c-0.2-0.6-0.5-1.2-0.6-1.9c-0.2-1.4-1.1-1.6-2.3-1.6
	c-3.5,0.1-7,0-10.4,0c-0.7,0-1.3,0.2-2,0.3c-2.1,0.3-2.9,1.6-3,3.5C156.9,61.6,156.9,61.7,158.4,61.7z M145.5,78.5
	c45.2,0,90.1,0,135,0c-0.2-0.7-0.7-0.8-1.1-1c-2.1-1-4.2-2-6.2-3.1c-1.7-0.9-3.5-1.2-5.5-1.2c-34.9,0-69.7,0-104.6,0
	c-7.9,0-7.9,0-14.9,3.6C147.3,77.2,146.4,77.5,145.5,78.5z M131.2,81.6c-5,0.1-10,0-15,0c-2.2,0-2.2,0-2.1,2.2c0,0.4,0,0.8,0.1,1.2
	c0.3,1.6,0.7,1.9,2.3,2c0.6,0,1.2,0,1.7,0c19.5,0,39.1,0,58.6,0c1.8,0,3.5-0.2,5.2-0.7c4.2-1.1,8.4-1.9,12.7-2.6
	c1.9-0.3,2-0.3,1.9,1.7c0,1.2,0.3,1.7,1.5,1.6c0.4,0,0.8,0,1.2,0c9.7,0,19.4,0,29.2,0c2.6,0,2.6,0,2.8-2.7c0-0.1,0.2-0.3,0.3-0.5
	c4.3,0.6,8.6,1.5,12.8,2.6c1.5,0.4,2.9,0.6,4.4,0.6c20.3,0,40.5,0,60.8,0c0.6,0,1.2,0,1.7,0c1-0.1,1.6-0.7,1.7-1.5
	c0.2-1,0.3-2.1-0.3-3.1c-0.1-0.2-0.4-0.3-0.7-0.3c-1.8,0.1-3.6-0.6-5.4-0.5c-3.4,0.1-6.8,0-10.2,0c-3.2,0-3.2,0-3.5,3.3
	c-1.2-0.2-2.1-0.8-2.8-1.4c-2-1.6-4.3-1.9-6.8-1.9c-46.9,0-93.9,0-140.8,0c-0.7,0-1.5,0-2.2,0c-1.6-0.1-2.7,0.5-3.4,2
	c-0.1,0.3-0.3,0.8-0.9,0.8c-0.3-0.3-0.6-0.5-0.8-0.9C134.5,82,133,81.6,131.2,81.6z M123.9,74.7c-1.2,0.9-2.4,1.7-3.6,2.6
	c-0.4,0.3-1.1,0.4-0.9,1.3c3.8,0,7.7,0,11.8,0c-0.5-1.5-1.3-2.3-2-3.2C127.8,73.5,125.8,73.3,123.9,74.7z M177,15.6
	c-1.9,0.7-3.9,1.4-5.8,2.2c-14.9,6.3-28.6,14.8-41.7,24.1c-2.8,2-5.4,4.4-8,6.8c-0.8,0.8-1.3,1.5-0.9,2.8c0.5,2,0.6,4.1,0.6,6.2
	c0.1,3.1-0.5,6.1-0.9,9.3c1.4-0.3,2.1-0.9,3-1.4c22.9-14,45-29.2,67.2-44.3c0.4-0.3,0.8-0.6,1.2-0.9c0.9-0.8,2.1-1.4,1.9-2.7
	c-0.2-1.5-1.7-1.7-2.8-2.1C186.1,14.3,181.5,13.9,177,15.6z M125.6,40.4L125.6,40.4L125.6,40.4L125.6,40.4z M97.9,62.2
	c-2.5,2.8-5,5.6-7.1,8.7c-3.6,5.4-7.4,10.6-11.2,15.9c-1.6,2.2-2.9,4.7-3.9,7.3c0.5-0.3,0.9-0.6,1.1-1c3-4.2,6-8.4,8.9-12.6
	C91.3,71.9,97.8,64,105,56.8c0.4-0.4,0.8-1,1.4-1.2c0,0,0,0,0,0c0,0,0.1-0.1,0.1-0.1c0,0,0,0,0,0c0,0,0,0,0,0c0,0,0,0-0.1,0
	c0,0,0,0,0-0.1c0,0,0,0,0,0c0,0,0,0-0.1,0c-0.3-0.4-0.3-0.7,0-1.1c0.5-0.6,1.1-1.3,1.6-1.9c7.9-8.6,16.4-16.5,25.4-23.8
	c9.1-7.4,18.3-14.6,29-19.6c0.1-0.1,0.2-0.2,0.3-0.3c0.3,0.6,0,0.9-0.4,1.2c-0.9,0.7-1.9,1.4-2.8,2.1c-10.3,8.6-20.7,17.2-31,25.7
	c-0.4,0.3-0.8,0.5-0.8,1.1c0,0,0,0,0,0c0,0,0,0,0,0c-0.6-0.1-1,0.7-1.6,0.6c0,0,0,0-0.1,0c0,0,0,0,0,0c0,0,0,0,0,0c0,0,0,0,0,0
	c0,0,0,0,0,0c-0.1,0.2-0.2,0.5-0.3,0.7c0,0-0.1,0.1-0.1,0.1c0,0,0.1,0.1,0.1,0.1c0-0.1,0.1-0.1,0.1-0.2c0.2-0.2,0.3-0.5,0.3-0.7
	c0.2,0.1,0.3,0.1,0.2,0.1c0,0-0.1,0-0.2-0.1c0,0,0,0,0,0c0.7,0.3,1.2,0.1,1.6-0.6c0,0,0,0,0.1,0c0,0,0,0,0,0l0,0c0,0,0,0,0,0
	c1,0,1.6-0.7,2.4-1.1c13.4-8,27.3-15.2,41.5-21.6c3-1.4,6.1-2.6,9.4-3.2c2.5-0.4,4.1-2.2,4-4.3c-0.1-2.4-2-4.4-4.4-4.6
	c-1.4-0.1-2.8,0-4.2,0.2c-5.5,0.6-10.9,2-16.4,3.2c-3.5,0.8-6.6,2.2-9.6,4.1c-5.4,3.5-10.3,7.5-15,11.9
	C122.3,35.8,109.9,48.8,97.9,62.2z M47.2,134.5c0.6-0.8,1.3-1.5,1.5-2.6c0.4-2.3,0.8-4.6,1.3-6.8c-0.1,0-0.2-0.1-0.3-0.1
	c-0.5,0.2-0.7,0.4-0.9,0.8c2.3-7.2,4.5-14.4,6.7-21.6c2.2-7,4.6-13.8,8.2-20.3c5.5-10,12.1-19.3,18.3-28.8
	c-2.8,4.5-5.3,9.2-8.1,13.7c-9.5,15.2-16.2,31.6-22.2,48.3c-0.3,0.9-0.9,1.9,0,2.8c0.1,0.1,0.2,0.1,0.3,0.2c0,0,0,0,0,0.1
	c-0.8,0-0.8,0.4-0.5,0.9c0,0,0,0,0,0c0,0,0.1,0.1,0.1,0.1c0,0,0,0,0-0.1c0.5-0.1,0.5-0.5,0.5-0.9c0,0,0,0,0.1,0l-0.1-0.1
	c0.8-0.5,0.9-1.3,1.3-2.1c2.1-4.6,4.7-8.9,7.7-13c6.8-9.1,13.5-18.3,20.2-27.5C88.6,67,94.9,55.8,99.6,43.7c1.9-5,3.7-10.1,4.6-15.5
	c0.2-1.2,0.7-2.7-0.4-3.5c-1.2-0.9-2.4,0.3-3.4,0.9c-4,2.4-7.3,5.4-10.4,8.8c-4.7,5.3-8.8,11-12.6,17c-6,9.7-11.1,19.9-16,30.1
	c-7.6,15.9-12.3,32.9-17.7,49.6c-0.3,0.9-0.3,1.8,0.1,2.7C44.7,136.2,45.5,136.4,47.2,134.5z M50.9,122.5c0.5-0.4,0.5-0.9,0.5-1.5
	c-0.1,0-0.2,0-0.3,0c-0.6,0.3-0.7,0.8-0.4,1.3C50.7,122.4,50.8,122.5,50.9,122.5C50.9,122.6,50.9,122.6,50.9,122.5
	c-0.8,0.1-0.8,0.5-0.5,1c0,0,0,0,0,0c0,0,0.1,0,0.1,0c0,0,0,0,0-0.1C50.8,123.3,50.8,123,50.9,122.5
	C50.9,122.6,50.9,122.6,50.9,122.5L50.9,122.5z M49.9,125.1c0.5-0.4,0.4-1,0.5-1.5c-0.1,0-0.2,0-0.4,0
	C49.4,124,49.4,124.5,49.9,125.1C49.9,125.1,49.9,125.1,49.9,125.1C49.9,125.1,49.9,125.1,49.9,125.1
	C49.9,125.1,49.9,125.1,49.9,125.1z M50.1,272.8c-1.9-2.9-3.5-6-5.1-9.1c-1.1-2-2.1-4.2-2.7-6.4c-0.3-1-0.6-2.1,0-3.1
	c1.6-2.6,0.6-4.8-1.4-6.4c-2.4-1.9-3.2-4.5-3.8-7.3c-0.3-1.4-0.6-2.7-0.9-4.1c-1.1-5.6-2.2-11.2-2.1-17c0-2.3,0.2-4.7,1.8-6.6
	c0.6-0.7,0.4-1.3,0-2c-0.9-1.3-1-2.7-0.5-4.3c0.3-0.9,0.4-1.9,0.7-2.9c3.1-11.6,5.4-23.4,10.4-34.5c0.2-0.4,0.3-0.8,0.4-1.2
	c0.2-1.1,1-2.2-0.5-3c-0.4-0.2-0.2-0.7-0.1-1.1c1.9-6.3,3.1-12.7,4.5-19.1c0.2-0.9,0.5-1.7,1.4-2.2c1.1-0.8,1.6-2,1.2-3.3
	c-0.4-1.5,0.1-2.8,0.7-4c0.7-1.6,1.5-3.1,2.3-4.7c5.4-10.4,11.3-20.5,17.1-30.7c1.4-2.4,1.4-2.4,0.9-5.9c-0.2,0.3-0.3,0.6-0.5,0.9
	c-4.5,5.4-9,10.9-12.7,16.9c-3.1,5.2-6.4,10.3-9.6,15.4c-0.8,1.4-1.6,2.7-1.7,4.4c-0.1,1.9-1.9,2.9-2.4,4.6
	c-0.3,0.8-1.2,0.2-1.8,0.4c-0.6,0.2-0.6,0.7-0.8,1.2c-0.6,2-1.4,3.9-1.9,5.9c-4.7,17.5-8.3,35.2-12,52.9c-0.5,2.5-1,5-1.6,7.5
	c-0.4,1.6-1.2,3-3.1,3.6c-1.3,0.4-2.2,1.6-3.4,2.6c1.6,1.8,3.6,2.5,5.7,3.1c0.9,0.3,1.4,0.7,1.2,1.8c-0.2,1.1,0,2.3,0.1,3.5
	c1.3,8.5,3.6,16.9,5.9,25.2c0.5,1.7,0.6,3.3,0,5c-1.4,4.4-0.9,5.3,3.3,7.3c1,0.5,1.5,1.1,1.9,2.1c2.6,6.3,5.7,12.4,8.6,18.5
	c0.3,0.5,0.3,1.3,1.2,1.4C51.7,276.3,51.3,274.6,50.1,272.8z M60.6,247.6c0,0,0,0.1,0,0.1c0,0,0,0,0,0c0-0.1-0.1,0-0.1,0
	c0,0,0,0,0,0c0,0,0,0,0,0c0,0,0,0.1,0,0.1c0,0,0.1,0,0.1,0c0,0,0,0,0,0C60.7,247.8,60.7,247.7,60.6,247.6z M66.2,236.8
	c-1-4.7-1.7-9.5-2.2-14.3c-0.3-2.6,0.1-2.9-2.9-2.6c-3.6,0.3-6.8-0.6-9.9-2.6c-1.3-0.9-2.1-1.6-2-3.3c0.2-2.7,0-5.5,0-8.2
	c-0.2-0.1-0.3-0.2-0.5-0.3c-1.1,1-2.1,2-3.2,3c-1.7,1.6-3.8,2.8-3.9,5.5c0,0.4-0.3,1-1,0.9c-1.8-0.4-2.1,1-2.4,2.1
	c-0.5,1.5-0.3,3.1-0.2,4.7c0.4,5.5,1.5,10.8,2.6,16.2c0.6,3,1.5,5.6,3.8,7.8c2.5,2.5,3.4,5.7,2,9.1c-0.5,1.1-0.1,2.1,0.3,3.1
	c1.6,3.7,3.5,7.1,5.5,10.6c0.2,0.3,0.3,0.6,0.7,0.6c0.1,0,0.2,0,0.2-0.1c0.6-2.4,0.9-4.9,1.7-7.3c1.3-4.1,1.9-8-0.2-12
	c-0.4-0.7-0.2-1.4,0.3-2.1c2.6-4.3,2.6-4.4,7.4-5.9c0.4-0.1,0.8-0.2,1.2-0.4C65.9,240.6,66.7,239.1,66.2,236.8z M69.6,222.7
	c1.5,0,3,0,4.5,0c4.1,0,4.1,0,5.2-3.9c0.4-1.4,0.3-1.5-1.3-1.5c-1.4,0-2.8,0-4.2,0c-0.8,0-1.7,0-2.5,0c-3.7,0-3.8,0.1-3.2,3.7
	c0,0.2,0.1,0.3,0.1,0.5C68.2,222.3,68.6,222.7,69.6,222.7z M72.6,230.8c1.5-1.3,2.9-2.9,4.2-5.1c-2.1,0-3.8,0-5.5,0
	c-2.7,0-2.7,0-2.4,2.8c0,0.2,0.1,0.5,0.1,0.7C69.4,231.1,71.2,232,72.6,230.8z M72.2,300.1c3.4,4.2,7.7,7.5,11,12.3
	c1.4-1.6,1.9-3.3,2.2-5c0.9-4.9,1.5-9.8,2.5-14.7c1.2-5.9,1.7-12,2.3-18c0.7-8.1,1.7-16.2,1.9-24.3c0.1-7.2-0.2-14.4-0.8-21.6
	c-0.3-4.3-0.6-8.6-1.4-12.9c-0.3-1.7-0.5-3.5-1.3-5.1c-0.9-1.9-1.8-2.1-3.4-0.6c-0.9,0.8-1.4,1.9-1.9,2.9
	c-3.1,6.3-5.3,12.9-7.5,19.5c-3.3,10-4.6,20.2-3.8,30.7c0.8,10.8,0.5,21.6-1,32.3C70.7,297.3,71,298.6,72.2,300.1z M64.2,287.2
	c1.2,1.8,2.4,3.5,3.6,5.3c0.2-0.1,0.4-0.1,0.6-0.2c0-4.3,0.6-8.6,0.4-13.4c-2.3,2.2-3.4,4.7-4.8,6.9
	C63.6,286.4,63.9,286.8,64.2,287.2z M54.9,306.3C54.9,306.3,54.9,306.3,54.9,306.3C54.9,306.4,54.9,306.4,54.9,306.3
	C54.9,306.3,54.9,306.3,54.9,306.3c0,0.1,0.1,0.1,0.1,0.2c0,0.3,0,0.7,0.4,0.8c0,0,0,0.1,0,0.1c0,0,0.1-0.1,0.1-0.1l-0.1,0.1
	c0,0,0,0,0,0.1c-0.1,0.5,0,1,0.2,1.6c1,2.8,1.9,5.6,3,8.4c1.7,4.6,4.1,8.9,6.7,13c0.5,0.7,0.8,1.7,2,1.4c0.1-1.1-0.6-1.7-1.1-2.5
	c-1.3-2.2-2.6-4.5-3.3-6.9c-1.6-5.5-4.8-10.1-7.6-14.9c0,0,0-0.1,0-0.1c0,0-0.1,0-0.1,0c-0.1-0.3-0.3-0.6-0.4-0.8
	C55,306.4,55,306.4,54.9,306.3C55,306.3,54.9,306.3,54.9,306.3C54.9,306.3,54.9,306.3,54.9,306.3L54.9,306.3
	C54.9,306.3,54.9,306.3,54.9,306.3C54.9,306.3,54.9,306.3,54.9,306.3z M70.9,341.5c-0.1-0.8-0.6-0.8-1-1c-2.1-1.2-3.8-2.7-3.8-5.4
	c0-0.9-0.7-1.5-1.2-2.1c-4.8-6-8.5-12.7-11.1-19.9c-0.8-2.3-1.7-4.5-2.7-6.7c-4.2-9.6-8.9-18.9-13.8-28.1c-3.9-7.4-7.4-15-10-23
	c-1-3.1-2-6.1-3.5-9.1c-0.8-1.6-1.6-3.2-3-4.2c-1.2-0.9-1.8-2.1-2.4-3.4c-2.2-5.3-4.7-10.4-7.7-15.3c-1.3-2.1-3.1-3.7-5.1-5
	c-1.2-0.8-1.7-0.5-2.2,0.8c-0.4,1.1-0.5,2.3-0.6,3.4c-0.3,8.6,0.1,17.2,1,25.8c2.2,21.1,10,39.8,23.5,56.1
	c8.9,10.8,18.5,21.1,28.3,31.2c0.5,0.5,1.6,0.9,0.9,2c-0.2,0.3,0.2,0.5,0.4,0.4c1.3-0.7,2,0.4,2.8,1C63.2,341.1,67,341.6,70.9,341.5
	z M98.5,366.1c1.3-1.1,1.7-2.6,1.5-4.3c-0.5-3.1-2.5-5.1-5.9-5.4c-1.7-0.2-2.8-0.9-3.8-2c-4-4.3-7-9.3-9.2-14.7
	c-1-2.5-1.7-5-0.9-7.7c0.3-1-0.1-1.5-0.9-2c-2.4-1.3-4.1-3.3-5.7-5.5c-2-2.8-3.6-5.8-4.9-8.9c-0.7-1.6-1.5-3.1-2.8-4.4
	c-1.5-1.6-2.7-3.4-3.5-5.4c-0.6-1.4-1-2.8-0.6-4.4c0.4-1.8,1.4-3,2.9-3.8c0.5-0.3,1.2-0.6,0.7-1.3c-1.1-1.6-1.9-3.4-3.6-4.9
	c-0.6,1.9,0.1,3.7-0.6,5.4c-0.8,1.8-2.3,2.8-4.4,3.2c2.2,4.9,4.5,9.2,7,13.4c1.1,1.9,2,3.8,2.7,5.9c0.9,2.9,2.1,5.6,3.7,8.1
	c0.8,1.3,1.5,2.6,1.9,4c0.6,1.9,0.4,3.6-1.5,4.7c-1,0.6-0.8,1.1,0,1.6c0.6,0.4,1.2,0.5,1.9,0.4c2.4,0,3.3,0.6,4,2.8
	c0.6,1.8,1,3.7,1.8,5.4c2.9,6.4,6.4,12.4,10.4,18.1c0.5,0.7,1,1.6,1.8,2.1c2.7,2,4.7,2.6,7.1,0.4C97.7,366.8,98.1,366.5,98.5,366.1z
	 M138.3,400.1c0.7,0.4,1.4,0.5,2.2,0.4c9.8-1.5,19.6-2.6,29.3-5c-0.3-0.9-1.1-1-1.6-1.3c-1.8-1.1-3.6-2.1-5.3-3.2
	c-2.1-1.3-3.7-3-4.8-5.3c-2.8-5.6-7.1-9.8-12.1-13.4c-1-0.7-2.1-1.3-3.4-1.5c-1.7-0.3-3.1,0.6-3.9,2.4c-0.8,1.8-0.7,2.5,0.9,3.9
	c1.8,1.6,3.9,2.9,5.9,4.1c2.1,1.3,2,1.2,1.1,3.4c-0.5,1.2-1.1,1.4-2.3,1c-3.8-1.5-7.5-3.1-11.1-5.1c-17.1-9.3-30.6-22.4-40.9-38.8
	c-0.5-0.9-0.8-2-2.1-2.2c-0.9-0.1-0.6-0.9-0.4-1.4c1.4-3.4,1.1-6.8,0.5-10.3c-0.5-3.3-1.1-6.5-2.1-9.6c-0.5,0.1-0.7,0.4-0.9,0.7
	c-0.9,1.3-1.3,1.3-3.4,0.8c-1.4-0.3-1.1-1.2-1.1-2.1c0-1.2,0.1-2.4-0.9-3.5c-3.9-4.5-8.2-8.5-12.5-12.5c-1-1-2-0.6-2.9,0
	c-1,0.6-0.9,1.5-0.5,2.4c0.5,1.4,1.3,2.8,2.3,3.8c2.3,2.2,3.6,4.9,4.8,7.7c1.4,3.2,3.2,6.2,5.5,8.8c1.1,1.2,2.3,2.6,4,2.7
	c1.4,0,1.6,0.8,1.8,1.8c0.2,1,0.3,1.9,0,2.9c-0.7,2.2-0.5,4.4,0.4,6.5c1.9,4.5,4.3,8.6,7.4,12.3c0.9,1,1.8,1.9,3.3,2
	c0.9,0.1,1.8,0.5,2.6,0.8c5.5,2.2,9.2,11.4,2.3,16.6c-0.6,0.4-1.3,0.8-1.6,1.5c0.2,0.8,0.9,1.2,1.4,1.7
	C111.4,384.3,124.6,392.5,138.3,400.1z M112.5,404.3c6.8-0.9,13-1.8,19.2-2.6c0-0.2,0.1-0.4,0.1-0.6c-4.9-2.8-9.8-5.8-14.8-9.1
	C115.5,396.1,113.9,399.9,112.5,404.3z M27.1,363.2c0.6,1,1.5,1.5,2.4,2.2c7.3,4.9,14.6,9.8,21.8,14.7c0.7,0.5,1.4,1.2,2.6,1.3
	c0.5-7.4,0.9-14.7,1.4-22.4c-2.2,1-4.3,1-6.2,1.8c-3.1,1.2-6.3,1.3-9.5,0.7c-2.7-0.5-5.3-1.2-8.1-1.3c-1.2,0-2.5-0.1-3.6,0.6
	C26.8,361.3,26.5,362.1,27.1,363.2z M137.8,484.4c-0.3-1-1.1-1.4-2-1.7c-4-1.8-8-3.5-12.1-5.2c-1.3-0.5-2.6-0.9-4-1.2
	c-1.5-0.3-3-0.7-3.9-2c-0.9-1.2-1.8-0.9-2.7-0.3c-0.5,0.3-1,0.6-1.2,1.2c0.3,0.7,0.8,0.9,1.3,1c3.8,1.1,5.7,4.3,7.5,7.4
	c1.4,2.2,1.4,2.7,3.9,2.1c3.1-0.7,5.9-0.3,8.6,1.4c0.3,0.2,0.7,0.4,1.1,0.5c1.1,0.3,2.2-0.1,3-0.7
	C138.1,486.3,138.1,485.3,137.8,484.4z M192.3,442.6c-1.3-1.9-3-2.5-5.1-1.5c-0.7,0.3-1.4,0.4-2.2,0.6c-9.7,2.3-19.3,5.1-29.3,5.6
	c-0.7,0-1.3,0.3-1.9,0.6c-1.4,0.7-2.9,1.1-4.5,1.2c-4.9,0.1-9.3,1.6-12.8,5.2c-0.1,0.1-0.3,0.2-0.4,0.3c-1.4,1.2-1.4,1.5-0.3,2.8
	c0.3,0.4,1,0.7,0.8,1.7c-1.7,1.4-3.5,3-5.4,4.4c-1.9,1.5-3.9,2.8-5.9,4.2c-1.9,1.4-4.2,2.2-6.4,3.9c2.8,0.8,5.4,1.2,7.6,2.4
	c3,1.6,6.2,2.8,9.4,4.1c2.4,1,4.7,2.1,5.9,4.6c1.9-1.1,3.6-2.3,5.5-3.2c3.1-1.5,5.4-3.9,6.7-7c2.3-5.3,6.4-9,11.2-12
	c0.6-0.4,1.1-0.9,1.8-0.6c1.4,0.5,2.2-0.4,3-1.2c1.9-1.9,3.8-3.9,5.7-5.9c1.1-1.1,2.2-2.4,3.7-2.9c4.3-1.3,7.9-3.9,11.6-6.1
	C191.6,443.5,192.3,443.3,192.3,442.6z M208.1,430.5c0.7-0.2,1.3-0.4,1.1-1.4c-2.4-0.3-4.6,0.8-7.2,0.7c2.3-1.9,2.3-2.1,1.1-4.8
	c-0.5-1.1-1-2.1-1.5-3.1c-0.3-0.6-0.6-1.1-1.3-1c-2.4,0.3-4.8,0.3-7.1,1.3c-0.7,1.9-0.8,3.9-0.9,5.9c-0.1,1.4,0.4,2.3,1.9,2.4
	c0.2,0,0.7,0,0.6,0.5c-2.3,0.7-4.9,0.9-6.3,0.5c2-0.8,2.5-2.5,2.8-4.2c1.2-6.7,2.4-13.4,3.6-20.1c0.2-0.8-0.2-2.2,0.9-2.4
	c1.1-0.2,1.2,1.2,1.6,1.9c3.1,6,6.1,12,9.1,18c0.5,1,1,2.1,2,2.8c0.6,0.4,1.2,0.3,1.3-0.5c0.7-3.9,1.5-7.9,0.5-11.9
	c-1.1-4.3-2.8-8.3-4.8-12.3c-0.6-1.2-1.4-2.1-2.7-2.4c-3.6-0.9-7.3-1.9-11-1.9c-9.5,0-18.9,0.5-28.2,2.4
	c-16.1,3.1-32.3,4.9-48.5,7.1c-6.2,0.9-12.4,1.5-18.5,2.7c-3.5,0.6-6.6,0.2-9.5-1.7c-2.2-1.4-4.5-2.9-6.7-4.3
	c-18.1-11.8-35.5-24.6-53.6-36.4c-3-2-4.7-4.6-3.7-8.9c-2.3,1.6-2.7,3.6-3,5.5c-0.2,1.2-0.1,2.5-0.3,3.7c-1.5,9.2-3.8,18.2-8.8,26.2
	c-1,1.7-1,3.3,0.1,4.9c0.5,0.7,1,1.3,1.5,2c2.6,3.2,5.8,5.6,9.1,8.1c15.9,11.6,32.3,22.6,49.1,32.7c9.3,5.6,9.1,5.4,20.8,4.7
	c5.7-0.3,11.4-0.9,17.1-1.3c7.6-0.6,15.2-1.2,22.9-1.8c7.3-0.5,14.6-1.2,21.9-1.1c4.4,0.1,8.6-0.5,12.8-1.3c2.8-0.6,5.5-1.2,8.3-1.8
	C185.9,437.6,196.9,433.6,208.1,430.5z M195.8,410.7c-0.2,0-0.4,0-0.6,0.1c-0.5,3-1.1,6.1-1.6,9.2c2.3,0.2,4.2-0.3,6.4-0.8
	C198.6,416.2,197.2,413.4,195.8,410.7z M227.4,428.2c0.1-0.4,0.2-0.9,0.7-0.9c1.1,0,2.3-0.1,3.1,0.4c0.8,0.5,0,1.5,0,2.3
	c0,0.1,0.2,0.2,0.4,0.4c2.4-1.4,3.8-3.6,5-5.9c1-1.9,1.3-3.9,0.9-6c-0.6-3.3-2.2-6.3-4-9c-2.8-4.2-5.8-8.3-8.7-12.5
	c-0.9-1.3-2-2.4-3.4-3.2c-2.3-1.3-4.7-1.7-7.2-0.6c0,1.1,1.4,1.2,0.9,2.3c-1.2,2.3-2.4,2.6-4.3,1c-0.1-0.1-0.2-0.2-0.4-0.3
	c-2.9-2.6-5-2.7-9-0.4c1.2,0.4,2,0.6,2.9,0.9c1.7,0.6,3.2,1.6,4,3.2c2.8,5.2,5.2,10.6,6.2,16.4c0.7,4-0.2,7.9-0.8,11.9
	c-0.3,2.2-0.8,4.4-1.2,6.6c-0.1,0.6-0.2,1.2-1,1.2c-0.9,0-2.2,0.3-2.7-0.2c-1.3-1.3-2.4-0.5-3.6-0.2c-2.7,0.8-5.4,1.6-8.1,2.5
	c-0.8,0.2-1.7,0.2-2.4,1.3c2.8,2.6,5.4,5.5,8.8,7.4c2,1.1,4.1,1.1,6.1-0.1C217.3,442,224.1,436.8,227.4,428.2z M302.8,475.1
	c-4.9,0.9-9.1,3.5-13.6,5.2c-1.1,0.4-2.4,0.8-3.5,1.7c0.4,0.3,0.5,0.5,0.7,0.6c1.6,0.7,3.4,1.1,3.2,3.6c-0.1,0.7,0.9,1,1.5,0.3
	c1.4-1.9,3.3-2.1,5.3-1.8c1,0.1,1.6-0.3,1.9-1.2c0.1-0.4,0.3-0.8,0.4-1.2c0.5-2.3,1.8-3.6,4.2-4c0.5-0.1,1.1,0,1.3-0.5
	c1.1-2,2.8-3.2,5-3.8c0.4-0.1,0.8-0.5,0.6-0.9c-0.3-1-1.3-1.5-2.2-1.8c-0.9-0.4-1.1,0.4-1.4,1C305.3,473.7,304.3,474.9,302.8,475.1z
	 M271.8,449.8c-2.2-1.8-4.4-2.9-7.3-3.3c-11.5-1.8-22.7-4.9-33.9-7.9c-1-0.3-1.9-0.5-2.6-0.7c-0.4-0.1-0.6-0.2-0.8-0.2
	c-1.1,0.2-1.6,1.1-2.1,2c-0.4,0.7,0.5,0.9,0.9,1.2c2.7,2.1,5.7,3.7,9.2,4.2c1.1,0.1,2.3,0.6,3.4,0.7c2.6,0.3,4.8,1.6,6.3,3.6
	c3.5,4.7,7.8,8.3,12.7,11.4c0.7,0.4,1.3,1,2,1.5c4.4,3.6,8.4,7.5,10.8,12.8c0.9,1.9,2.4,3.1,4.5,3.7c1.2,0.3,2.4,0.7,3.5,1.3
	c1.3,0.7,2.3,1.1,3.2-0.6c0.4-0.7,1.3-1.1,2-1.4c5.8-2.2,11.1-5.6,17.3-6.9c0.2-0.1,0.5-0.1,0.7-0.2c1.5-0.8,1.5-2.1,0-2.9
	c-2-1.1-4.1-2.2-6.1-3.3C287.4,460.3,279.2,455.7,271.8,449.8z M371.9,359.1c0.8,7.6,0.9,14.9,1.5,22.1c0.6,0.2,0.9,0,1.1-0.2
	c8.1-5.5,16.2-10.9,24.3-16.4c0.5-0.4,1-0.8,1.5-1.3c0.6-0.7,1.2-1.5,0.8-2.4c-0.4-0.8-1.3-1-2.1-1c-0.8,0-1.7,0-2.5,0.1
	c-2.9,0.5-5.9,1-8.8,1.5c-2.5,0.4-4.9,0.4-7.4,0C377.5,360.9,374.8,360.4,371.9,359.1z M312,410c-14.2-2.6-28.4-5.2-42.6-7.8
	c-4.5-0.8-8.9-2-13.4-2.6c-7.8-1.1-15.7-1-23.6-1.1c-0.4,0-0.9-0.1-1.1,0.6c1.5,2.1,3.1,4.4,4.6,6.6c2.2,3.2,4.1,6.4,5.2,10.1
	c0.7,2.3,1.2,4.7,0.5,7.1c-1.2,4.4-3.5,8-7.2,10.7c-0.5,0.3-1.1,0.5-1.3,1.2c0.3,0.1,0.6,0.3,0.9,0.4c13.6,3.2,26.9,7.7,41.2,8
	c11.4,0.2,22.8,2.4,34.1,4c7.8,1.1,15.6,2.1,23.4,3.1c5.2,0.7,10.3,0.1,14.8-2.9c0.8-0.5,1.6-0.9,2.4-1.4c15-8.9,29.6-18.5,44-28.2
	c5.6-3.8,11.1-7.6,16.4-11.7c2.2-1.7,4-3.7,5.7-5.9c1.4-1.9,1.5-3.8,0.2-5.8c-0.9-1.3-1.7-2.7-2.3-4.1c-3.3-7.9-6-16-6.6-24.6
	c-0.1-1.7-0.3-3.5-1.8-5c-0.4,3.9-2.8,6.2-5.7,8.1c-4,2.6-8,5.3-12,8c-16.1,10.9-31.9,22.2-48.1,32.9c-1.3,0.9-2.7,1.7-4.1,2.4
	c-2.1,1.1-4.3,1.4-6.8,0.9C323.2,412,317.6,411,312,410z M308.3,386.5c-5.8,5.5-11.5,10.5-17.6,15.1c0.1,0.2,0.1,0.3,0.2,0.5
	c8.2,1.5,16.3,2.9,24.9,4.5C313.2,399.6,310.8,393.2,308.3,386.5z M352,326.7c0.8-1.5,1.6-3,1.7-4.8c0.1-1.4,0.9-2.8,1.5-4.2
	c0.4-1,1.4-1.5,2.4-1.4c1.2,0.2,1.9-0.4,2.5-1.2c0.4-0.5,0.8-1,1.3-1.5c1.8-1.6,2.9-3.4,1.6-6.2c-2.4,1.5-4.3,3.4-6.5,5
	c-2.2,1.7-3.9,3.8-5.2,6.3c-2.5,4.5-5,9-7.3,13.6c-1.8,3.7-4,7.1-6.3,10.4c-7,10.2-15.2,19.5-22.6,29.4c-0.1,0.1-0.2,0.3-0.3,0.4
	c-0.7,0.8-2.7,0.7-3.8-0.2c-0.9-0.7-0.3-1.5,0.1-2.2c1-2.2,3.3-3.5,4.1-5.9c7.3-7.3,13.4-15.6,19.3-24.1c2.7-3.8,5-7.8,7-12
	c3.3-7,7.3-13.6,12.1-19.7c1.9-2.4,4.1-4.5,7-5.9c2.6-1.2,4.8-3,6.9-4.9c0.7-0.6,1-1.2,0.4-2.1c-0.8-1.4-1.3-3-1.8-4.9
	c-2.1,2.4-4.6,4.1-6.8,6.1c-5.2,4.5-10.1,9.4-14.5,14.7c-4.7,5.5-8.5,11.5-10.8,18.3c-1.5,4.3-3.5,8.4-4.4,12.9
	c-0.2,0.8-0.7,1.6-1.6,1.6c-1.1,0-2.2,0.1-3.1-0.7c-0.1-0.1-0.2-0.5-0.2-0.7c0.3-1.2-0.4-1.4-1.4-1.3c-1,0.1-2,0.1-3-0.1
	c-0.9-0.1-1.2,0.1-1.3,1c-0.2,1.6-0.3,3.3-0.6,4.9c-0.4,2.4-0.1,5-1.4,7.3c-5.9,10.8-12.6,20.9-24.5,26.3c-0.2,0.1-0.3,0.2-0.4,0.2
	c-2.5,0.6-3.8,2.4-4.5,4.8c0,0.1-0.2,0.2-0.4,0.4c-0.4-0.2-0.9-0.3-1.3-0.5c-2.1-1-2.1-1-1.3-3.1c1.1-2.6,1.1-2.6-1.7-3.4
	c-0.7-0.2-1.3-0.2-1.9,0.1c-1.6,0.7-3.1,1.5-4.6,2.5c-0.4,0.3-0.8,0.6-1.1,1c-0.8,1.5-0.2,6.1,1.1,7.3c1.1,1,1.2,1.8,0.5,3
	c-0.3,0.6-0.3,1.3-1.1,1.6c-0.3-0.1-0.6-0.3-0.9-0.4c-1.1-0.4-1.5-2.1-2.7-1.8c-1,0.3-1.9,1.2-2.8,2c-1,0.9-2.4,1.3-3.4,2.8
	c6,1.1,11.7,2.2,17.4,3.2c1.2,0.2,2-0.5,2.9-1.1c7.4-5.4,14.2-11.5,20.8-17.8c1.2-1.1,2.4-2,3.9-2.5c1.9-0.6,3.7-1.3,5.4-2.2
	c-0.1-1.1-1.6-1.1-1.6-2.2c0.2-0.1,0.3-0.2,0.4-0.3c1.2-0.7,2.4-1.4,3.7-2.1c8-4,14-9.8,18.2-17.8
	C342.2,345.4,347.4,336.2,352,326.7z M354.4,331.4c-1.3,2.2-2.3,4.1-3.1,6.3C354.6,336.7,355.2,335.5,354.4,331.4z M411.1,258.9
	c-0.7-1.1-0.9-2.2-0.8-3.5c0.2-2.7,0.2-5.5-0.3-8.2c-0.3-1.7-1.6-2.3-3-2.5c-1.4-0.2-3-0.5-3.9,1.3c-1.8,3.4-5,5.1-8.7,5.5
	c-1.9,0.2-3.1,1-3.9,2.5c-1,1.7-2.5,2.6-4.5,2.5c-1.4-0.1-2.6,0.5-3.5,1.6c-0.9,1.1-2,1.9-3.5,2.3c-1.6,0.4-2.7,2.1-2.6,3.8
	c0,0.9,0.3,1.8,0.4,2.7c0.6,3.2,0.4,6.3-0.9,9.2c-0.8,1.7-1.8,3.1-3.7,3.8c-2.3,0.8-2.8,2-2.6,4.5c0.1,1.4,0.4,2.8,0.4,4.2
	c-0.1,2.1,0.5,3.9,1.5,5.7c0.9,1.6,1.9,3.2,2.6,4.8c1,2.3,0.1,4.5-2,5.7c-0.7,0.4-1.4,0.5-2.1,0.7c-2,0.4-3.1,1.8-2.9,3.9
	c0.1,1.3,0.3,2.6,0.5,4c0.3,2-0.6,3.3-2.3,4.3c-1.7,0.9-3.6,1.2-5.5,1.6c-0.9,0.2-2.1-0.9-2.6,0.6c-0.3,1-1.1,1.9-1.2,3
	c0,0.8,0,1.7,0,2.5c0.1,2.3,0.1,4.6,0.3,7c0.1,2.2-0.4,4-2,5.5c0,0,0,0,0,0c-1.3,0.5-2.6,1.1-4.1,1c-0.8,0-1.4,0.3-1.7,1.1
	c-0.3,0.9-1.1,1.7-1,2.9c2.7,0,5.4,0.2,8,0c3.5-0.3,7.1-0.6,10.5-1.8c0.8-0.3,1.6-0.4,1.9-1.4c0.3-1,1-1.1,2-1.1
	c1.7,0,3.5-0.1,5.2-0.6c0.9-0.2,1.9-0.3,2.2-1.4c0.4-1.4,1.5-1.8,2.7-2.3c2.3-0.9,4.6-1.9,6.6-3.4c0.7-0.5,1.3-1,1.9-1.6
	c0.7-0.6,0.6-1.2-0.1-1.8c-2.3-2-2.2-3,0.4-4.3c8.6-4.5,14.4-11.6,18.5-20.2c0.4-0.8,0.6-1.7,0.8-2.6c0.2-0.9-0.1-1.5-1.1-1.9
	c-2.8-1-3-2.1-1-4.2c0.2-0.2,0.4-0.3,0.5-0.5C413.9,285,418.3,271.5,411.1,258.9z M419.8,253.3c2.1-3.3,1.8-5.6-0.9-8.5
	c-0.3-0.3-0.6-0.6-0.9-0.8c-1.1-0.9-1.2-1.9-0.6-3.1c0.3-0.5,0.5-1.1,0.7-1.6c1.2-3,1.1-5.9-1.5-8.2c-0.8-0.7-0.9-1.5-0.8-2.5
	c0.2-2.2,0.3-4.3,0.5-6.5c0.3-2.9-0.1-5.6-1.1-8.3c-0.6-1.7-0.9-1.9-2.5-1c-2.7,1.4-5.4,3-8.5,3.3c-0.8,0.1-1.4,0.6-1.6,1.4
	c-0.7,2-2.1,2.6-4.1,2.2c-0.3-0.1-0.7,0-1,0c-2.7,0.1-2.9,0.4-3,3c-0.1,8.5-0.7,16.9-1.9,25.3c-0.1,0.5-0.1,1-0.1,1.5
	c0,0.4,0.1,0.6,0.5,0.8c1.1,0.6,3.1-0.2,3.2-1.5c0.3-2,0.6-4-0.1-6.1c-0.9-2.8-0.5-5.5,1.1-8.1c1.6,0.8,1.6,2.4,2.7,3.7
	c2-2.7,4.4-5,4.9-8.5c0.3-1.8,0.9-3.6,2.3-4.9c1.5-1.5,3.1-2.9,4.9-4.5c0.1,1.9-0.7,3-1.4,4.2c-1.2,1.8-2.1,3.6-2.1,5.8
	c0,2.4-1,4.3-2.2,6.2c-1.1,1.6-2.4,3.1-3.9,4.5c-2.5,2.2-3.5,5.3-5.5,8.5c2.7-0.9,4.2-2.2,5.1-4.1c0.7-1.5,1.8-2.1,3.3-2.2
	c0.8,0,1.7-0.1,2.5,0c2.4,0.3,3.7,1.5,4.3,3.8c0.6,2.4,0.9,4.8,0.8,7.2c-0.1,2.1,0.5,3.7,1.9,5.3c0.9-0.3,1.3-1,1.8-1.5
	C417.6,256.5,418.8,255,419.8,253.3z M60.5,247.8C60.5,247.8,60.5,247.8,60.5,247.8C60.5,247.8,60.6,247.8,60.5,247.8
	C60.6,247.8,60.5,247.8,60.5,247.8z M60.6,247.8C60.6,247.9,60.6,247.9,60.6,247.8C60.6,247.9,60.6,247.9,60.6,247.8
	C60.6,247.9,60.6,247.8,60.6,247.8z M106.5,55.6C106.5,55.6,106.5,55.6,106.5,55.6C106.5,55.6,106.5,55.6,106.5,55.6
	C106.5,55.6,106.5,55.6,106.5,55.6z M60.5,247.8C60.5,247.8,60.5,247.9,60.5,247.8C60.5,247.9,60.5,247.8,60.5,247.8
	C60.5,247.8,60.5,247.8,60.5,247.8z M60.5,247.8C60.5,247.8,60.5,247.8,60.5,247.8C60.5,247.8,60.5,247.8,60.5,247.8
	C60.5,247.8,60.5,247.8,60.5,247.8C60.5,247.8,60.5,247.8,60.5,247.8C60.5,247.8,60.5,247.8,60.5,247.8z M110.6,62.1
	C110.5,62.1,110.5,62,110.6,62.1C110.5,62,110.5,62.1,110.6,62.1C110.5,62.1,110.5,62.1,110.6,62.1z M110.5,62.1
	C110.5,62.1,110.5,62.1,110.5,62.1C110.5,62.1,110.5,62.1,110.5,62.1C110.5,62.1,110.5,62.1,110.5,62.1
	C110.5,62.1,110.5,62.1,110.5,62.1z M110.5,62.1C110.5,62.1,110.5,62.2,110.5,62.1C110.5,62.2,110.6,62.2,110.5,62.1
	C110.6,62.2,110.6,62.2,110.5,62.1C110.6,62.1,110.6,62.1,110.5,62.1z M58.7,134.2C58.7,134.2,58.6,134.1,58.7,134.2L58.7,134.2z
	 M48.2,127.2c-0.1,0.3-0.2,0.6-0.3,0.9c0-0.1,0,0,0,0C48,127.8,48.1,127.5,48.2,127.2z M58.7,134.2c0,0,0,0-0.1,0c0,0,0,0,0,0
	C58.6,134.2,58.6,134.2,58.7,134.2z M294.5,30.7l-0.2,0.1l0.1,0C294.5,30.7,294.5,30.7,294.5,30.7C294.5,30.7,294.5,30.7,294.5,30.7
	z M64.4,337.8c0,0.1,0.1,0.3,0.2,0.3c0.2,0.1,0.3-0.1,0.2-0.2C64.7,337.9,64.6,337.9,64.4,337.8z M7,246.4C7,246.5,7,246.5,7,246.4
	C7,246.5,7,246.5,7,246.4C7.1,246.5,7,246.4,7,246.4z M64.3,337.8C64.4,337.8,64.4,337.8,64.3,337.8
	C64.4,337.8,64.4,337.8,64.3,337.8C64.4,337.8,64.3,337.8,64.3,337.8z M187.7,431c0,0-0.1,0-0.1,0
	C187.6,431.2,187.6,431.2,187.7,431z M353.5,338.9C353.6,338.9,353.6,338.9,353.5,338.9C353.6,338.9,353.6,338.8,353.5,338.9
	C353.6,338.8,353.6,338.8,353.5,338.9z M144.8,366.7C144.8,366.7,144.8,366.7,144.8,366.7C144.8,366.7,144.8,366.7,144.8,366.7
	C144.8,366.7,144.8,366.7,144.8,366.7z M144.8,366.8C144.8,366.8,144.8,366.7,144.8,366.8C144.8,366.7,144.8,366.7,144.8,366.8
	C144.8,366.7,144.8,366.7,144.8,366.8C144.8,366.7,144.8,366.7,144.8,366.8z M187.5,431C187.5,431,187.5,431,187.5,431
	C187.6,431,187.6,431,187.5,431C187.6,430.9,187.5,431,187.5,431z M353.3,339.1c0.1,0,0.1-0.1,0.2-0.2c-0.1,0-0.2,0-0.3,0
	C353.1,339,353.2,339.1,353.3,339.1z M144.8,366.7C144.8,366.7,144.8,366.7,144.8,366.7C144.8,366.7,144.8,366.7,144.8,366.7
	C144.8,366.7,144.8,366.7,144.8,366.7C144.8,366.7,144.8,366.7,144.8,366.7z M17.4,205.4C17.4,205.4,17.4,205.4,17.4,205.4
	C17.4,205.5,17.3,205.5,17.4,205.4C17.3,205.5,17.4,205.5,17.4,205.4L17.4,205.4C17.4,205.4,17.4,205.4,17.4,205.4
	C17.5,205.3,17.4,205.3,17.4,205.4l0.1-0.2L17.4,205.4C17.3,205.4,17.3,205.4,17.4,205.4C17.3,205.4,17.4,205.4,17.4,205.4z
	 M17.3,205.4C17.3,205.4,17.3,205.4,17.3,205.4C17.3,205.4,17.3,205.4,17.3,205.4L17.3,205.4z M17.1,204.3c0,0.4,0.1,0.7,0.2,1.1
	C17.4,205,17.5,204.6,17.1,204.3z M73.1,114.4C73.1,114.4,73.1,114.5,73.1,114.4C73.1,114.5,73.2,114.5,73.1,114.4
	C73.2,114.5,73.2,114.4,73.1,114.4z M17.3,205.4C17.3,205.4,17.3,205.5,17.3,205.4C17.3,205.4,17.3,205.4,17.3,205.4
	C17.3,205.4,17.3,205.4,17.3,205.4z M17.1,204.2C17.1,204.2,17,204.2,17.1,204.2c0,0.1,0,0.1,0,0.1
	C17.1,204.3,17.1,204.2,17.1,204.2z M110.5,62.2C110.5,62.1,110.5,62.1,110.5,62.2C110.5,62.1,110.5,62.1,110.5,62.2
	C110.5,62.1,110.5,62.1,110.5,62.2z M150.9,370.9C150.9,370.9,150.9,370.9,150.9,370.9L150.9,370.9
	C150.9,370.9,150.9,370.9,150.9,370.9z M7,246.5C7,246.5,6.9,246.5,7,246.5C7,246.6,7,246.6,7,246.5z M312.2,36.5
	C312.2,36.5,312.2,36.4,312.2,36.5C312.2,36.4,312.2,36.4,312.2,36.5C312.1,36.5,312.2,36.5,312.2,36.5z M83,129.5
	C83,129.5,83,129.5,83,129.5C83,129.5,83,129.5,83,129.5C83,129.5,83,129.6,83,129.5c-0.1,0.1-0.1,0.1-0.1,0.1
	C83,129.6,83,129.6,83,129.5L83,129.5z M82.4,130.7c0,0,0-0.1,0-0.1C82.4,130.6,82.4,130.6,82.4,130.7
	C82.4,130.6,82.4,130.7,82.4,130.7z M82.4,130.6c0.2-0.3,0.4-0.6,0.6-1C82.6,129.8,82.3,130.1,82.4,130.6z M83,129.5
	C83,129.5,82.9,129.5,83,129.5C82.9,129.6,82.9,129.6,83,129.5z M35.6,109.7c0,0.1-0.1,0.1-0.1,0.2c0,0.1,0.1,0.1,0.1,0.1
	C35.8,109.8,35.8,109.7,35.6,109.7z M73.1,114.4C73.1,114.4,73.1,114.4,73.1,114.4C73.1,114.4,73.1,114.4,73.1,114.4
	C73.1,114.4,73.1,114.4,73.1,114.4z M312,36.8c0,0.6,0.3,0.9,0.9,0.9c0.5,0,0.9-0.2,0.8-0.8c-0.5-0.1-1-0.1-1.5-0.5
	C312.1,36.6,312,36.7,312,36.8z M41.7,203.6C41.7,203.6,41.7,203.7,41.7,203.6C41.8,203.7,41.8,203.6,41.7,203.6
	C41.7,203.6,41.7,203.6,41.7,203.6z M313.6,36.9C313.7,36.9,313.6,36.9,313.6,36.9C313.7,36.9,313.7,36.9,313.6,36.9
	C313.7,36.9,313.6,36.9,313.6,36.9z M397.6,265.7C397.6,265.7,397.5,265.7,397.6,265.7C397.5,265.8,397.5,265.8,397.6,265.7
	C397.5,265.8,397.6,265.7,397.6,265.7z M402.6,257.6C402.6,257.6,402.6,257.6,402.6,257.6C402.6,257.6,402.6,257.7,402.6,257.6
	C402.6,257.7,402.6,257.6,402.6,257.6z M402.6,257.6C402.6,257.6,402.6,257.6,402.6,257.6C402.6,257.6,402.6,257.6,402.6,257.6
	C402.5,257.5,402.5,257.6,402.6,257.6z M397.5,265.7C397.4,265.7,397.4,265.7,397.5,265.7C397.5,265.7,397.5,265.7,397.5,265.7z
	 M58.6,134.2C58.6,134.2,58.6,134.2,58.6,134.2C58.6,134.2,58.6,134.2,58.6,134.2C58.6,134.2,58.6,134.2,58.6,134.2z M402.6,257.6
	C402.8,257.6,402.6,257.5,402.6,257.6L402.6,257.6z M35.7,110C35.7,110,35.7,110,35.7,110C35.7,110,35.7,110,35.7,110
	C35.7,110,35.7,110,35.7,110z M41.7,203.6C41.7,203.6,41.7,203.6,41.7,203.6C41.7,203.6,41.7,203.5,41.7,203.6
	C41.7,203.5,41.7,203.6,41.7,203.6z M41.7,203.6C41.6,203.6,41.7,203.7,41.7,203.6L41.7,203.6z M110.4,62.1
	C110.5,62.1,110.5,62.1,110.4,62.1C110.5,62,110.5,62,110.4,62.1C110.5,62,110.4,62.1,110.4,62.1z M311.6,36.2
	c0.2,0.2,0.3,0.5,0.6,0.2c-0.2-0.2-0.3-0.3-0.5-0.5C311.6,36.1,311.6,36.1,311.6,36.2z M87.4,46.3C87.4,46.2,87.4,46.2,87.4,46.3
	c-0.1,0-0.1,0-0.1,0c0,0,0,0,0,0C87.3,46.3,87.4,46.3,87.4,46.3z M321.2,54.8C321.2,54.8,321.2,54.8,321.2,54.8c0.3-0.5,0.5-1,0-1.4
	c0-0.4-0.1-0.7-0.4-0.9c-0.1,0-0.1,0-0.2,0.1c0,0.4,0.2,0.6,0.5,0.9C321.3,53.8,321.3,54.3,321.2,54.8c-0.4,0.2-0.8,0.4-1,0.8
	c0,0.1,0.1,0.1,0.1,0.2C320.8,55.7,321,55.3,321.2,54.8z M87.3,46.2C87.3,46.2,87.3,46.2,87.3,46.2c0.1,0,0.1,0,0.1,0
	C87.4,46.2,87.3,46.2,87.3,46.2z M87.3,46.3C87.2,46.1,87.2,46.3,87.3,46.3L87.3,46.3z M245,19.3C245,19.3,245,19.3,245,19.3
	C245,19.3,245,19.3,245,19.3C245,19.3,245,19.3,245,19.3z M46.8,130.8C46.8,130.8,46.8,130.9,46.8,130.8
	C46.8,130.9,46.8,130.9,46.8,130.8z M311.6,35.9c-0.1-0.2-0.2-0.4-0.4-0.4C311.1,35.9,311.2,36,311.6,35.9z M311.7,35.9
	C311.7,35.9,311.6,35.9,311.7,35.9C311.6,35.9,311.6,35.9,311.7,35.9C311.6,36,311.7,35.9,311.7,35.9z M245,19.3c0.2,0,0.3,0,0.5,0
	c0.2,0,0.3,0,0.5,0.1c-0.1-0.4-0.3-0.1-0.5-0.1C245.3,19.1,245.1,19.2,245,19.3C245,19.3,245,19.3,245,19.3
	C245,19.3,245,19.3,245,19.3z M311.2,35.4L311.2,35.4C311.2,35.4,311.2,35.4,311.2,35.4C311.2,35.4,311.2,35.4,311.2,35.4z
	 M106.5,55.5C106.5,55.5,106.5,55.5,106.5,55.5C106.4,55.5,106.4,55.5,106.5,55.5C106.3,55.5,106.4,55.5,106.5,55.5z M344.3,72
	c0,0,0.1,0,0.1-0.1C344.4,72,344.3,72,344.3,72C344.3,72,344.3,72,344.3,72z M122.2,59.8C122.2,59.8,122.2,59.8,122.2,59.8
	c0-0.1,0-0.1,0-0.1L122.2,59.8z M363.4,99.7C363.4,99.7,363.5,99.7,363.4,99.7C363.5,99.7,363.5,99.7,363.4,99.7
	C363.5,99.6,363.5,99.6,363.4,99.7C363.5,99.6,363.4,99.7,363.4,99.7z M357.6,92.2C357.6,92.2,357.5,92.2,357.6,92.2l0.1,0.1
	C357.6,92.3,357.6,92.2,357.6,92.2z M106.5,55.6C106.5,55.6,106.5,55.5,106.5,55.6C106.5,55.5,106.5,55.5,106.5,55.6
	C106.5,55.5,106.5,55.6,106.5,55.6z M330.2,47.7C330.2,47.7,330.2,47.7,330.2,47.7C330.2,47.8,330.2,47.8,330.2,47.7z M330.2,47.6
	C330.2,47.7,330.2,47.7,330.2,47.6C330.3,47.7,330.3,47.7,330.2,47.6C330.3,47.7,330.2,47.6,330.2,47.6z M163.4,8.8
	c-0.2-0.1-0.4-0.1-0.6-0.2c0,0,0,0,0,0c0.1,0.1,0.3,0.2,0.4,0.2C163.2,8.9,163.3,8.9,163.4,8.8z M246.3,20.4
	C246.2,20.4,246.3,20.5,246.3,20.4c0.1,0,0.1,0,0.1,0C246.3,20.4,246.3,20.4,246.3,20.4z M253.1,14.7
	C253.1,14.7,253.1,14.7,253.1,14.7C253.1,14.7,253.1,14.7,253.1,14.7C253.1,14.7,253.1,14.8,253.1,14.7z M253.2,14.6
	c0,0-0.1,0.1-0.1,0.1c0,0,0,0,0,0C253.1,14.7,253.2,14.6,253.2,14.6z M246.4,20.3C246.4,20.3,246.4,20.3,246.4,20.3c0,0,0.1,0,0.1,0
	C246.5,20.3,246.4,20.3,246.4,20.3z M353.6,338.8c0.9,0.1,1.6-0.4,2.3-0.8c2.9-1.3,5.5-3,8-4.9c5.7-4.4,10.5-9.7,14.4-15.7
	c0.5-0.8,0.9-1.6,1.9-1.9c1.6-0.4,3.2-1,4.8-1.1c3.4-0.3,6.1-2.1,8.4-4.5c0.3-0.3,0.8-0.7,0.3-1.4c-3.8,0.2-7.4,1.8-11.4,2.3
	c1.1-2.6,2.2-5,3.1-7.5c2-5.2,4-10.3,5.9-15.6c0.6-1.5,1.4-2.5,2.9-3.2c1.1-0.5,2.3-1,3.4-1.5c3-1.4,4.8-4.1,4.7-6.9
	c-2.7,0.8-4.8,3.1-8,3.6c2.9-7.6,5.2-15,8.3-22.2l0,0.1c-0.9,0.3-1.2,1.1-1.6,1.8c-1.2,2.1-2.3,4.2-3.5,6.3l0.1,0
	c-0.4-0.8-0.2-1.6-0.3-2.5c-0.3-2-0.6-4-2.3-5.6c-0.7,1.1-0.8,2.2-1.1,3.2c-0.3,1.4-0.5,2.8-0.9,4.1c-0.7,2.2-0.7,4.4,0.2,6.6
	c0.5,1.1,0.5,2-0.1,3c-3,6.4-5.8,12.8-8.5,19.4c-0.2,0.4-0.1,1-1,1.1c-0.2-2.8-0.8-5.6-0.6-8.3c0.3-5.3-0.3-10.4-0.8-15.6
	c-0.1-1.4-0.4-2.8-0.7-4.8c-0.9,1.3-1,2.2-1.2,3.1c-1.4,5.3-1,10.7-1.4,16.1c-0.1,1.7,0.1,3.5,0.5,5.2c0.6,2.5,1.1,5,1.8,7.5
	c0.5,1.9,0.4,3.7-0.4,5.5c-2.4,5.7-5.1,11.1-8.7,16.2c-1-0.7-1.3-1.8-2.3-2.4c-0.7-0.4-1.2-0.4-1.5,0.5c-0.6,1.7-0.7,3.4,0.1,5.1
	c0.4,1,0.2,1.7-0.5,2.4c-3.6,4.2-7.4,8-11.9,11.3c-0.7,0.5-1.3,1.1-2.2,1.1c0,0,0.1-0.1,0.1-0.1C354,338.1,353.8,338.5,353.6,338.8
	L353.6,338.8z M381.3,109.5c0.4,0.1,0.8,0.2,1.2,0.2c1.3,0.1,2.1,0.7,2.6,2c1.4,3.3,2.9,6.5,4.3,9.8c0.7,1.7,1.2,3.4,1.7,5.1
	c-3.7-2.2-7.1-4.6-11.6-5.4c0.7,1.7,1.7,2.7,2.6,3.7c2.8,3,6.1,5.4,9.8,7.2c1,0.5,1.7,1.2,2,2.3c1.7,5.2,3.5,10.4,4.8,15.7
	c0.1,0.6,0.4,1.1,0,2c-3-3.1-6.1-5.8-10.5-6.7c0,1.2,0.7,1.8,1.1,2.4c2.6,3.7,5.9,6.8,9.6,9.3c1,0.7,1.4,1.4,1.6,2.6
	c0.8,7.3,1.7,14.7,2.6,22c0.3,2.6,0.7,5.2,1.1,7.9c0.7-1,0.6-2.1,0.6-3.2c0.2-6.1-0.3-12.3-0.5-18.4c-0.1-1.6,0.3-2.7,1.7-3.8
	c3.3-2.5,4.1-6.1,4.4-10.1c-3.7,0.5-4.3,4-6.4,6.5c-0.1-5.6-1.1-10.6-2.5-15.6c-0.2-0.7-0.1-1.3,0.2-1.9c1.8-3.6,2.2-7.6,2.6-11.6
	c0.1-0.9,0.2-1.9-0.2-3.1c-1.7,1-2.5,2.4-3.2,3.9c-0.6,1.5-1.1,3-1.7,4.6c-0.6-0.6-0.7-1.3-0.9-1.9c-2.2-5.9-4.2-11.9-6.9-17.6
	c-0.4-0.8-0.3-1.5,0-2.4c1.2-3.9,0.5-7.8,0.5-12.1c-3.2,1.6-3.5,4.4-4.1,7.5c-2.3-3.8-4.2-7.2-6.2-10.5c-0.8-1.3-1.6-2.6-2.3-3.8
	c-0.7-1.2-1-2.6-1.6-3.8c-0.1,4.7,3,8.4,4.2,12.8c-2.5,0.1-3.4-2.5-5.7-2.8C376,106.8,377.3,108.6,381.3,109.5z M344.5,71.9
	c-0.2,0.3,0.1-0.1-0.1,0.2c-1.1-1-2.5-1.5-3.9-2.2c-5.6-2.8-11.8-4-17.8-5.5c-0.5-0.1-1-0.6-1.6,0c2.4,2.3,5.1,4,8.1,5.2
	c5.5,2.3,11.1,4.5,16.8,6.1c1.5,0.4,2.4,1.2,3.2,2.5c2.4,4.3,5,8.4,7.7,12.5c0.3,0.5,0.8,0.9,0.6,1.5l0.1-0.1
	c-0.8,0.2-1.4-0.4-2.1-0.7c-2.1-1-4.2-2.1-6.3-3c-4-1.8-8-3.6-12.3-4.5c-2-0.4-4-0.9-6.1-0.3c0.1,0.5,0.4,0.6,0.7,0.7
	c4.6,2.2,9,4.9,13.9,6.7c4,1.5,8,2.7,12.3,2.5c1,0,1.5,0.4,2,1.1c1.2,1.6,2.2,3.5,3.8,4.8l-0.1,0c0.2-0.9-0.3-1.6-0.6-2.4
	c-1.6-3.6-3.2-7.1-4.8-10.7c-0.4-0.8-0.7-1.4,0-2.2c3.2-4.1,3.1-8.7,1.5-13.4c-0.3-0.9-0.6-1.9-1.7-2.3c-0.7,2.3-1.1,4.6-1.1,6.9
	c-0.1,2.3-0.1,4.7-0.1,7.3c-0.4-0.4-0.6-0.5-0.7-0.6c-2.5-4.8-5.1-9.5-8.3-13.8c-0.6-0.8-0.4-1.5,0-2.3c1.2-2.2,1.6-4.5,1.4-7
	c-0.3-3.7-1.8-6.6-5.7-8.6c1.3,4.8,2,9.3,1.8,13.9c-4.7-5.9-9.4-11.6-14.8-16.9l-0.1,0.2l0.2-0.2c-0.3,1,0.5,1.7,0.9,2.4
	c3.8,6.6,8,13.1,12.3,19.5c0.4,0.7,1.4,1.3,0.8,2.4C344.4,71.9,344.5,71.8,344.5,71.9z M7.1,246.5c0.1,0.4,0.1,0.8,0.2,1.2
	c2.4,7.2,4.4,14.6,7.1,21.7c3.8,10.1,9.1,19.5,14.8,28.7c4.3,7,9.1,13.4,15.3,18.9c5,4.4,9.2,9.5,12.6,15.3c1.6,2.7,4,4.8,7.4,5.4
	l-0.1,0.1c-0.5-0.7-1.3-1-1.9-1.6c-1.9-1.6-3.6-3.4-4.5-5.8c-0.6-1.5-1.4-2.8-2.2-4.2c-2.9-4.6-6.1-9-9.9-12.7
	c-4.1-4.1-7.6-8.6-10.6-13.4c-8.6-13.6-16.8-27.4-22.8-42.5C10.9,253.8,9.2,250,7.1,246.5L7.1,246.5z M375,198.8
	c0.1-0.9-0.2-1.6-0.4-2.4c-1.4-5.2-2.9-10.4-4.7-15.5c-0.7-2.1-1-3.6,1.3-5.2c2.7-1.9,2.9-5.6,0.8-8.2c-1.8,1.8-2.8,4.2-4,7
	c-0.5-1.1-0.7-1.7-1-2.3c-1.8-5-3.5-10-5.3-15c-0.5-1.4-0.3-2.4,0.3-3.7c1.6-3.3,3.5-6.4,4.2-10.1c0.2-0.9,0.5-1.9-0.3-2.9
	c-3.2,2.6-5.2,5.9-6.7,9.9c-2-4.9-3.9-9.5-5.7-14.1c-0.1-0.4-0.3-0.9-0.1-1.2c1.1-2.7,1-5.7,2.4-8.3c0.8-1.4,1.4-3,1-5
	c-1.6,0.8-2.6,1.9-3.8,2.9c-1.2,1-1.7,2.5-2.7,4c-2.4-5.2-4.5-10.2-7.5-14.8c0.6,2.9,1.9,5.6,2.4,9c-2.7-2.4-5.1-4.6-8.6-5
	c0.1,1.1,0.7,1.7,1.1,2.4c1.7,2.6,3.6,5.2,6.2,6.8c3.5,2.2,5.2,5.4,6.1,9.2c0.2,1,0.7,1.9,0.9,2.8c0.3,1.1,0.9,2.1,1,3.5
	c-3.2-1.7-6.2-3.5-10-3.2c0.5,1.1,1.3,1.8,2,2.4c2.5,2.3,5.3,4.3,8.3,5.9c1.7,0.9,2.7,2.2,3.4,4c5.5,15,11.3,29.9,18.1,44.4
	C374,197.1,374.2,198.1,375,198.8L375,198.8z M82.4,130.7c-1.2,0.1-1.3,1.2-1.7,1.9c-5.1,8.1-9.8,16.4-14.4,24.7
	c-7.8,14.2-15.1,28.6-22.7,42.9c-0.6,1.2-1.1,2.4-2,3.4c0.2,0.1,0.2,0.2,0.2,0.1c0,0,0-0.1-0.1-0.2c1,0.4,1.3-0.6,1.7-1.1
	c2.3-2.7,4.4-5.6,6.4-8.6c11.9-17.9,21.6-36.8,30-56.5C80.8,135.2,81.9,133,82.4,130.7L82.4,130.7z M77.8,299.8
	c1.7-7.5,2.7-15,3.4-22.6c1.1-13.1,2-26.1,2.9-39.2c0.2-2.4,0-4.9,0-7.3c-0.3,0.3-0.4,0.5-0.5,0.8c-2.9,11.9-5.1,23.8-5.8,36.1
	c-0.3,5.6-0.6,11.3-0.8,16.9c-0.2,6.2-0.3,12.4-0.5,18.9C77.4,302.1,77.5,300.9,77.8,299.8z M51.4,121.1c0-0.4,0-0.8,0.5-1
	c0.3-2.5,1.6-4.7,2.4-7C59.8,97.3,66.9,82.3,75.6,68c4-6.7,7.8-13.5,11.3-20.5l0.1,0.1c-1.2-0.1-1.4,1-1.9,1.6
	C78,58.3,71.6,67.9,65.6,77.7c-4.3,7-7.7,14.5-10.2,22.3c-0.9,2.9-1.9,5.8-2.8,8.8c-2.2,7.3-4.3,14.6-5.8,22.1l0-0.1
	c0.9-0.6,1-1.7,1.4-2.5c0.6-1.1,0.7-2.3,1.7-3.2c0-0.6,0-1.1,0.5-1.5c0.1-0.4,0.1-0.8,0.5-1C51,122.1,51,121.5,51.4,121.1z
	 M87.4,46.2c-0.1,0.5-0.7,0.8-0.4,1.4c0,0-0.1-0.1-0.1-0.1C87,47.1,87.2,46.6,87.4,46.2L87.4,46.2z M122.1,59.7
	c2-0.2,3.5-1.5,5.1-2.4c14.9-8.8,29.1-18.9,43.1-29.1c0.3-0.2,0.7-0.4,0.8-1c-2.7,0.8-5.1,1.9-7.5,3.1
	c-14.6,7.3-27.7,16.6-39.6,27.7C123.3,58.5,122.6,59,122.1,59.7L122.1,59.7z M320,54.5c-1-5.1-8.3-13.1-14.3-15.2
	C307.4,44.8,315,52.9,320,54.5z M113.7,435.6c0.3,3.3-1.5,5.8-4.7,6.8c-1.4,0.4-2.8,0.5-4.2,0.7c-1.4,0.2-2.8,0.3-4.2,0.5
	c-1.4,0.2-2.8,0.4-4.1,0.7c-0.2-0.5-0.1-0.7,0.2-0.8c1.7-0.5,2.1-1.7,1.9-3.3c-0.5-3.9-1-7.9-1.5-11.8c-0.2-1.6-0.5-3.3-0.7-4.9
	c-0.5-3.1-0.5-3.1-3.6-4.3c3.6-0.5,7-1.2,10.3-1.4c4.1-0.3,6.8,2.4,6.6,6.3c-0.1,1.4-0.6,2.5-1.6,3.6c-0.5,0.5-1.3,0.8-1.7,1.8
	c0.7,0.1,1.2,0.1,1.6,0.2C111.3,430,113.5,432.4,113.7,435.6z M101.4,429.1c2.4,0.3,4.7-1.5,4.7-4c0-0.9-0.2-1.8-0.4-2.7
	c-0.5-2.2-1.8-3.1-4.2-3c-1.9,0.1-2,0.2-1.9,2.5c0.2,1.7,0.5,3.8,0.8,5.9C100.6,428.4,100.6,429,101.4,429.1z M109.3,434.9
	c-0.5-2.8-2.2-4.1-5.2-4.1c-0.2,0-0.5,0-0.8,0.1c-2,0.2-2.1,0.3-1.9,2.3c0.2,1.8,0.6,3.6,0.8,5.4c0.5,3.5,2.4,3.2,4.6,2.7
	c1.7-0.4,2.5-1.7,2.7-3.4C109.6,436.9,109.5,435.9,109.3,434.9z M187.6,430.9C187.5,430.9,187.5,430.9,187.6,430.9
	C187.5,430.9,187.5,431,187.6,430.9L187.6,430.9z M186.5,424c-0.5,1.4-0.7,2.8-1.1,4.2c-0.8,2.5-2.4,4.2-5,4.6
	c-2.6,0.4-4.5-0.7-6.1-2.6c-0.3-0.4-0.6-0.8-0.8-1.2c-2.6-5-3.2-10.3-1.9-15.7c0.5-2.1,1.7-3.8,3.8-4.7c3.1-1.3,6.2-0.1,8.1,3
	c0.5,0.8,0.5,1.9,1.6,2.6c-0.1-2.5-0.5-4.6-1.2-6.7c-0.4,1.3-1.1,1-2,0.7c-6.4-2.3-12.3,0.7-14.2,7.3c-1.1,4.1-0.7,8.1,1.1,11.9
	c3.2,6.8,10.9,8.5,16.6,3.6c0.9-0.8,1.4-0.5,2.2-0.1C187.7,428.6,187.1,426.3,186.5,424z M153.7,431.4c-0.4,3-1.7,4.5-4.6,5
	c-0.7,0.1-1.5,0.2-2.2,0.2c-2.9,0.2-3.7-0.4-4.2-3.3c-0.6-3.5-1-7.1-1.4-10.6c-0.3-2.2-0.5-4.4-0.7-6.7c-0.1-1.3,0.2-2.3,1.6-2.6
	c0.3-0.1,0.6-0.3,0.4-0.8c-2.8,0.4-5.7,0.8-8.6,1.1c-0.1,0.2-0.1,0.3-0.2,0.5c2.8-0.1,3.2,1.7,3.5,3.7c0.6,4.8,1.4,9.5,1.9,14.3
	c0.3,2.3,1.2,4.9-1.9,6.5c5.8-0.6,11.3-1.4,16.9-2.2c0.3,0,0.8-0.2,0.7-0.5c-0.3-1.9,0-3.9-0.8-5.8
	C153.6,430.6,153.7,431,153.7,431.4z M162.8,431.2c-0.8-5.5-1.6-11-2.2-16.5c-0.3-3.3-0.6-2.4,2.3-4.8c-3.2,0.4-6.1,0.8-8.9,1.2
	c2.7,1.1,2.8,1.1,3.2,4c0.8,5.3,1.5,10.7,2.2,16c0.1,1,0.2,2,0,3c-0.3,1.1-1.5,1.1-2.3,1.9c2.7,0.1,7.5-0.6,8.8-1.2
	C163.4,433.9,163.1,433.7,162.8,431.2z M134.1,433.6c0,3.1-2,5.7-5.3,6.3c-2.4,0.5-4.9,0.7-7.4,0.9c-1.5,0.1-2.9,0.7-4.4,0.5
	c-0.2-0.3-0.1-0.5,0.1-0.6c1.6-0.5,1.9-1.7,1.7-3.1c-0.2-2-0.4-4-0.6-5.9c-0.5-3.8-1-7.6-1.5-11.3c-0.3-1.9-0.7-3.7-3.3-3.8
	c3.6-0.3,6.8-1.4,10.2-1.5c3.1-0.1,5.1,1.1,6,3.5c1.1,2.7,0.4,4.9-2,7.1c-0.2,0.2-0.5,0.4-0.7,0.7c0.4,0.7,1.1,0.5,1.6,0.6
	C132,427.6,134.1,430.1,134.1,433.6z M122.1,426.4c2.3,0,3.9-1.2,4.4-3.3c0.6-2.7-0.6-5.6-2.7-6.3c-0.5-0.2-1-0.2-1.5-0.2
	c-1.9,0-2.3,0.5-2.1,2.6c0.2,1.9,0.5,3.9,0.8,6C121,425.8,121.1,426.4,122.1,426.4z M129.9,434.1c-0.1-4.6-2.8-6.8-7.1-5.8
	c-0.7,0.2-1.3,0.4-1.2,1.2c0.3,2.5,0.4,5.1,1.2,7.6c0.5,1.5,1.3,1.9,2.9,1.8C128.6,438.7,130,437.1,129.9,434.1z M28.8,408.7
	C28.8,408.7,28.8,408.7,28.8,408.7L28.8,408.7C28.7,408.8,28.8,408.7,28.8,408.7C28.8,408.7,28.8,408.7,28.8,408.7
	C28.8,408.7,28.8,408.7,28.8,408.7z M45,415.2c-1.6,1.3-3.3,1.3-5.1,0.3c-0.9-0.5-1.9-1.1-2.6-1.9c-1.4-1.4-1.7-2.5-0.6-4.2
	c1.3-2.1,2.8-4.1,4.2-6.1c0.5-0.7,0.9-0.8,1.6-0.3c1.6,1.2,2,2.4,1.5,4.3c-0.1,0.5-0.6,0.9-0.1,1.7c1.9-2.6,3.7-5.1,5.6-7.8
	c-1,0.2-1.3,0.7-1.8,1c-1.6,1.1-3.1,1-4.6,0c-0.7-0.5-0.8-1-0.3-1.6c1.1-1.5,2.1-3,3.2-4.4c2.7-3.8,2.7-3.8,6.2-0.6
	c0.1,0.1,0.2,0.2,0.4,0.3c1.2,1.1,1.6,2.4,1,4.1c-0.2,0.6-0.8,1.1-0.3,2c1-0.9,1.6-2.1,2.5-3.1c0.9-1,0.6-1.6-0.4-2.4
	c-3.5-2.4-6.9-4.9-10.3-7.4c-0.3-0.2-0.7-0.8-1.2-0.1c1.4,2.3,1.5,2.5,0,4.6c-3.2,4.5-6.5,9-9.8,13.5c-1.1,1.6-2.4,2.5-4.4,1.5
	c-0.2-0.1-0.6,0-0.9,0.1c3.5,2.6,7.1,5.2,10.6,7.8c0.9,0.7,1.9,1.3,2.8,2c0.5,0.4,0.9,0.4,1.3-0.1c1-1.3,2.1-2.4,2.8-3.9
	C45.7,414.6,45.3,414.9,45,415.2z M85.7,416.9c2.3,0.5,4.4,1,6.4,1.5c-2.7,0.6-3.8,2.8-5,4.9c-3.3,5.5-6.7,10.9-10,16.3
	c-0.2,0.3-0.3,0.6-0.5,0.8c-0.2,0.3-0.4,0.8-0.9,0.7c-0.6-0.1-0.6-0.7-0.7-1.2c-0.2-2.3-0.4-4.6-0.5-6.9c-0.4-4.7-0.7-9.4-1.1-14.1
	c-0.3-3.2-0.6-3.7-2.7-4.9c-0.6,0.2-0.8,0.8-1.2,1.3c-2.2,2.7-4.7,3.4-8,2.1c-1.2-0.5-2.2-1.1-3.2-1.9c-0.8-0.6-1.3-0.5-1.8,0.3
	c-1.1,1.7-2.4,3.4-3.5,5.2c-1.6,2.5-1.5,2.7,0.3,5c-1.4-0.3-6-3.4-7.5-5c2.8,0.5,3,0.5,4.7-1.9c3.2-4.5,6.4-9.1,9.5-13.7
	c1.5-2.3,1.5-2.4,0-4.6c0.6-0.6,0.9,0.1,1.2,0.3c2.1,1.4,4.1,2.8,6.1,4.3c2.4,1.7,4.1,3.7,3.7,6.8c-0.1,0.9,0.3,1.4,1.1,1.6
	c1.5,0.4,3,0.9,4.6,1.2c0.9,0.1,1.7,0.4,3,0.8c-1,0.8-2.2,0.3-2.6,1.2c-0.4,0.9-0.3,1.8-0.3,2.7c0.1,5.5,0.5,10.9,1.1,16.3
	c0.5,0.1,0.7-0.1,0.9-0.4c2.5-3.9,5.1-7.8,7.2-11.9c0.3-0.5,0.5-1,0.8-1.6C87.8,419.3,87.7,418.9,85.7,416.9z M67.8,409.3
	c0-1.4-0.8-2.6-2.3-3.6c-0.8-0.5-1.5-0.6-2.1,0.3c-1.5,2.2-3,4.4-4.5,6.5c-0.3,0.4-0.5,0.8-0.1,1.3c0.9,1.3,3.3,2,4.7,1.4
	C65.4,414.6,67.8,411.3,67.8,409.3z M28.7,408.7C28.7,408.7,28.7,408.7,28.7,408.7C28.7,408.8,28.7,408.7,28.7,408.7
	C28.7,408.7,28.7,408.7,28.7,408.7z M28.7,408.7c-0.4-0.3-0.8-0.6-1.2-0.8c-2.9-1.4-3.3-3.7-2.9-6.6c0.4-2.7,0.4-5.5,0.6-8.2
	c0-0.4,0-0.8,0-1.2c-0.1-0.5-0.4-1-0.9-1.1c-0.4-0.1-0.7,0.3-0.9,0.7c-1.1,1.5-2.2,2.9-3.3,4.4c-1.9,2.7-1.9,2.7-0.7,5.8
	c-2.5-1.9-4.7-3.6-7.4-5.6c3.1,0.7,3.3,0.7,5-1.6c3.4-4.4,6.8-8.8,10.1-13.3c1.7-2.3,1.6-2.4,0.3-4.7c1.6,0.7,8.9,6.1,9.8,7.3
	c1.5,2,1.6,4.1,0.4,6.3c-1.4,2.4-3.4,4.1-6.5,3.8c-0.8-0.1-1.6-0.3-2.4-0.5c-0.6,0.5-0.5,1.2-0.5,1.8c-0.1,3.2-0.1,6.5-0.3,9.7
	C27.8,406.2,29,407.3,28.7,408.7z M30.7,391.5c1.9-0.7,4.2-3.9,4.2-6c0.1-1.7-1-2.7-2.2-3.6c-0.7-0.6-1.3-0.5-1.9,0.2
	c-1.7,2.2-3.3,4.3-5,6.5c-0.3,0.4-0.5,0.8-0.1,1.3C26.8,391.2,29.3,392,30.7,391.5z M323,440.1c0,1.7-0.7,3.2-0.9,4.8
	c-0.1,1.1-0.7,1.2-1.7,1c-3.5-0.6-7-1.2-10.6-1.7c-4.9-0.8-9.8-1.6-14.7-2.4c-0.2,0-0.4-0.2-0.7-0.2c0.1-0.2,0.1-0.4,0.2-0.4
	c2.4-0.7,2.4-0.7,2.2-3c-0.3-5.6-0.3-5.6-6-6.4c-0.3,0-0.7,0-1-0.2c-1.5-0.6-2.3,0.1-2.9,1.5c-0.3,0.8-0.8,1.6-1.2,2.5
	c-1.2,2.6-1,3,1.5,4.8c-2.4,0.2-4.4-0.7-6.6-1c2.5-0.7,3.3-2.7,4.4-4.5c3.2-5.5,5.9-11.1,8.8-16.7c0.3-0.5,0.5-1,0.8-1.5
	c0.2-0.4,0.4-1,1-1c0.8,0.1,0.7,0.8,0.8,1.3c0.6,3.3,1.2,6.7,1.8,10c0.7,4,1.4,8,2.2,12c0.5,2.4,1.7,3.4,3.9,3.4
	c1.3,0,2.3-0.4,2.6-1.8c0.1-0.6,0.3-1.1,0.4-1.7c0.9-5.1,1.8-10.3,2.7-15.4c0-0.2,0.1-0.3,0.1-0.5c0.4-2.9,0.2-3.2-2.1-4.6
	c1.5-0.3,6.5,0.5,9.6,1.7c-3.5-0.2-3.9,2-4.3,4.1c-0.8,4.8-1.7,9.6-2.5,14.5c-0.1,0.7-0.1,1.5-0.1,2.2c0,1.3,0.7,2.2,1.9,2.6
	c0.9,0.3,1.9,0.5,2.9,0.7c3.4,0.6,5-0.2,6.6-3.4C322.3,440.6,322.3,440.1,323,440.1z M295.6,430.9c-0.5-3.3-0.9-6.3-1.9-9.3
	c-1.6,2.5-2.9,5-4.2,7.6c-0.3,0.6-0.1,1,0.5,1.1C291.7,430.5,293.4,431.1,295.6,430.9z M372.5,401.7c-1.1-1.5-2.1-3.1-0.3-5
	c-2.6,1.2-4.8,3-5.5,4c2.8-0.6,3.1-0.5,5,1.9c2.8,3.6,5.5,7.3,8.2,11c0.1,0.2,0.2,0.4-0.1,0.8c-0.6-0.2-1.3-0.4-2-0.6
	c-6.1-2.1-12.2-4.2-18.4-6.2c-0.7-0.2-1.5-0.8-2.1-0.3c-1.3,1-2.8,1.7-4.3,3.5c2.4-0.9,4.1-1,5.4,0.8c3.3,4.5,6.5,9,9.8,13.5
	c1.2,1.6,1.5,3.1,0.2,4.7c0,0,0.1,0.2,0.3,0.6c1.7-1.6,3.7-2.7,5.7-4.4c-3.5,0.4-3.8,0.3-5.7-2c-0.2-0.3-0.4-0.5-0.6-0.8
	c-2.7-3.6-5.3-7.2-8-10.8c-0.2-0.3-0.4-0.5-0.2-1c0.8,0,1.5,0.4,2.3,0.6c6.6,2.3,13.2,4.5,19.8,6.8c0.8,0.3,1.8,1.2,2.5,0.3
	c0.6-0.9-0.6-1.5-1.1-2.2C379.8,411.8,376.2,406.8,372.5,401.7z M366.2,432.4c-0.9,1.2-5.4,3.9-8.1,4.8c1.9-2.2,1.9-2.6,0.1-4.4
	c-3.6-3.9-3.6-3.9-8.1-1.3c-3,1.7-3,1.7-2.3,4.9c0.1,0.5,0.2,1,0.3,1.5c0.7,2.8,1.1,3,4,3c-1.9,1.1-3.7,2.1-5.6,3.2
	c1.7-2.6,0.7-5.2,0.2-7.7c-1.1-6.1-2.3-12.2-3.4-18.3c-0.1-0.4-0.2-0.8-0.3-1.2c-0.1-0.3,0-0.7,0.3-0.9c0.3-0.2,0.7-0.1,0.9,0.1
	c0.5,0.3,0.9,0.7,1.3,1.1c4.9,4.4,9.9,8.8,14.8,13.3C362.1,432,363.8,433.2,366.2,432.4z M352.7,428.3c-2.8-3.1-5.9-5.8-7.5-6.4
	c0.6,3.2,1,6.3,2,9.6C349.2,430.3,350.9,429.4,352.7,428.3z M405.5,402.7c-0.7,1.7-2.3,2.1-3.4,3c-1.1,0.9-2.3,1.8-3.5,2.7
	c1-2.8,1-3.1-1.6-4.9c-1.2-0.9-2.2-2.3-3.7-2.4c-1.5-0.1-2.5,1.4-3.7,2.3c-3.4,2.5-3.1,1.3-1.9,5.5c0.1,0.5,0.3,0.9,0.5,1.4
	c1,2.5,1.4,2.7,4,2.1c-0.8,1.1-3,2.8-5.2,4c0.1-1.2,1.2-2.1,0.8-3.3c-0.3-1.1-0.6-2.2-0.9-3.4c-1.6-6.3-3.8-12.3-5.7-18.5
	c-0.2-0.8-0.9-1.7-0.2-2.3c0.8-0.7,1.5,0.4,2.1,0.8c5.6,3.9,11.1,7.9,16.6,11.8C401.6,402.8,403.2,403.9,405.5,402.7z M391.7,399.8
	c-2.7-1.9-5.2-3.7-7.8-5.6c-0.1,0.1-0.3,0.3-0.4,0.4c1.1,3,1.8,6.1,3.2,9.2C388.4,402.4,390.3,401.6,391.7,399.8z M282.6,419.3
	c0,0.2,0.2,0.4,0.4,1c0.7-1.5,0.6-2.8,0.7-4.1c0.1-1.7,0.1-1.8-1.7-2.1c-3.5-0.6-7.1-1.1-10.6-1.6c-2.1-0.3-4.1-0.7-6.1-0.9
	c-0.6-0.1-1.3-0.2-1.4,0.6c-0.2,1.6-0.8,3.1-0.5,4.8c0.6-0.2,0.6-0.6,0.7-0.9c1.1-2.8,1.7-3.1,4.7-2.7c0.5,0.1,1,0.1,1.5,0.2
	c1.5,0.3,1.8,0.6,1.6,2.2c-0.3,2.5-0.7,4.9-1,7.4c-0.5,3.4-1,6.9-1.5,10.3c-0.4,2.3-0.9,2.7-3.2,3.1c-0.4,0.1-0.8,0.1-0.8,0.8
	c3.3,0.5,6.6,1,9.8,1.4c0.2-0.6-0.1-0.7-0.3-0.8c-2.3-1.2-2.5-1.6-2.2-4.1c0.2-1.6,0.4-3.1,0.7-4.7c0.7-4.3,1.3-8.5,2-12.8
	c0.3-1.7,0.7-2,2.3-1.8C281.2,414.9,282.1,415.8,282.6,419.3z M254.9,414.9c-0.7,5.2-1.5,10.3-2.4,15.5c-0.6,3.3-0.7,3.3-3.5,4.2
	c2.8,0.9,7.4,1.6,9,1.3c-2.7-1.7-2.5-1.2-2.2-4.5c0.4-4,1.1-8,1.7-12c0.3-1.8,0.6-3.6,1-5.4c0.3-1.2,0.9-2.1,2.3-2.1
	c0.3,0,0.7,0,0.7-0.7c-2.9-0.4-5.9-0.9-9.3-1.4C255.1,411.7,255.3,411.8,254.9,414.9z M334.7,442.6c-0.1-1.6-0.3-3.1-0.4-4.7
	c-0.3-4.1-0.5-8.1-0.7-12.2c-0.1-1.6,0.4-2.8,2.1-3.1c0.3-0.1,0.4-0.3,0.1-0.7c-2.8,0.2-5.8,0.5-8.7,0.7c-0.2,0.2-0.3,0.4-0.5,0.5
	c3.5,0,3.4,2.3,3.6,4.5c0.3,3.2,0.6,6.4,0.8,9.7c0.2,2.3,0.2,4.6,0.3,7c0,1.5-0.4,2.6-2.1,2.8c-0.3,0-0.4,0.3-0.3,0.7
	c2.9-0.2,5.9-0.4,8.8-0.6c0.1-0.2,0.2-0.3,0.3-0.5C335.2,446.6,334.8,444.7,334.7,442.6z"/>
</svg>
